<?xml version="1.0" encoding="UTF-8" standalone="no"?>
<!-- Created with Inkscape (http://www.inkscape.org/) -->

<svg
   xmlns:dc="http://purl.org/dc/elements/1.1/"
   xmlns:cc="http://creativecommons.org/ns#"
   xmlns:rdf="http://www.w3.org/1999/02/22-rdf-syntax-ns#"
   xmlns:svg="http://www.w3.org/2000/svg"
   xmlns="http://www.w3.org/2000/svg"
   xmlns:sodipodi="http://sodipodi.sourceforge.net/DTD/sodipodi-0.dtd"
   xmlns:inkscape="http://www.inkscape.org/namespaces/inkscape"
   width="169.95683mm"
   height="24.679892mm"
   viewBox="0 0 169.95683 24.679892"
   version="1.1"
   id="svg8"
   inkscape:version="0.92.4 (5da689c313, 2019-01-14)"
   sodipodi:docname="gantt-chart.svg">
  <defs
     id="defs2">
    <marker
       inkscape:stockid="Arrow1Lstart"
       orient="auto"
       refY="0"
       refX="0"
       id="Arrow1Lstart"
       style="overflow:visible"
       inkscape:isstock="true">
      <path
         id="path1260"
         d="M 0,0 5,-5 -12.5,0 5,5 Z"
         style="fill-rule:evenodd;stroke:#000000;stroke-width:1.00000003pt"
         transform="matrix(0.8,0,0,0.8,10,0)"
         inkscape:connector-curvature="0" />
    </marker>
  </defs>
  <sodipodi:namedview
     id="base"
     pagecolor="#ffffff"
     bordercolor="#666666"
     borderopacity="1.0"
     inkscape:pageopacity="0.0"
     inkscape:pageshadow="2"
     inkscape:zoom="1.979899"
     inkscape:cx="355.10563"
     inkscape:cy="21.484736"
     inkscape:document-units="mm"
     inkscape:current-layer="g1182"
     showgrid="true"
     inkscape:window-width="1850"
     inkscape:window-height="1023"
     inkscape:window-x="70"
     inkscape:window-y="27"
     inkscape:window-maximized="1"
     fit-margin-top="0"
     fit-margin-left="0"
     fit-margin-right="0"
     fit-margin-bottom="0">
    <inkscape:grid
       type="xygrid"
       id="grid1187"
       originx="2.5898666"
       originy="-4.7680666e-07" />
  </sodipodi:namedview>
  <metadata
     id="metadata5">
    <rdf:RDF>
      <cc:Work
         rdf:about="">
        <dc:format>image/svg+xml</dc:format>
        <dc:type
           rdf:resource="http://purl.org/dc/dcmitype/StillImage" />
        <dc:title></dc:title>
      </cc:Work>
    </rdf:RDF>
  </metadata>
  <g
     inkscape:label="Layer 1"
     inkscape:groupmode="layer"
     id="layer1"
     transform="translate(-45.931717,-71.994011)">
    <rect
       style="fill:#0099e6;fill-opacity:1;stroke:none;stroke-width:1.06711566;stroke-linejoin:miter;stroke-miterlimit:4;stroke-dasharray:none;stroke-opacity:1;paint-order:normal"
       id="rect1228-0"
       width="24.999996"
       height="17.733095"
       x="65.719498"
       y="72.326225" />
    <rect
       style="fill:#006ea6;fill-opacity:1;stroke:none;stroke-width:1.06711566;stroke-linejoin:miter;stroke-miterlimit:4;stroke-dasharray:none;stroke-opacity:1;paint-order:normal"
       id="rect1228-0-6"
       width="24.999996"
       height="17.733095"
       x="90.719498"
       y="72.326225" />
    <rect
       style="fill:#006699;fill-opacity:1;stroke:none;stroke-width:1.06711566;stroke-linejoin:miter;stroke-miterlimit:4;stroke-dasharray:none;stroke-opacity:1;paint-order:normal"
       id="rect1228-0-6-0"
       width="24.999996"
       height="17.733095"
       x="115.7195"
       y="72.326225" />
    <rect
       style="fill:#005580;fill-opacity:1;stroke:none;stroke-width:1.06711566;stroke-linejoin:miter;stroke-miterlimit:4;stroke-dasharray:none;stroke-opacity:1;paint-order:normal"
       id="rect1228-0-2"
       width="24.999996"
       height="17.733095"
       x="140.71951"
       y="72.326225" />
    <rect
       style="fill:#003b59;fill-opacity:1;stroke:none;stroke-width:1.06711566;stroke-linejoin:miter;stroke-miterlimit:4;stroke-dasharray:none;stroke-opacity:1;paint-order:normal"
       id="rect1228-0-6-5"
       width="24.999996"
       height="17.733095"
       x="165.71951"
       y="72.326225" />
    <rect
       style="fill:#002f47;fill-opacity:1;stroke:none;stroke-width:1.06711566;stroke-linejoin:miter;stroke-miterlimit:4;stroke-dasharray:none;stroke-opacity:1;paint-order:normal"
       id="rect1228-0-6-0-8"
       width="24.999996"
       height="17.733095"
       x="190.71951"
       y="72.326225" />
    <g
       id="g1150"
       transform="translate(62.537208,-17.281471)"
       style="stroke:#000000;stroke-width:0.1">
      <rect
         y="97.34079"
         x="18.263542"
         height="5"
         width="5"
         id="rect815-8-8"
         style="fill:#ccff00;fill-opacity:1;stroke:#000000;stroke-width:0.1;stroke-linejoin:miter;stroke-miterlimit:4;stroke-dasharray:none;stroke-opacity:1" />
      <rect
         y="97.34079"
         x="23.263542"
         height="5"
         width="5"
         id="rect815-1"
         style="fill:#ccff00;fill-opacity:1;stroke:#000000;stroke-width:0.1;stroke-linejoin:miter;stroke-miterlimit:4;stroke-dasharray:none;stroke-opacity:1" />
      <rect
         y="97.34079"
         x="28.263542"
         height="5"
         width="5"
         id="rect815-5"
         style="fill:#ccff00;fill-opacity:1;stroke:#000000;stroke-width:0.1;stroke-linejoin:miter;stroke-miterlimit:4;stroke-dasharray:none;stroke-opacity:1" />
      <rect
         y="97.34079"
         x="33.263542"
         height="5"
         width="5"
         id="rect815-8-7"
         style="fill:#ccff00;fill-opacity:1;stroke:#000000;stroke-width:0.1;stroke-linejoin:miter;stroke-miterlimit:4;stroke-dasharray:none;stroke-opacity:1" />
      <rect
         y="97.34079"
         x="38.263542"
         height="5"
         width="5"
         id="rect815-2-0"
         style="fill:#ccff00;fill-opacity:1;stroke:#000000;stroke-width:0.1;stroke-linejoin:miter;stroke-miterlimit:4;stroke-dasharray:none;stroke-opacity:1" />
      <rect
         y="97.34079"
         x="43.263542"
         height="5"
         width="5"
         id="rect815-8-8-8"
         style="fill:#ccff00;fill-opacity:1;stroke:#000000;stroke-width:0.1;stroke-linejoin:miter;stroke-miterlimit:4;stroke-dasharray:none;stroke-opacity:1" />
      <rect
         y="97.34079"
         x="48.263542"
         height="5"
         width="5"
         id="rect815-1-1"
         style="fill:#ccff00;fill-opacity:1;stroke:#000000;stroke-width:0.1;stroke-linejoin:miter;stroke-miterlimit:4;stroke-dasharray:none;stroke-opacity:1" />
      <rect
         y="97.34079"
         x="53.263542"
         height="5"
         width="5"
         id="rect815-6"
         style="fill:#ccff00;fill-opacity:1;stroke:#000000;stroke-width:0.1;stroke-linejoin:miter;stroke-miterlimit:4;stroke-dasharray:none;stroke-opacity:1" />
      <rect
         y="97.34079"
         x="58.263542"
         height="5"
         width="5"
         id="rect815-8-76"
         style="fill:#ccff00;fill-opacity:1;stroke:#000000;stroke-width:0.1;stroke-linejoin:miter;stroke-miterlimit:4;stroke-dasharray:none;stroke-opacity:1" />
      <rect
         y="97.34079"
         x="63.263542"
         height="5"
         width="5"
         id="rect815-2-09"
         style="fill:#ccff00;fill-opacity:1;stroke:#000000;stroke-width:0.1;stroke-linejoin:miter;stroke-miterlimit:4;stroke-dasharray:none;stroke-opacity:1" />
      <rect
         y="97.34079"
         x="68.263542"
         height="5"
         width="5"
         id="rect815-8-8-7"
         style="fill:#ccff00;fill-opacity:1;stroke:#000000;stroke-width:0.1;stroke-linejoin:miter;stroke-miterlimit:4;stroke-dasharray:none;stroke-opacity:1" />
      <rect
         y="97.34079"
         x="73.263542"
         height="5"
         width="5"
         id="rect815-1-5"
         style="fill:#ff6600;fill-opacity:1;stroke:#000000;stroke-width:0.1;stroke-linejoin:miter;stroke-miterlimit:4;stroke-dasharray:none;stroke-opacity:1" />
      <rect
         y="97.34079"
         x="78.263542"
         height="5"
         width="5"
         id="rect815-5-9"
         style="fill:#ff6600;fill-opacity:1;stroke:#000000;stroke-width:0.1;stroke-linejoin:miter;stroke-miterlimit:4;stroke-dasharray:none;stroke-opacity:1" />
      <rect
         y="97.34079"
         x="83.263542"
         height="5"
         width="5"
         id="rect815-8-7-7"
         style="fill:#ff6600;fill-opacity:1;stroke:#000000;stroke-width:0.1;stroke-linejoin:miter;stroke-miterlimit:4;stroke-dasharray:none;stroke-opacity:1" />
      <rect
         y="97.34079"
         x="88.263542"
         height="5"
         width="5"
         id="rect815-2-0-8"
         style="fill:#ff6600;fill-opacity:1;stroke:#000000;stroke-width:0.1;stroke-linejoin:miter;stroke-miterlimit:4;stroke-dasharray:none;stroke-opacity:1" />
      <rect
         y="97.34079"
         x="93.263542"
         height="5"
         width="5"
         id="rect815-8-8-8-5"
         style="fill:#ff6600;fill-opacity:1;stroke:#000000;stroke-width:0.1;stroke-linejoin:miter;stroke-miterlimit:4;stroke-dasharray:none;stroke-opacity:1" />
      <rect
         y="97.34079"
         x="98.263542"
         height="5"
         width="5"
         id="rect815-1-1-3"
         style="fill:#ff6600;fill-opacity:1;stroke:#000000;stroke-width:0.1;stroke-linejoin:miter;stroke-miterlimit:4;stroke-dasharray:none;stroke-opacity:1" />
      <rect
         y="97.34079"
         x="103.26354"
         height="5"
         width="5"
         id="rect815-7"
         style="fill:#ff6600;fill-opacity:1;stroke:#000000;stroke-width:0.1;stroke-linejoin:miter;stroke-miterlimit:4;stroke-dasharray:none;stroke-opacity:1" />
      <rect
         y="97.34079"
         x="108.26354"
         height="5"
         width="5"
         id="rect815-8-4"
         style="fill:#ff6600;fill-opacity:1;stroke:#000000;stroke-width:0.1;stroke-linejoin:miter;stroke-miterlimit:4;stroke-dasharray:none;stroke-opacity:1" />
      <rect
         y="97.34079"
         x="113.26354"
         height="5"
         width="5"
         id="rect815-2-1"
         style="fill:#ff6600;fill-opacity:1;stroke:#000000;stroke-width:0.1;stroke-linejoin:miter;stroke-miterlimit:4;stroke-dasharray:none;stroke-opacity:1" />
      <rect
         y="97.34079"
         x="118.26354"
         height="5"
         width="5"
         id="rect815-8-8-9"
         style="fill:#ff6600;fill-opacity:1;stroke:#000000;stroke-width:0.1;stroke-linejoin:miter;stroke-miterlimit:4;stroke-dasharray:none;stroke-opacity:1" />
      <rect
         y="97.34079"
         x="123.26354"
         height="5"
         width="5"
         id="rect815-1-0"
         style="fill:#ff6600;fill-opacity:1;stroke:#000000;stroke-width:0.1;stroke-linejoin:miter;stroke-miterlimit:4;stroke-dasharray:none;stroke-opacity:1" />
      <rect
         y="97.34079"
         x="128.26355"
         height="5"
         width="5"
         id="rect815-5-98"
         style="fill:#ff6600;fill-opacity:1;stroke:#000000;stroke-width:0.1;stroke-linejoin:miter;stroke-miterlimit:4;stroke-dasharray:none;stroke-opacity:1" />
      <rect
         y="97.34079"
         x="133.26355"
         height="5"
         width="5"
         id="rect815-8-7-8"
         style="fill:#ff6600;fill-opacity:1;stroke:#000000;stroke-width:0.1;stroke-linejoin:miter;stroke-miterlimit:4;stroke-dasharray:none;stroke-opacity:1" />
      <rect
         y="97.34079"
         x="138.26355"
         height="5"
         width="5"
         id="rect815-2-0-5"
         style="fill:#ff6600;fill-opacity:1;stroke:#000000;stroke-width:0.1;stroke-linejoin:miter;stroke-miterlimit:4;stroke-dasharray:none;stroke-opacity:1" />
      <rect
         y="97.34079"
         x="143.26355"
         height="5"
         width="5"
         id="rect815-8-8-8-8"
         style="fill:#ff6600;fill-opacity:1;stroke:#000000;stroke-width:0.1;stroke-linejoin:miter;stroke-miterlimit:4;stroke-dasharray:none;stroke-opacity:1" />
    </g>
    <rect
       style="fill:#d4ff2a;fill-opacity:1;stroke:#000000;stroke-width:0.1;stroke-linejoin:miter;stroke-miterlimit:4;stroke-dasharray:none;stroke-opacity:1"
       id="rect815-8-8-4"
       width="5"
       height="5"
       x="80.800751"
       y="85.059319" />
    <rect
       style="fill:#d4ff2a;fill-opacity:1;stroke:#000000;stroke-width:0.1;stroke-linejoin:miter;stroke-miterlimit:4;stroke-dasharray:none;stroke-opacity:1"
       id="rect815-1-3"
       width="5"
       height="5"
       x="85.800751"
       y="85.059319" />
    <rect
       style="fill:#d4ff2a;fill-opacity:1;stroke:#000000;stroke-width:0.1;stroke-linejoin:miter;stroke-miterlimit:4;stroke-dasharray:none;stroke-opacity:1"
       id="rect815-5-8"
       width="5"
       height="5"
       x="90.800751"
       y="85.059319" />
    <rect
       style="fill:#d4ff2a;fill-opacity:1;stroke:#000000;stroke-width:0.1;stroke-linejoin:miter;stroke-miterlimit:4;stroke-dasharray:none;stroke-opacity:1"
       id="rect815-8-7-6"
       width="5"
       height="5"
       x="95.800751"
       y="85.059319" />
    <rect
       style="fill:#d4ff2a;fill-opacity:1;stroke:#000000;stroke-width:0.1;stroke-linejoin:miter;stroke-miterlimit:4;stroke-dasharray:none;stroke-opacity:1"
       id="rect815-2-0-0"
       width="5"
       height="5"
       x="100.80075"
       y="85.059319" />
    <rect
       style="fill:#d4ff2a;fill-opacity:1;stroke:#000000;stroke-width:0.1;stroke-linejoin:miter;stroke-miterlimit:4;stroke-dasharray:none;stroke-opacity:1"
       id="rect815-8-8-8-89"
       width="5"
       height="5"
       x="105.80075"
       y="85.059319" />
    <rect
       style="fill:#d4ff2a;fill-opacity:1;stroke:#000000;stroke-width:0.1;stroke-linejoin:miter;stroke-miterlimit:4;stroke-dasharray:none;stroke-opacity:1"
       id="rect815-1-1-2"
       width="5"
       height="5"
       x="110.80075"
       y="85.059319" />
    <rect
       style="fill:#d4ff2a;fill-opacity:1;stroke:#000000;stroke-width:0.1;stroke-linejoin:miter;stroke-miterlimit:4;stroke-dasharray:none;stroke-opacity:1"
       id="rect815-6-2"
       width="5"
       height="5"
       x="115.80075"
       y="85.059319" />
    <rect
       style="fill:#d4ff2a;fill-opacity:1;stroke:#000000;stroke-width:0.1;stroke-linejoin:miter;stroke-miterlimit:4;stroke-dasharray:none;stroke-opacity:1"
       id="rect815-8-76-3"
       width="5"
       height="5"
       x="120.80075"
       y="85.059319" />
    <rect
       style="fill:#ff6600;fill-opacity:1;stroke:#000000;stroke-width:0.1;stroke-linejoin:miter;stroke-miterlimit:4;stroke-dasharray:none;stroke-opacity:1"
       id="rect815-2-09-1"
       width="5"
       height="5"
       x="125.80075"
       y="85.059319" />
    <rect
       style="fill:#ff6600;fill-opacity:1;stroke:#000000;stroke-width:0.1;stroke-linejoin:miter;stroke-miterlimit:4;stroke-dasharray:none;stroke-opacity:1"
       id="rect815-8-8-7-8"
       width="5"
       height="5"
       x="130.80075"
       y="85.059319" />
    <rect
       style="fill:#ff6600;fill-opacity:1;stroke:#000000;stroke-width:0.1;stroke-linejoin:miter;stroke-miterlimit:4;stroke-dasharray:none;stroke-opacity:1"
       id="rect815-1-5-3"
       width="5"
       height="5"
       x="135.80075"
       y="85.059319" />
    <rect
       style="fill:#ff6600;fill-opacity:1;stroke:#000000;stroke-width:0.1;stroke-linejoin:miter;stroke-miterlimit:4;stroke-dasharray:none;stroke-opacity:1"
       id="rect815-5-9-4"
       width="5"
       height="5"
       x="140.80075"
       y="85.059319" />
    <rect
       style="fill:#ff6600;fill-opacity:1;stroke:#000000;stroke-width:0.1;stroke-linejoin:miter;stroke-miterlimit:4;stroke-dasharray:none;stroke-opacity:1"
       id="rect815-8-7-7-2"
       width="5"
       height="5"
       x="145.80075"
       y="85.059319" />
    <rect
       style="fill:#ff6600;fill-opacity:1;stroke:#000000;stroke-width:0.1;stroke-linejoin:miter;stroke-miterlimit:4;stroke-dasharray:none;stroke-opacity:1"
       id="rect815-2-0-8-2"
       width="5"
       height="5"
       x="150.80075"
       y="85.059319" />
    <rect
       style="fill:#ff6600;fill-opacity:1;stroke:#000000;stroke-width:0.1;stroke-linejoin:miter;stroke-miterlimit:4;stroke-dasharray:none;stroke-opacity:1"
       id="rect815-8-8-8-5-4"
       width="5"
       height="5"
       x="155.80075"
       y="85.059319" />
    <rect
       style="fill:#ff6600;fill-opacity:1;stroke:#000000;stroke-width:0.1;stroke-linejoin:miter;stroke-miterlimit:4;stroke-dasharray:none;stroke-opacity:1"
       id="rect815-1-1-3-5"
       width="5"
       height="5"
       x="160.80075"
       y="85.059319" />
    <rect
       style="fill:#ff6600;fill-opacity:1;stroke:#000000;stroke-width:0.1;stroke-linejoin:miter;stroke-miterlimit:4;stroke-dasharray:none;stroke-opacity:1"
       id="rect815-7-1"
       width="5"
       height="5"
       x="165.80075"
       y="85.059319" />
    <rect
       style="fill:#ff6600;fill-opacity:1;stroke:#000000;stroke-width:0.1;stroke-linejoin:miter;stroke-miterlimit:4;stroke-dasharray:none;stroke-opacity:1"
       id="rect815-8-4-7"
       width="5"
       height="5"
       x="170.80075"
       y="85.059319" />
    <rect
       style="fill:#ff6600;fill-opacity:1;stroke:#000000;stroke-width:0.1;stroke-linejoin:miter;stroke-miterlimit:4;stroke-dasharray:none;stroke-opacity:1"
       id="rect815-2-1-5"
       width="5"
       height="5"
       x="175.80075"
       y="85.059319" />
    <rect
       style="fill:#ff6600;fill-opacity:1;stroke:#000000;stroke-width:0.1;stroke-linejoin:miter;stroke-miterlimit:4;stroke-dasharray:none;stroke-opacity:1"
       id="rect815-8-8-9-7"
       width="5"
       height="5"
       x="180.80075"
       y="85.059319" />
    <rect
       style="fill:#ff6600;fill-opacity:1;stroke:#000000;stroke-width:0.1;stroke-linejoin:miter;stroke-miterlimit:4;stroke-dasharray:none;stroke-opacity:1"
       id="rect815-1-0-1"
       width="5"
       height="5"
       x="185.80075"
       y="85.059319" />
    <rect
       style="fill:#ff6600;fill-opacity:1;stroke:#000000;stroke-width:0.1;stroke-linejoin:miter;stroke-miterlimit:4;stroke-dasharray:none;stroke-opacity:1"
       id="rect815-5-98-6"
       width="5"
       height="5"
       x="190.80077"
       y="85.059319" />
    <flowRoot
       style="font-style:normal;font-weight:normal;font-size:40px;line-height:1.25;font-family:sans-serif;letter-spacing:0px;word-spacing:0px;fill:#000000;fill-opacity:1;stroke:none;stroke-width:0.1"
       id="flowRoot1237"
       xml:space="preserve"
       transform="translate(62.537208,-17.810638)"><flowRegion
         id="flowRegion1239"><rect
           y="128.27834"
           x="4.7884722"
           height="85"
           width="265"
           id="rect1241" /></flowRegion><flowPara
         id="flowPara1243"></flowPara></flowRoot>    <g
       aria-label="1 square = 1 day of development time"
       transform="matrix(0.26458333,0,0,0.26458333,38.047266,55.409)"
       style="font-style:normal;font-weight:normal;font-size:40px;line-height:1.25;font-family:sans-serif;letter-spacing:0px;word-spacing:0px;fill:#000000;fill-opacity:1;stroke:none;stroke-width:0.1"
       id="flowRoot1245">
      <path
         d="m 61.314396,140.85259 0.293333,0.64533 2.346667,-1.08533 v 7.568 h -2.552 v 0.68933 h 5.793333 v -0.68933 h -2.508 v -8.41867 h -0.469333 z"
         style="font-style:normal;font-variant:normal;font-weight:normal;font-stretch:normal;font-size:14.66666698px;font-family:Courier;-inkscape-font-specification:'Courier, Normal';font-variant-ligatures:normal;font-variant-caps:normal;font-variant-numeric:normal;font-feature-settings:normal;text-align:start;writing-mode:lr-tb;text-anchor:start"
         id="path1442" />
      <path
         d="m 83.786939,142.06992 c -0.02933,0.10267 -0.044,0.11734 -0.088,0.308 -0.02933,0.088 -0.102667,0.352 -0.264,0.352 -0.117333,0 -0.293333,-0.10266 -0.322667,-0.132 -0.264,-0.16133 -0.836,-0.42533 -1.686666,-0.42533 -1.540001,0 -2.596001,0.792 -2.596001,1.848 0,1.77467 2.273334,1.86267 3.050667,1.892 1.217334,0.044 2.097334,0.088 2.097334,0.968 0,1.12933 -1.584,1.276 -2.170667,1.276 -2.038667,0 -2.273334,-1.24667 -2.361334,-1.74533 l -0.645333,0.0733 c 0.02933,0.33733 0.088,0.82133 0.088,1.452 0,0.484 -0.044,0.67467 -0.088,0.924 h 0.645333 c 0.088,-0.33733 0.161334,-0.616 0.293334,-0.616 0.02933,0 0.07333,0.0293 0.07333,0.0293 0.337333,0.19067 1.1,0.616 2.156,0.616 1.276,0 2.801334,-0.616 2.801334,-2.03866 0,-1.54 -1.789334,-1.628 -2.126667,-1.64267 -1.716,-0.088 -3.021334,-0.14667 -3.021334,-1.21733 0,-0.60134 0.660001,-1.08534 1.818667,-1.08534 2.024,0 2.2,0.95334 2.302667,1.52534 l 0.645333,-0.0733 c -0.02933,-0.24933 -0.07333,-0.51333 -0.07333,-0.924 0,-0.572 0.07333,-0.95333 0.132,-1.26133 z"
         style="font-style:normal;font-variant:normal;font-weight:normal;font-stretch:normal;font-size:14.66666698px;font-family:Courier;-inkscape-font-specification:'Courier, Normal';font-variant-ligatures:normal;font-variant-caps:normal;font-variant-numeric:normal;font-feature-settings:normal;text-align:start;writing-mode:lr-tb;text-anchor:start"
         id="path1444" />
      <path
         d="m 94.69321,142.36326 h -1.936 v 1.04133 h -0.02933 c -0.249333,-0.33733 -0.953333,-1.232 -2.522667,-1.232 -1.994666,0 -3.270666,1.61333 -3.270666,3.28533 0,1.96534 1.657333,3.31467 3.241333,3.31467 0.234667,0 1.54,0 2.552,-1.26133 h 0.02933 v 2.772 h -2.185333 v 0.68933 h 4.121333 v -0.68933 h -1.202666 v -7.23067 h 1.202666 z m -1.877333,3.05066 c 0,1.73067 -1.466667,2.62534 -2.610667,2.62534 -1.32,0 -2.478666,-1.1 -2.478666,-2.596 0,-1.21734 0.821333,-2.53734 2.464,-2.53734 1.525333,0 2.625333,1.15867 2.625333,2.508 z"
         style="font-style:normal;font-variant:normal;font-weight:normal;font-stretch:normal;font-size:14.66666698px;font-family:Courier;-inkscape-font-specification:'Courier, Normal';font-variant-ligatures:normal;font-variant-caps:normal;font-variant-numeric:normal;font-feature-settings:normal;text-align:start;writing-mode:lr-tb;text-anchor:start"
         id="path1446" />
      <path
         d="m 95.435482,142.36326 v 0.68933 h 1.202666 v 3.19733 c 0,1.15867 0.410667,2.62534 2.258667,2.62534 1.129335,0 1.892005,-0.64534 2.302665,-1.012 v 0.80666 h 1.92134 v -0.68933 h -1.188 v -5.61733 h -1.994672 v 0.68933 h 1.261332 v 3.81333 c -0.792,0.88 -1.554665,1.276 -2.361332,1.276 -1.466666,0 -1.466666,-1.51066 -1.466666,-1.892 v -3.88666 z"
         style="font-style:normal;font-variant:normal;font-weight:normal;font-stretch:normal;font-size:14.66666698px;font-family:Courier;-inkscape-font-specification:'Courier, Normal';font-variant-ligatures:normal;font-variant-caps:normal;font-variant-numeric:normal;font-feature-settings:normal;text-align:start;writing-mode:lr-tb;text-anchor:start"
         id="path1448" />
      <path
         d="m 110.52176,144.32859 c 0,-0.572 0,-2.25867 -2.49334,-2.25867 -1.15866,0 -2.17066,0.396 -2.80133,0.66 l 0.27867,0.66 c 1.17333,-0.51333 1.98,-0.616 2.508,-0.616 1.77466,0 1.77466,1.08534 1.77466,1.55467 v 0.45467 c -0.89466,-0.176 -1.92133,-0.19067 -2.05333,-0.19067 -2.43467,0 -3.10933,1.42267 -3.10933,2.21467 0,1.012 0.90933,2.068 2.36133,2.068 1.20267,0 2.2,-0.704 2.80133,-1.26134 v 1.056 h 2.03867 v -0.68933 h -1.30533 z m -0.73334,2.30267 c -1.26133,1.408 -2.332,1.54 -2.816,1.54 -0.82133,0 -1.55466,-0.616 -1.55466,-1.34934 0,-0.176 0.044,-1.52533 2.464,-1.52533 0.80666,0 1.56933,0.10267 1.90666,0.16133 z"
         style="font-style:normal;font-variant:normal;font-weight:normal;font-stretch:normal;font-size:14.66666698px;font-family:Courier;-inkscape-font-specification:'Courier, Normal';font-variant-ligatures:normal;font-variant-caps:normal;font-variant-numeric:normal;font-feature-settings:normal;text-align:start;writing-mode:lr-tb;text-anchor:start"
         id="path1450" />
      <path
         d="m 113.77202,142.36326 v 0.68933 h 1.70134 v 4.928 h -1.81867 v 0.68933 h 5.33867 v -0.68933 h -2.78667 v -3.212 c 0.49867,-0.55733 1.65733,-1.87733 2.91867,-1.87733 0.58666,0 0.77733,0.32266 0.924,0.54266 0,0.0293 0.044,0.088 0.0587,0.10267 l 0.77734,-0.572 c -0.32267,-0.38133 -0.71867,-0.80667 -1.64267,-0.80667 -1.39333,0 -2.376,1.012 -3.036,1.672 v -1.46666 z"
         style="font-style:normal;font-variant:normal;font-weight:normal;font-stretch:normal;font-size:14.66666698px;font-family:Courier;-inkscape-font-specification:'Courier, Normal';font-variant-ligatures:normal;font-variant-caps:normal;font-variant-numeric:normal;font-feature-settings:normal;text-align:start;writing-mode:lr-tb;text-anchor:start"
         id="path1452" />
      <path
         d="m 129.21029,147.18859 c -0.616,0.308 -1.96533,0.98267 -3.19733,0.98267 -2.25867,0 -2.74267,-1.68667 -2.78667,-2.44934 h 5.984 c 0,-0.10266 0.0293,-0.42533 0.0293,-0.66 0,-1.34933 -1.11467,-2.91866 -3.32934,-2.91866 -2.156,0 -3.476,1.56933 -3.476,3.388 0,1.73066 1.17334,3.344 3.564,3.344 1.364,0 2.78667,-0.616 3.54934,-1.04134 z m -5.984,-2.156 c 0.10267,-0.66 0.748,-2.18533 2.684,-2.18533 1.76,0 2.52267,1.232 2.53734,2.18533 z"
         style="font-style:normal;font-variant:normal;font-weight:normal;font-stretch:normal;font-size:14.66666698px;font-family:Courier;-inkscape-font-specification:'Courier, Normal';font-variant-ligatures:normal;font-variant-caps:normal;font-variant-numeric:normal;font-feature-settings:normal;text-align:start;writing-mode:lr-tb;text-anchor:start"
         id="path1454" />
      <path
         d="m 139.87617,142.52459 v 0.73333 h 6.92267 v -0.73333 z m 0,2.65467 v 0.73333 h 6.92267 v -0.73333 z"
         style="font-style:normal;font-variant:normal;font-weight:normal;font-stretch:normal;font-size:14.66666698px;font-family:Courier;-inkscape-font-specification:'Courier, Normal';font-variant-ligatures:normal;font-variant-caps:normal;font-variant-numeric:normal;font-feature-settings:normal;text-align:start;writing-mode:lr-tb;text-anchor:start"
         id="path1456" />
      <path
         d="m 158.05138,140.85259 0.29333,0.64533 2.34667,-1.08533 v 7.568 h -2.552 v 0.68933 h 5.79333 v -0.68933 h -2.508 v -8.41867 h -0.46933 z"
         style="font-style:normal;font-variant:normal;font-weight:normal;font-stretch:normal;font-size:14.66666698px;font-family:Courier;-inkscape-font-specification:'Courier, Normal';font-variant-ligatures:normal;font-variant-caps:normal;font-variant-numeric:normal;font-feature-settings:normal;text-align:start;writing-mode:lr-tb;text-anchor:start"
         id="path1458" />
      <path
         d="m 178.25059,139.75259 0.044,0.66 2.36134,-0.14667 v 3.3 h -0.0293 c -0.54266,-0.80666 -1.61333,-1.26133 -2.508,-1.26133 -1.584,0 -3.22666,1.276 -3.22666,3.256 0,1.76 1.42266,3.256 3.256,3.256 0.27866,0 1.56933,0 2.47866,-1.232 h 0.0293 v 1.08533 h 1.98 v -0.68933 h -1.24667 v -8.50667 z m 2.376,5.83733 c 0,1.43734 -1.144,2.49334 -2.47866,2.49334 -1.32,0 -2.464,-1.04134 -2.464,-2.53734 0,-1.51066 1.17333,-2.508 2.464,-2.508 1.628,0 2.47866,1.39334 2.47866,2.552 z"
         style="font-style:normal;font-variant:normal;font-weight:normal;font-stretch:normal;font-size:14.66666698px;font-family:Courier;-inkscape-font-specification:'Courier, Normal';font-variant-ligatures:normal;font-variant-caps:normal;font-variant-numeric:normal;font-feature-settings:normal;text-align:start;writing-mode:lr-tb;text-anchor:start"
         id="path1460" />
      <path
         d="m 189.67019,144.32859 c 0,-0.572 0,-2.25867 -2.49333,-2.25867 -1.15867,0 -2.17067,0.396 -2.80133,0.66 l 0.27866,0.66 c 1.17334,-0.51333 1.98,-0.616 2.508,-0.616 1.77467,0 1.77467,1.08534 1.77467,1.55467 v 0.45467 c -0.89467,-0.176 -1.92133,-0.19067 -2.05333,-0.19067 -2.43467,0 -3.10934,1.42267 -3.10934,2.21467 0,1.012 0.90934,2.068 2.36134,2.068 1.20266,0 2.2,-0.704 2.80133,-1.26134 v 1.056 h 2.03867 v -0.68933 h -1.30534 z m -0.73333,2.30267 c -1.26133,1.408 -2.332,1.54 -2.816,1.54 -0.82133,0 -1.55467,-0.616 -1.55467,-1.34934 0,-0.176 0.044,-1.52533 2.464,-1.52533 0.80667,0 1.56934,0.10267 1.90667,0.16133 z"
         style="font-style:normal;font-variant:normal;font-weight:normal;font-stretch:normal;font-size:14.66666698px;font-family:Courier;-inkscape-font-specification:'Courier, Normal';font-variant-ligatures:normal;font-variant-caps:normal;font-variant-numeric:normal;font-feature-settings:normal;text-align:start;writing-mode:lr-tb;text-anchor:start"
         id="path1462" />
      <path
         d="m 192.05514,142.36326 v 0.68933 h 0.89467 l 2.728,5.22133 -1.12934,1.95067 h -2.25866 v 0.68933 h 4.4 v -0.68933 h -1.30534 l 4.10667,-7.172 h 0.85067 v -0.68933 h -2.684 v 0.68933 h 0.99733 l -2.552,4.45867 -2.31733,-4.45867 h 1.012 v -0.68933 z"
         style="font-style:normal;font-variant:normal;font-weight:normal;font-stretch:normal;font-size:14.66666698px;font-family:Courier;-inkscape-font-specification:'Courier, Normal';font-variant-ligatures:normal;font-variant-caps:normal;font-variant-numeric:normal;font-feature-settings:normal;text-align:start;writing-mode:lr-tb;text-anchor:start"
         id="path1464" />
      <path
         d="m 210.05434,145.47259 c 0,1.74533 1.24667,3.40267 3.63733,3.40267 2.44934,0 3.63734,-1.716 3.63734,-3.40267 0,-1.68667 -1.188,-3.40267 -3.63734,-3.40267 -2.39066,0 -3.63733,1.64267 -3.63733,3.40267 z m 0.792,0 c 0,-1.39333 1.012,-2.66933 2.84533,-2.66933 1.87734,0 2.84534,1.30533 2.84534,2.66933 0,1.34933 -0.968,2.66933 -2.84534,2.66933 -1.848,0 -2.84533,-1.29066 -2.84533,-2.66933 z"
         style="font-style:normal;font-variant:normal;font-weight:normal;font-stretch:normal;font-size:14.66666698px;font-family:Courier;-inkscape-font-specification:'Courier, Normal';font-variant-ligatures:normal;font-variant-caps:normal;font-variant-numeric:normal;font-feature-settings:normal;text-align:start;writing-mode:lr-tb;text-anchor:start"
         id="path1466" />
      <path
         d="m 219.50862,142.53926 v 0.68933 h 1.52533 v 4.752 h -1.52533 v 0.68933 h 5.38267 v -0.68933 h -3.124 v -4.752 h 3.124 v -0.68933 h -3.124 v -0.77734 c 0,-0.792 0,-1.52533 1.37866,-1.52533 0.63067,0 1.408,0.0733 2.05334,0.23467 l 0.308,-0.73334 c -0.63067,-0.11733 -1.37867,-0.23466 -2.17067,-0.23466 -2.112,0 -2.30267,1.012 -2.30267,2.21466 v 0.82134 z"
         style="font-style:normal;font-variant:normal;font-weight:normal;font-stretch:normal;font-size:14.66666698px;font-family:Courier;-inkscape-font-specification:'Courier, Normal';font-variant-ligatures:normal;font-variant-caps:normal;font-variant-numeric:normal;font-feature-settings:normal;text-align:start;writing-mode:lr-tb;text-anchor:start"
         id="path1468" />
      <path
         d="m 239.8105,139.75259 0.044,0.66 2.36133,-0.14667 v 3.3 h -0.0293 c -0.54267,-0.80666 -1.61333,-1.26133 -2.508,-1.26133 -1.584,0 -3.22667,1.276 -3.22667,3.256 0,1.76 1.42267,3.256 3.256,3.256 0.27867,0 1.56934,0 2.47867,-1.232 h 0.0293 v 1.08533 h 1.98 v -0.68933 h -1.24666 v -8.50667 z m 2.376,5.83733 c 0,1.43734 -1.144,2.49334 -2.47867,2.49334 -1.32,0 -2.464,-1.04134 -2.464,-2.53734 0,-1.51066 1.17334,-2.508 2.464,-2.508 1.628,0 2.47867,1.39334 2.47867,2.552 z"
         style="font-style:normal;font-variant:normal;font-weight:normal;font-stretch:normal;font-size:14.66666698px;font-family:Courier;-inkscape-font-specification:'Courier, Normal';font-variant-ligatures:normal;font-variant-caps:normal;font-variant-numeric:normal;font-feature-settings:normal;text-align:start;writing-mode:lr-tb;text-anchor:start"
         id="path1470" />
      <path
         d="m 252.3301,147.18859 c -0.616,0.308 -1.96533,0.98267 -3.19733,0.98267 -2.25867,0 -2.74267,-1.68667 -2.78667,-2.44934 h 5.984 c 0,-0.10266 0.0293,-0.42533 0.0293,-0.66 0,-1.34933 -1.11466,-2.91866 -3.32933,-2.91866 -2.156,0 -3.476,1.56933 -3.476,3.388 0,1.73066 1.17333,3.344 3.564,3.344 1.364,0 2.78667,-0.616 3.54933,-1.04134 z m -5.984,-2.156 c 0.10267,-0.66 0.748,-2.18533 2.684,-2.18533 1.76,0 2.52267,1.232 2.53733,2.18533 z"
         style="font-style:normal;font-variant:normal;font-weight:normal;font-stretch:normal;font-size:14.66666698px;font-family:Courier;-inkscape-font-specification:'Courier, Normal';font-variant-ligatures:normal;font-variant-caps:normal;font-variant-numeric:normal;font-feature-settings:normal;text-align:start;writing-mode:lr-tb;text-anchor:start"
         id="path1472" />
      <path
         d="m 253.57103,142.36326 v 0.68933 h 1.08533 l 2.66934,5.61733 h 0.68933 l 2.65467,-5.61733 h 1.08533 v -0.68933 h -2.97733 v 0.68933 h 1.15866 l -2.22933,4.76667 -2.2,-4.76667 h 1.188 v -0.68933 z"
         style="font-style:normal;font-variant:normal;font-weight:normal;font-stretch:normal;font-size:14.66666698px;font-family:Courier;-inkscape-font-specification:'Courier, Normal';font-variant-ligatures:normal;font-variant-caps:normal;font-variant-numeric:normal;font-feature-settings:normal;text-align:start;writing-mode:lr-tb;text-anchor:start"
         id="path1474" />
      <path
         d="m 269.91865,147.18859 c -0.616,0.308 -1.96534,0.98267 -3.19734,0.98267 -2.25866,0 -2.74266,-1.68667 -2.78666,-2.44934 h 5.984 c 0,-0.10266 0.0293,-0.42533 0.0293,-0.66 0,-1.34933 -1.11467,-2.91866 -3.32933,-2.91866 -2.156,0 -3.476,1.56933 -3.476,3.388 0,1.73066 1.17333,3.344 3.564,3.344 1.364,0 2.78666,-0.616 3.54933,-1.04134 z m -5.984,-2.156 c 0.10266,-0.66 0.748,-2.18533 2.684,-2.18533 1.76,0 2.52266,1.232 2.53733,2.18533 z"
         style="font-style:normal;font-variant:normal;font-weight:normal;font-stretch:normal;font-size:14.66666698px;font-family:Courier;-inkscape-font-specification:'Courier, Normal';font-variant-ligatures:normal;font-variant-caps:normal;font-variant-numeric:normal;font-feature-settings:normal;text-align:start;writing-mode:lr-tb;text-anchor:start"
         id="path1476" />
      <path
         d="m 272.42091,139.91392 0.0733,0.67467 2.39067,-0.176 v 7.568 h -2.552 v 0.68933 h 5.83733 v -0.68933 h -2.552 v -8.272 z"
         style="font-style:normal;font-variant:normal;font-weight:normal;font-stretch:normal;font-size:14.66666698px;font-family:Courier;-inkscape-font-specification:'Courier, Normal';font-variant-ligatures:normal;font-variant-caps:normal;font-variant-numeric:normal;font-feature-settings:normal;text-align:start;writing-mode:lr-tb;text-anchor:start"
         id="path1478" />
      <path
         d="m 280.40851,145.47259 c 0,1.74533 1.24667,3.40267 3.63733,3.40267 2.44934,0 3.63734,-1.716 3.63734,-3.40267 0,-1.68667 -1.188,-3.40267 -3.63734,-3.40267 -2.39066,0 -3.63733,1.64267 -3.63733,3.40267 z m 0.792,0 c 0,-1.39333 1.012,-2.66933 2.84533,-2.66933 1.87734,0 2.84534,1.30533 2.84534,2.66933 0,1.34933 -0.968,2.66933 -2.84534,2.66933 -1.848,0 -2.84533,-1.29066 -2.84533,-2.66933 z"
         style="font-style:normal;font-variant:normal;font-weight:normal;font-stretch:normal;font-size:14.66666698px;font-family:Courier;-inkscape-font-specification:'Courier, Normal';font-variant-ligatures:normal;font-variant-caps:normal;font-variant-numeric:normal;font-feature-settings:normal;text-align:start;writing-mode:lr-tb;text-anchor:start"
         id="path1480" />
      <path
         d="m 288.71879,142.36326 v 0.68933 h 1.20267 v 7.23067 h -1.20267 v 0.68933 h 4.12133 v -0.68933 h -2.18533 v -2.772 h 0.0293 c 1.012,1.26133 2.31734,1.26133 2.552,1.26133 1.584,0 3.24134,-1.34933 3.24134,-3.31467 0,-1.672 -1.276,-3.28533 -3.27067,-3.28533 -1.56933,0 -2.27333,0.89467 -2.52267,1.232 h -0.0293 v -1.04133 z m 1.87733,3.05066 c 0,-1.34933 1.1,-2.508 2.62534,-2.508 1.64266,0 2.464,1.32 2.464,2.53734 0,1.496 -1.15867,2.596 -2.47867,2.596 -1.144,0 -2.61067,-0.89467 -2.61067,-2.62534 z"
         style="font-style:normal;font-variant:normal;font-weight:normal;font-stretch:normal;font-size:14.66666698px;font-family:Courier;-inkscape-font-specification:'Courier, Normal';font-variant-ligatures:normal;font-variant-caps:normal;font-variant-numeric:normal;font-feature-settings:normal;text-align:start;writing-mode:lr-tb;text-anchor:start"
         id="path1482" />
      <path
         d="m 297.23439,142.36326 v 0.68933 h 0.99733 v 4.928 h -0.99733 v 0.68933 h 2.728 v -0.68933 h -0.99733 v -4.224 c 0.24933,-0.308 0.68933,-0.82133 1.408,-0.82133 0.98266,0 0.968,1.04133 0.968,1.68666 v 4.048 h 1.64266 v -0.68933 h -0.90933 v -4.07733 c 0.54267,-0.76267 1.02667,-0.968 1.43733,-0.968 0.95334,0 0.93867,0.924 0.93867,1.74533 v 3.98933 h 1.56933 v -0.68933 h -0.836 v -3.3 c 0,-1.11467 -0.10266,-1.43733 -0.38133,-1.848 -0.24933,-0.38133 -0.80667,-0.63067 -1.30533,-0.63067 -0.68934,0 -1.24667,0.42534 -1.672,0.924 -0.27867,-0.58666 -0.85067,-0.924 -1.46667,-0.924 -0.704,0 -1.21733,0.46934 -1.26133,0.51334 l -0.19067,0.16133 v -0.51333 z"
         style="font-style:normal;font-variant:normal;font-weight:normal;font-stretch:normal;font-size:14.66666698px;font-family:Courier;-inkscape-font-specification:'Courier, Normal';font-variant-ligatures:normal;font-variant-caps:normal;font-variant-numeric:normal;font-feature-settings:normal;text-align:start;writing-mode:lr-tb;text-anchor:start"
         id="path1484" />
      <path
         d="m 313.88999,147.18859 c -0.616,0.308 -1.96533,0.98267 -3.19733,0.98267 -2.25867,0 -2.74267,-1.68667 -2.78667,-2.44934 h 5.984 c 0,-0.10266 0.0293,-0.42533 0.0293,-0.66 0,-1.34933 -1.11466,-2.91866 -3.32933,-2.91866 -2.156,0 -3.476,1.56933 -3.476,3.388 0,1.73066 1.17333,3.344 3.564,3.344 1.364,0 2.78667,-0.616 3.54933,-1.04134 z m -5.984,-2.156 c 0.10267,-0.66 0.748,-2.18533 2.684,-2.18533 1.76,0 2.52267,1.232 2.53733,2.18533 z"
         style="font-style:normal;font-variant:normal;font-weight:normal;font-stretch:normal;font-size:14.66666698px;font-family:Courier;-inkscape-font-specification:'Courier, Normal';font-variant-ligatures:normal;font-variant-caps:normal;font-variant-numeric:normal;font-feature-settings:normal;text-align:start;writing-mode:lr-tb;text-anchor:start"
         id="path1486" />
      <path
         d="m 315.3216,142.36326 v 0.68933 h 1.20267 v 4.928 h -1.20267 v 0.68933 h 3.168 v -0.68933 h -1.232 v -3.93067 c 1.32,-1.04133 2.05334,-1.17333 2.53734,-1.17333 0.86533,0 1.43733,0.67467 1.43733,1.74533 v 3.35867 h -1.26133 v 0.68933 h 3.168 v -0.68933 h -1.17334 v -3.41733 c 0,-1.42267 -0.85066,-2.42 -2.18533,-2.42 -1.07067,0 -1.87733,0.58666 -2.52267,1.04133 v -0.82133 z"
         style="font-style:normal;font-variant:normal;font-weight:normal;font-stretch:normal;font-size:14.66666698px;font-family:Courier;-inkscape-font-specification:'Courier, Normal';font-variant-ligatures:normal;font-variant-caps:normal;font-variant-numeric:normal;font-feature-settings:normal;text-align:start;writing-mode:lr-tb;text-anchor:start"
         id="path1488" />
      <path
         d="m 326.15455,140.41259 v 2.156 h -0.99733 v 0.68933 h 0.99733 v 2.772 c 0,0.968 0,1.672 0.51333,2.18534 0.308,0.308 0.90934,0.66 1.81867,0.66 0.95333,0 2.08267,-0.41067 3.02133,-0.836 l -0.264,-0.66 c -1.716,0.71866 -2.34666,0.76266 -2.83066,0.76266 -1.54,0 -1.52534,-1.02666 -1.52534,-2.112 v -2.772 h 3.54934 v -0.68933 h -3.54934 v -2.156 z"
         style="font-style:normal;font-variant:normal;font-weight:normal;font-stretch:normal;font-size:14.66666698px;font-family:Courier;-inkscape-font-specification:'Courier, Normal';font-variant-ligatures:normal;font-variant-caps:normal;font-variant-numeric:normal;font-feature-settings:normal;text-align:start;writing-mode:lr-tb;text-anchor:start"
         id="path1490" />
      <path
         d="m 343.74308,140.41259 v 2.156 h -0.99733 v 0.68933 h 0.99733 v 2.772 c 0,0.968 0,1.672 0.51334,2.18534 0.308,0.308 0.90933,0.66 1.81866,0.66 0.95334,0 2.08267,-0.41067 3.02134,-0.836 l -0.264,-0.66 c -1.716,0.71866 -2.34667,0.76266 -2.83067,0.76266 -1.54,0 -1.52533,-1.02666 -1.52533,-2.112 v -2.772 h 3.54933 v -0.68933 h -3.54933 v -2.156 z"
         style="font-style:normal;font-variant:normal;font-weight:normal;font-stretch:normal;font-size:14.66666698px;font-family:Courier;-inkscape-font-specification:'Courier, Normal';font-variant-ligatures:normal;font-variant-caps:normal;font-variant-numeric:normal;font-feature-settings:normal;text-align:start;writing-mode:lr-tb;text-anchor:start"
         id="path1492" />
      <path
         d="m 351.9067,142.36326 v 0.68933 h 2.156 v 4.928 h -2.58134 v 0.68933 h 5.852 v -0.68933 h -2.53733 v -5.61733 z m 1.83333,-1.56934 h 1.056 v -1.74533 h -1.056 z"
         style="font-style:normal;font-variant:normal;font-weight:normal;font-stretch:normal;font-size:14.66666698px;font-family:Courier;-inkscape-font-specification:'Courier, Normal';font-variant-ligatures:normal;font-variant-caps:normal;font-variant-numeric:normal;font-feature-settings:normal;text-align:start;writing-mode:lr-tb;text-anchor:start"
         id="path1494" />
      <path
         d="m 358.79428,142.36326 v 0.68933 h 0.99733 v 4.928 h -0.99733 v 0.68933 h 2.728 v -0.68933 h -0.99733 v -4.224 c 0.24933,-0.308 0.68933,-0.82133 1.408,-0.82133 0.98266,0 0.968,1.04133 0.968,1.68666 v 4.048 h 1.64266 v -0.68933 h -0.90933 v -4.07733 c 0.54267,-0.76267 1.02667,-0.968 1.43733,-0.968 0.95334,0 0.93867,0.924 0.93867,1.74533 v 3.98933 h 1.56933 v -0.68933 h -0.836 v -3.3 c 0,-1.11467 -0.10266,-1.43733 -0.38133,-1.848 -0.24933,-0.38133 -0.80667,-0.63067 -1.30533,-0.63067 -0.68934,0 -1.24667,0.42534 -1.672,0.924 -0.27867,-0.58666 -0.85067,-0.924 -1.46667,-0.924 -0.704,0 -1.21733,0.46934 -1.26133,0.51334 l -0.19067,0.16133 v -0.51333 z"
         style="font-style:normal;font-variant:normal;font-weight:normal;font-stretch:normal;font-size:14.66666698px;font-family:Courier;-inkscape-font-specification:'Courier, Normal';font-variant-ligatures:normal;font-variant-caps:normal;font-variant-numeric:normal;font-feature-settings:normal;text-align:start;writing-mode:lr-tb;text-anchor:start"
         id="path1496" />
      <path
         d="m 375.4499,147.18859 c -0.616,0.308 -1.96534,0.98267 -3.19734,0.98267 -2.25866,0 -2.74266,-1.68667 -2.78666,-2.44934 h 5.984 c 0,-0.10266 0.0293,-0.42533 0.0293,-0.66 0,-1.34933 -1.11467,-2.91866 -3.32933,-2.91866 -2.156,0 -3.476,1.56933 -3.476,3.388 0,1.73066 1.17333,3.344 3.564,3.344 1.364,0 2.78666,-0.616 3.54933,-1.04134 z m -5.984,-2.156 c 0.10266,-0.66 0.748,-2.18533 2.684,-2.18533 1.76,0 2.52266,1.232 2.53733,2.18533 z"
         style="font-style:normal;font-variant:normal;font-weight:normal;font-stretch:normal;font-size:14.66666698px;font-family:Courier;-inkscape-font-specification:'Courier, Normal';font-variant-ligatures:normal;font-variant-caps:normal;font-variant-numeric:normal;font-feature-settings:normal;text-align:start;writing-mode:lr-tb;text-anchor:start"
         id="path1498" />
    </g>
    <rect
       style="fill:#d4ff2a;fill-opacity:1;stroke:#000000;stroke-width:0.1;stroke-linejoin:miter;stroke-miterlimit:4;stroke-dasharray:none;stroke-opacity:1"
       id="rect815-8-8-4-3"
       width="3.6636524"
       height="3.6636524"
       x="149.06325"
       y="91.687332" />
    <g
       aria-label="Must"
       transform="matrix(0.09375561,0,0,0.09375561,137.98246,68.505094)"
       style="font-style:normal;font-variant:normal;font-weight:normal;font-stretch:normal;font-size:40.00166321px;line-height:1.25;font-family:Courier;-inkscape-font-specification:'Courier, Normal';font-variant-ligatures:normal;font-variant-caps:normal;font-variant-numeric:normal;font-feature-settings:normal;text-align:start;letter-spacing:0px;word-spacing:0px;writing-mode:lr-tb;text-anchor:start;fill:#000000;fill-opacity:1;stroke:none"
       id="flowRoot1082">
      <path
         d="m 168.00556,257.98382 v 1.88008 h 2.84012 l -0.68003,18.76078 h -2.4401 v 1.88008 h 8.48035 v -1.88008 h -4.28018 l 0.60003,-18.76078 h 0.72003 l 5.20021,14.88062 h 2.08009 l 5.60023,-14.88062 h 0.72003 l 0.60003,18.76078 h -4.28018 v 1.88008 h 8.48035 v -1.88008 h -2.4401 l -0.68003,-18.76078 h 2.84012 v -1.88008 h -6.44027 l -4.9602,13.56057 h -0.72003 l -4.56019,-13.56057 z"
         style=""
         id="path1501" />
      <path
         d="m 192.95097,263.30404 v 1.88008 h 3.28014 v 8.72036 c 0,3.16013 1.12005,7.1603 6.16026,7.1603 3.08012,0 5.16021,-1.76007 6.28026,-2.76011 v 2.20009 h 5.24021 v -1.88008 h -3.24013 v -15.32064 h -5.44023 v 1.88008 h 3.44015 v 10.40043 c -2.16009,2.4001 -4.24018,3.48015 -6.44027,3.48015 -4.00017,0 -4.00017,-4.12017 -4.00017,-5.16022 v -10.60044 z"
         style=""
         id="path1503" />
      <path
         d="m 233.13702,262.50401 c -0.08,0.28001 -0.12001,0.32001 -0.24001,0.84003 -0.08,0.24001 -0.28001,0.96004 -0.72003,0.96004 -0.32001,0 -0.80003,-0.28001 -0.88004,-0.36001 -0.72003,-0.44002 -2.28009,-1.16005 -4.60019,-1.16005 -4.20017,0 -7.08029,2.16009 -7.08029,5.04021 0,4.8402 6.20025,5.08021 8.32034,5.16022 3.32014,0.12 5.72024,0.24001 5.72024,2.64011 0,3.08012 -4.32018,3.48014 -5.92025,3.48014 -5.56023,0 -6.20025,-3.40014 -6.44026,-4.7602 l -1.76008,0.20001 c 0.08,0.92004 0.24001,2.24009 0.24001,3.96016 0,1.32006 -0.12,1.84008 -0.24001,2.52011 h 1.76008 c 0.24001,-0.92004 0.44001,-1.68007 0.80003,-1.68007 0.08,0 0.20001,0.08 0.20001,0.08 0.92004,0.52002 3.00012,1.68007 5.88024,1.68007 3.48015,0 7.64032,-1.68007 7.64032,-5.56023 0,-4.20017 -4.8802,-4.44018 -5.80024,-4.48018 -4.6802,-0.24001 -8.24034,-0.40002 -8.24034,-3.32014 0,-1.64007 1.80007,-2.96013 4.9602,-2.96013 5.52023,0 6.00025,2.60011 6.28026,4.16018 l 1.76008,-0.20001 c -0.08,-0.68003 -0.20001,-1.40006 -0.20001,-2.52011 0,-1.56006 0.20001,-2.6001 0.36001,-3.44014 z"
         style=""
         id="path1505" />
      <path
         d="m 246.56195,257.98382 v 5.88025 h -2.72011 v 1.88007 h 2.72011 v 7.56032 c 0,2.64011 0,4.56019 1.40006,5.96025 0.84003,0.84003 2.4801,1.80007 4.9602,1.80007 2.60011,0 5.68024,-1.12005 8.24035,-2.28009 l -0.72003,-1.80008 c -4.6802,1.96008 -6.40027,2.08009 -7.72032,2.08009 -4.20018,0 -4.16018,-2.80012 -4.16018,-5.76024 v -7.56032 h 9.68041 v -1.88007 h -9.68041 v -5.88025 z"
         style=""
         id="path1507" />
    </g>
    <g
       id="g1182"
       transform="translate(113.37606,-19.465765)">
      <rect
         y="111.15311"
         x="72.447884"
         height="3.6636524"
         width="3.6636524"
         id="rect815-8-8-4-3-4"
         style="fill:#ff6600;fill-opacity:1;stroke:#000000;stroke-width:0.1;stroke-linejoin:miter;stroke-miterlimit:4;stroke-dasharray:none;stroke-opacity:1" />
      <g
         aria-label="Should"
         transform="matrix(0.09375561,0,0,0.09375561,61.367094,88.028541)"
         style="font-style:normal;font-variant:normal;font-weight:normal;font-stretch:normal;font-size:40.00166321px;line-height:1.25;font-family:Courier;-inkscape-font-specification:'Courier, Normal';font-variant-ligatures:normal;font-variant-caps:normal;font-variant-numeric:normal;font-feature-settings:normal;text-align:start;letter-spacing:0px;word-spacing:0px;writing-mode:lr-tb;text-anchor:start;fill:#000000;fill-opacity:1;stroke:none"
         id="flowRoot1082-7">
        <path
           d="m 186.16632,257.5438 c 0,0.08 -0.04,0.36002 -0.08,0.52002 -0.24001,1.28006 -0.24001,1.44006 -0.60002,1.44006 -0.16001,0 -0.28001,-0.08 -0.92004,-0.56002 -0.56002,-0.44002 -2.08009,-1.64007 -4.96021,-1.64007 -4.56019,0 -7.96033,3.24014 -7.96033,6.88029 0,5.32022 5.72024,5.92025 8.84037,6.24026 2.08009,0.20001 5.56023,0.64003 5.56023,4.12017 0,2.00008 -1.44006,4.64019 -6.32026,4.64019 -2.92012,0 -4.16018,-1.12004 -4.92021,-2.12009 -0.88003,-1.16004 -1.16005,-2.5601 -1.36005,-3.56014 h -1.80008 c 0.12001,1.12004 0.36002,3.40014 0.36002,4.24017 0,0.16001 0,1.84008 -0.36002,3.56015 h 1.80008 c 0.2,-1.32005 0.24001,-1.44006 0.36001,-1.80007 0.08,-0.12001 0.24001,-0.32002 0.40002,-0.32002 0.12,0 0.28001,0.12001 0.32001,0.16001 0.72003,0.60002 2.2801,1.84008 5.48023,1.84008 3.92016,0 8.20034,-2.16009 8.20034,-6.80029 0,-2.28009 -1.12005,-3.72015 -2.4801,-4.64019 -1.40006,-0.92004 -2.84012,-1.12005 -5.84025,-1.44006 -1.96008,-0.20001 -6.08025,-0.64003 -6.08025,-4.28018 0,-2.00008 1.84008,-4.72019 6.04025,-4.72019 3.16013,0 4.48019,1.52006 5.08021,2.4401 0.88004,1.36005 1.12005,2.92012 1.24006,3.76015 l 1.80007,-0.32001 c -0.28001,-2.28009 -0.36001,-3.88016 -0.36001,-4.7602 0,-1.00004 0.08,-1.68007 0.36001,-2.88012 z"
           style=""
           id="path1510" />
        <path
           d="m 192.67096,255.82373 0.16001,1.88008 3.72015,-0.32001 v 21.24088 h -3.36014 v 1.88008 h 8.52036 v -1.88008 h -3.16013 v -10.72045 c 1.92008,-1.56006 4.40018,-3.20013 6.92028,-3.20013 2.3601,0 3.84016,1.88008 3.84016,4.7602 v 9.16038 h -3.40014 v 1.88008 h 8.76037 v -1.88008 h -3.36014 v -9.32039 c 0,-3.88016 -2.2801,-6.60027 -5.92025,-6.60027 -2.88012,0 -5.08021,1.56006 -6.84028,2.84012 v -10.20043 z"
           style=""
           id="path1512" />
        <path
           d="m 217.73638,271.7844 c 0,4.76019 3.40014,9.28038 9.92041,9.28038 6.68028,0 9.92041,-4.68019 9.92041,-9.28038 0,-4.6002 -3.24013,-9.28039 -9.92041,-9.28039 -6.52027,0 -9.92041,4.48019 -9.92041,9.28039 z m 2.16009,0 c 0,-3.80016 2.76011,-7.28031 7.76032,-7.28031 5.12021,0 7.76032,3.56015 7.76032,7.28031 0,3.68015 -2.64011,7.2803 -7.76032,7.2803 -5.04021,0 -7.76032,-3.52015 -7.76032,-7.2803 z"
           style=""
           id="path1514" />
        <path
           d="m 240.92172,263.30404 v 1.88008 h 3.28013 v 8.72036 c 0,3.16013 1.12005,7.1603 6.16026,7.1603 3.08013,0 5.16021,-1.76007 6.28026,-2.76011 v 2.20009 h 5.24022 v -1.88008 h -3.24014 v -15.32064 h -5.44022 v 1.88008 h 3.44014 v 10.40043 c -2.16009,2.4001 -4.24018,3.48015 -6.44027,3.48015 -4.00016,0 -4.00016,-4.12017 -4.00016,-5.16022 v -10.60044 z"
           style=""
           id="path1516" />
        <path
           d="m 267.90722,256.62377 0.2,1.84007 6.52027,-0.48002 v 20.64086 h -6.96028 v 1.88008 h 15.92066 v -1.88008 h -6.96029 v -22.56094 z"
           style=""
           id="path1518" />
        <path
           d="m 298.89288,256.18375 0.12001,1.80007 6.44026,-0.40002 v 9.00038 h -0.08 c -1.48006,-2.20009 -4.40018,-3.44014 -6.84028,-3.44014 -4.32018,0 -8.80037,3.48014 -8.80037,8.88037 0,4.80019 3.88016,8.88036 8.88037,8.88036 0.76003,0 4.28018,0 6.76028,-3.36014 h 0.08 v 2.96013 h 5.40023 v -1.88008 h -3.40014 v -23.20096 z m 6.48027,15.92066 c 0,3.92016 -3.12013,6.80028 -6.76028,6.80028 -3.60015,0 -6.72028,-2.84012 -6.72028,-6.92029 0,-4.12017 3.20013,-6.84028 6.72028,-6.84028 4.44018,0 6.76028,3.80016 6.76028,6.96029 z"
           style=""
           id="path1520" />
      </g>
    </g>
    <g
       aria-label="Projected"
       transform="matrix(0.08634902,0,0,0.08634902,16.674931,54.272253)"
       style="font-style:normal;font-variant:normal;font-weight:normal;font-stretch:normal;font-size:40.00018311px;line-height:1.25;font-family:Courier;-inkscape-font-specification:'Courier, Normal';font-variant-ligatures:normal;font-variant-caps:normal;font-variant-numeric:normal;font-feature-settings:normal;text-align:end;letter-spacing:0px;word-spacing:0px;writing-mode:lr-tb;text-anchor:end;fill:#000000;fill-opacity:1;stroke:none"
       id="flowRoot1184">
      <path
         d="m 336.86246,315.51071 v 1.88001 h 3.24002 v 18.76009 h -3.24002 v 1.88 h 11.12005 v -1.88 h -5.88002 v -6.96004 h 2.24001 c 4.80002,0 6.16002,-0.08 8.12003,-1.2 1.72001,-0.96001 2.92002,-3.28002 2.92002,-5.48003 0,-2.44001 -1.40001,-4.84002 -3.44002,-5.96002 -1.44001,-0.80001 -3.08001,-1.04001 -5.92003,-1.04001 z m 9.16004,1.88001 c 2.84002,0 3.84002,0.28 4.80003,0.8 1.08,0.56001 2.40001,2.00001 2.40001,4.24002 0,1.92001 -0.96001,3.24002 -1.68001,3.80002 -1.40001,1.12001 -3.92002,1.08001 -7.16003,1.08001 h -2.28001 v -9.92005 z"
         style=""
         id="path1423" />
      <path
         d="m 361.32695,320.83074 v 1.88 h 4.64002 v 13.44007 h -4.96002 v 1.88 h 14.56007 v -1.88 h -7.60004 v -8.76004 c 1.36001,-1.52001 4.52002,-5.12003 7.96004,-5.12003 1.6,0 2.12001,0.88001 2.52001,1.48001 0,0.08 0.12,0.24 0.16,0.28 l 2.12001,-1.56001 c -0.88001,-1.04 -1.96001,-2.20001 -4.48002,-2.20001 -3.80002,0 -6.48003,2.76002 -8.28004,4.56002 v -4.00001 z"
         style=""
         id="path1425" />
      <path
         d="m 384.07143,329.31077 c 0,4.76003 3.40002,9.28005 9.92005,9.28005 6.68003,0 9.92004,-4.68002 9.92004,-9.28005 0,-4.60002 -3.24001,-9.28004 -9.92004,-9.28004 -6.52003,0 -9.92005,4.48002 -9.92005,9.28004 z m 2.16001,0 c 0,-3.80001 2.76001,-7.28003 7.76004,-7.28003 5.12002,0 7.76003,3.56002 7.76003,7.28003 0,3.68002 -2.64001,7.28004 -7.76003,7.28004 -5.04003,0 -7.76004,-3.52002 -7.76004,-7.28004 z"
         style=""
         id="path1427" />
      <path
         d="m 409.37593,320.83074 v 1.88 h 10.20004 v 13.44007 c 0,2.24001 0,5.92002 -5.36002,5.92002 -2.04001,0 -4.04002,-0.36 -5.08003,-0.6 l -0.44,1.92001 c 1.52001,0.32 3.28002,0.68 5.40003,0.68 7.48003,0 7.48003,-5.52002 7.48003,-7.64003 v -15.60007 z m 8.52003,-4.28002 h 2.88002 v -4.76003 h -2.88002 z"
         style=""
         id="path1429" />
      <path
         d="m 451.40049,333.9908 c -1.68001,0.84 -5.36002,2.68001 -8.72004,2.68001 -6.16003,0 -7.48003,-4.60002 -7.60003,-6.68003 h 16.32007 c 0,-0.28 0.08,-1.16001 0.08,-1.80001 0,-3.68002 -3.04001,-7.96004 -9.08004,-7.96004 -5.88003,0 -9.48004,4.28002 -9.48004,9.24004 0,4.72003 3.20001,9.12005 9.72004,9.12005 3.72002,0 7.60003,-1.68001 9.68004,-2.84002 z m -16.32007,-5.88003 c 0.28,-1.80001 2.04,-5.96003 7.32003,-5.96003 4.80002,0 6.88003,3.36002 6.92003,5.96003 z"
         style=""
         id="path1431" />
      <path
         d="m 473.02496,320.31073 c -0.12,0.52001 -0.2,0.96001 -0.24,1.28001 -0.04,0.24 -0.2,0.88 -0.4,0.88 -0.04,0 -0.12,-0.08 -0.16,-0.12 -2.32001,-1.92001 -4.36002,-2.12001 -5.88003,-2.12001 -6.52003,0 -9.56004,4.88003 -9.56004,9.16004 0,5.08003 3.80001,9.20005 9.40004,9.20005 4.44002,0 8.00004,-2.60002 9.72004,-3.88002 l -1.04,-1.52001 c -2.92001,2.04001 -5.68003,3.40002 -8.48004,3.40002 -5.24002,0 -7.44003,-3.92002 -7.44003,-7.24004 0,-3.44001 2.44001,-7.12003 7.60003,-7.12003 5.16002,0 5.80003,3.04002 6.08003,4.20002 l 0.16,0.68 1.84001,-0.28 c -0.08,-1.04 -0.12,-1.88001 -0.12,-2.64001 0,-1.40001 0.24,-2.88001 0.36,-3.68002 z"
         style=""
         id="path1433" />
      <path
         d="m 484.8494,315.51071 v 5.88003 h -2.72001 v 1.88001 h 2.72001 v 7.56003 c 0,2.64001 0,4.56002 1.40001,5.96003 0.84,0.84 2.48001,1.80001 4.96002,1.80001 2.60001,0 5.68003,-1.12001 8.24004,-2.28001 l -0.72,-1.80001 c -4.68003,1.96001 -6.40003,2.08001 -7.72004,2.08001 -4.20002,0 -4.16002,-2.80002 -4.16002,-5.76003 v -7.56003 h 9.68005 v -1.88001 h -9.68005 v -5.88003 z"
         style=""
         id="path1435" />
      <path
         d="m 523.35395,333.9908 c -1.68001,0.84 -5.36002,2.68001 -8.72004,2.68001 -6.16003,0 -7.48003,-4.60002 -7.60003,-6.68003 h 16.32007 c 0,-0.28 0.08,-1.16001 0.08,-1.80001 0,-3.68002 -3.04001,-7.96004 -9.08004,-7.96004 -5.88003,0 -9.48004,4.28002 -9.48004,9.24004 0,4.72003 3.20001,9.12005 9.72004,9.12005 3.72002,0 7.60004,-1.68001 9.68004,-2.84002 z m -16.32007,-5.88003 c 0.28,-1.80001 2.04001,-5.96003 7.32003,-5.96003 4.80002,0 6.88003,3.36002 6.92003,5.96003 z"
         style=""
         id="path1437" />
      <path
         d="m 537.17839,313.7107 0.12,1.80001 6.44003,-0.4 v 9.00004 h -0.08 c -1.48001,-2.20001 -4.40002,-3.44002 -6.84004,-3.44002 -4.32002,0 -8.80004,3.48002 -8.80004,8.88005 0,4.80002 3.88002,8.88004 8.88004,8.88004 0.76001,0 4.28002,0 6.76004,-3.36002 h 0.08 v 2.96001 h 5.40002 v -1.88 h -3.40001 V 312.9507 Z m 6.48003,15.92008 c 0,3.92001 -3.12002,6.80003 -6.76004,6.80003 -3.60001,0 -6.72003,-2.84002 -6.72003,-6.92003 0,-4.12002 3.20002,-6.84004 6.72003,-6.84004 4.44003,0 6.76004,3.80002 6.76004,6.96004 z"
         style=""
         id="path1439" />
    </g>
    <g
       aria-label="Actual"
       transform="matrix(0.08634902,0,0,0.08634902,16.683364,59.607024)"
       style="font-style:normal;font-variant:normal;font-weight:normal;font-stretch:normal;font-size:40.00018311px;line-height:1.25;font-family:Courier;-inkscape-font-specification:'Courier, Normal';font-variant-ligatures:normal;font-variant-caps:normal;font-variant-numeric:normal;font-feature-settings:normal;text-align:end;letter-spacing:0px;word-spacing:0px;writing-mode:lr-tb;text-anchor:end;fill:#000000;fill-opacity:1;stroke:none"
       id="flowRoot1184-1">
      <path
         d="m 410.49592,315.51071 v 1.88001 h 5.72003 l -7.72003,18.76009 h -2.12001 v 1.88 h 8.20003 v -1.88 h -4.08002 l 2.24001,-5.56003 h 10.44005 l 2.28001,5.56003 h -4.08002 v 1.88 h 8.20004 v -1.88 H 427.536 l -8.44004,-20.6401 z m 12.00006,13.32006 h -9.04004 l 4.52002,-10.96005 z"
         style=""
         id="path1410" />
      <path
         d="m 449.04048,320.31073 c -0.12,0.52001 -0.2,0.96001 -0.24,1.28001 -0.04,0.24 -0.20001,0.88 -0.40001,0.88 -0.04,0 -0.12,-0.08 -0.16,-0.12 -2.32001,-1.92001 -4.36002,-2.12001 -5.88002,-2.12001 -6.52003,0 -9.56005,4.88003 -9.56005,9.16004 0,5.08003 3.80002,9.20005 9.40005,9.20005 4.44002,0 8.00003,-2.60002 9.72004,-3.88002 l -1.04,-1.52001 c -2.92002,2.04001 -5.68003,3.40002 -8.48004,3.40002 -5.24003,0 -7.44004,-3.92002 -7.44004,-7.24004 0,-3.44001 2.44001,-7.12003 7.60004,-7.12003 5.16002,0 5.80002,3.04002 6.08002,4.20002 l 0.16001,0.68 1.84,-0.28 c -0.08,-1.04 -0.12,-1.88001 -0.12,-2.64001 0,-1.40001 0.24,-2.88001 0.36001,-3.68002 z"
         style=""
         id="path1412" />
      <path
         d="m 460.86491,315.51071 v 5.88003 h -2.72002 v 1.88001 h 2.72002 v 7.56003 c 0,2.64001 0,4.56002 1.4,5.96003 0.84001,0.84 2.48001,1.80001 4.96003,1.80001 2.60001,0 5.68002,-1.12001 8.24003,-2.28001 l -0.72,-1.80001 c -4.68002,1.96001 -6.40003,2.08001 -7.72004,2.08001 -4.20001,0 -4.16001,-2.80002 -4.16001,-5.76003 v -7.56003 h 9.68004 v -1.88001 h -9.68004 v -5.88003 z"
         style=""
         id="path1414" />
      <path
         d="m 479.20937,320.83074 v 1.88 h 3.28002 v 8.72004 c 0,3.16002 1.12,7.16004 6.16002,7.16004 3.08002,0 5.16003,-1.76001 6.28003,-2.76002 v 2.20001 h 5.24003 v -1.88 h -3.24002 v -15.32007 h -5.44002 v 1.88 h 3.44001 v 10.40005 c -2.16001,2.40001 -4.24002,3.48002 -6.44003,3.48002 -4.00002,0 -4.00002,-4.12002 -4.00002,-5.16003 v -10.60004 z"
         style=""
         id="path1416" />
      <path
         d="m 520.35393,326.19076 c 0,-1.56001 0,-6.16003 -6.80003,-6.16003 -3.16001,0 -5.92003,1.08001 -7.64004,1.80001 l 0.76001,1.80001 c 3.20001,-1.40001 5.40002,-1.68001 6.84003,-1.68001 4.84002,0 4.84002,2.96001 4.84002,4.24002 v 1.24001 c -2.44001,-0.48001 -5.24002,-0.52001 -5.60002,-0.52001 -6.64003,0 -8.48004,3.88002 -8.48004,6.04003 0,2.76001 2.48001,5.64003 6.44003,5.64003 3.28001,0 6.00002,-1.92001 7.64003,-3.44002 v 2.88001 h 5.56003 v -1.88 h -3.56002 z m -2.00001,6.28003 c -3.44001,3.84002 -6.36003,4.20002 -7.68003,4.20002 -2.24001,0 -4.24002,-1.68001 -4.24002,-3.68002 0,-0.48 0.12,-4.16002 6.72003,-4.16002 2.20001,0 4.28002,0.28 5.20002,0.44 z"
         style=""
         id="path1418" />
      <path
         d="m 530.17835,314.1507 0.2,1.84001 6.52003,-0.48 v 20.6401 h -6.96003 v 1.88 h 15.92007 v -1.88 h -6.96003 V 313.5907 Z"
         style=""
         id="path1420" />
    </g>
    <g
       aria-label="w/c 09/3/20"
       transform="matrix(0.08892264,0,0,0.08892264,55.773706,86.72107)"
       style="font-style:normal;font-weight:normal;font-size:40px;line-height:1.25;font-family:sans-serif;letter-spacing:0px;word-spacing:0px;fill:#ffffff;fill-opacity:1;stroke:none"
       id="flowRoot1107">
      <path
         d="m 122.93742,-121.3875 v 1.88 h 1.72 l 4.52,15.32 h 1.96 l 3.72,-10.32 3.8,10.32 h 2.08 l 4.48,-15.32 h 1.56 v -1.88 h -6.8 v 1.88 h 3.36 l -3.6,12.28 h -0.08 l -3.96,-11.04 h -1.4 l -3.92,10.88 h -0.08 l -3.52,-12.12 h 3.32 v -1.88 z"
         style="font-style:normal;font-variant:normal;font-weight:normal;font-stretch:normal;font-size:40px;font-family:Courier;-inkscape-font-specification:'Courier, Normal';font-variant-ligatures:normal;font-variant-caps:normal;font-variant-numeric:normal;font-feature-settings:normal;text-align:start;writing-mode:lr-tb;text-anchor:start;fill:#ffffff"
         id="path1389" />
      <path
         d="m 165.4818,-132.2675 -15,32.6 1.72,0.8 15,-32.68 z"
         style="font-style:normal;font-variant:normal;font-weight:normal;font-stretch:normal;font-size:40px;font-family:Courier;-inkscape-font-specification:'Courier, Normal';font-variant-ligatures:normal;font-variant-caps:normal;font-variant-numeric:normal;font-feature-settings:normal;text-align:start;writing-mode:lr-tb;text-anchor:start;fill:#ffffff"
         id="path1391" />
      <path
         d="m 189.90617,-121.9075 c -0.12,0.52 -0.2,0.96 -0.24,1.28 -0.04,0.24 -0.2,0.88 -0.4,0.88 -0.04,0 -0.12,-0.08 -0.16,-0.12 -2.32,-1.92 -4.36,-2.12 -5.88,-2.12 -6.52,0 -9.56,4.88 -9.56,9.16 0,5.08 3.8,9.2 9.4,9.2 4.44,0 8,-2.6 9.72,-3.88 l -1.04,-1.52 c -2.92,2.04 -5.68,3.4 -8.48,3.4 -5.24,0 -7.44,-3.92 -7.44,-7.24 0,-3.44 2.44,-7.12 7.6,-7.12 5.16,0 5.8,3.04 6.08,4.2 l 0.16,0.68 1.84,-0.28 c -0.08,-1.04 -0.12,-1.88 -0.12,-2.64 0,-1.4 0.24,-2.88 0.36,-3.68 z"
         style="font-style:normal;font-variant:normal;font-weight:normal;font-stretch:normal;font-size:40px;font-family:Courier;-inkscape-font-specification:'Courier, Normal';font-variant-ligatures:normal;font-variant-caps:normal;font-variant-numeric:normal;font-feature-settings:normal;text-align:start;writing-mode:lr-tb;text-anchor:start;fill:#ffffff"
         id="path1393" />
      <path
         d="m 230.79492,-129.0275 c -6.52,0 -7.6,7.52 -7.6,12.72 0,5.16 1.08,12.68 7.6,12.68 6.52,0 7.6,-7.44 7.6,-12.68 0,-5.2 -1.08,-12.72 -7.6,-12.72 z m 0,1.8 c 4.76,0 5.48,6.64 5.48,10.88 0,4.2 -0.72,10.92 -5.52,10.92 -4.72,0 -5.44,-6.68 -5.44,-10.92 0,-4.16 0.68,-10.88 5.48,-10.88 z"
         style="font-style:normal;font-variant:normal;font-weight:normal;font-stretch:normal;font-size:40px;font-family:Courier;-inkscape-font-specification:'Courier, Normal';font-variant-ligatures:normal;font-variant-caps:normal;font-variant-numeric:normal;font-feature-settings:normal;text-align:start;writing-mode:lr-tb;text-anchor:start;fill:#ffffff"
         id="path1395" />
      <path
         d="m 246.0193,-103.6275 c 4.68,0.24 6.64,-0.36 7.8,-0.76 7.04,-2.56 7.56,-11.16 7.56,-13.68 0,-8.48 -4.8,-10.96 -8.04,-10.96 -4.12,0 -7.08,3.56 -7.08,7.6 0,4.04 2.8,7.76 7,7.76 3.36,0 5.2,-2.2 5.8,-3 l 0.08,0.08 c -1.2,11.04 -7.12,11.24 -13.12,10.96 z m 13.12,-16.36 c -1.68,4.16 -5.08,4.32 -5.88,4.32 -2.88,0 -4.84,-2.72 -4.84,-5.76 0,-3.56 2.36,-5.6 4.92,-5.6 2.04,0 5.48,1.52 5.8,7.04 z"
         style="font-style:normal;font-variant:normal;font-weight:normal;font-stretch:normal;font-size:40px;font-family:Courier;-inkscape-font-specification:'Courier, Normal';font-variant-ligatures:normal;font-variant-caps:normal;font-variant-numeric:normal;font-feature-settings:normal;text-align:start;writing-mode:lr-tb;text-anchor:start;fill:#ffffff"
         id="path1397" />
      <path
         d="m 285.40367,-132.2675 -15,32.6 1.72,0.8 15,-32.68 z"
         style="font-style:normal;font-variant:normal;font-weight:normal;font-stretch:normal;font-size:40px;font-family:Courier;-inkscape-font-specification:'Courier, Normal';font-variant-ligatures:normal;font-variant-caps:normal;font-variant-numeric:normal;font-feature-settings:normal;text-align:start;writing-mode:lr-tb;text-anchor:start;fill:#ffffff"
         id="path1399" />
      <path
         d="m 294.10805,-105.5875 c 3.28,1.32 4.84,1.96 7.28,1.96 4.48,0 8.04,-2.88 8.04,-7.4 0,-3.72 -2.64,-5.68 -4.32,-6.36 0.72,-0.44 3.08,-1.88 3.08,-5.44 0,-3.92 -3.4,-6.2 -6.8,-6.2 -2.56,0 -4.6,1.2 -6.8,2.64 l 1,1.56 0.72,-0.44 c 1.24,-0.76 2.96,-1.88 5.04,-1.88 2.68,0 4.76,1.72 4.76,4.36 0,1.56 -0.76,3.04 -2.08,3.92 -1.2,0.8 -2.68,0.84 -3.84,0.84 v 1.88 c 1.28,-0.08 2.48,-0.12 3.88,0.36 0.32,0.08 3.32,1.08 3.32,4.84 0,3.56 -2.96,5.44 -5.88,5.44 -2.24,0 -4.64,-0.88 -6.64,-1.84 z"
         style="font-style:normal;font-variant:normal;font-weight:normal;font-stretch:normal;font-size:40px;font-family:Courier;-inkscape-font-specification:'Courier, Normal';font-variant-ligatures:normal;font-variant-caps:normal;font-variant-numeric:normal;font-feature-settings:normal;text-align:start;writing-mode:lr-tb;text-anchor:start;fill:#ffffff"
         id="path1401" />
      <path
         d="m 333.37242,-132.2675 -15,32.6 1.72,0.8 15,-32.68 z"
         style="font-style:normal;font-variant:normal;font-weight:normal;font-stretch:normal;font-size:40px;font-family:Courier;-inkscape-font-specification:'Courier, Normal';font-variant-ligatures:normal;font-variant-caps:normal;font-variant-numeric:normal;font-feature-settings:normal;text-align:start;writing-mode:lr-tb;text-anchor:start;fill:#ffffff"
         id="path1403" />
      <path
         d="m 355.7168,-110.0275 v 3.96 h -11.04 v -0.08 c 5.36,-4.28 10.32,-9 11.6,-11.04 0.96,-1.52 1.36,-2.72 1.36,-4.44 0,-4.52 -3.84,-7.4 -7.6,-7.4 -0.64,0 -4.28,0 -7.24,3.56 v 2.6 h 2.08 c -0.24,-3.28 3.56,-4.16 5.08,-4.16 2.04,0 5.52,1.52 5.52,5.32 0,1.84 -0.44,3.28 -2.36,5.2 -3.24,3.28 -9.4,8.72 -11.12,10.2 v 2.12 h 15.6 v -5.84 z"
         style="font-style:normal;font-variant:normal;font-weight:normal;font-stretch:normal;font-size:40px;font-family:Courier;-inkscape-font-specification:'Courier, Normal';font-variant-ligatures:normal;font-variant-caps:normal;font-variant-numeric:normal;font-feature-settings:normal;text-align:start;writing-mode:lr-tb;text-anchor:start;fill:#ffffff"
         id="path1405" />
      <path
         d="m 374.70117,-129.0275 c -6.52,0 -7.6,7.52 -7.6,12.72 0,5.16 1.08,12.68 7.6,12.68 6.52,0 7.6,-7.44 7.6,-12.68 0,-5.2 -1.08,-12.72 -7.6,-12.72 z m 0,1.8 c 4.76,0 5.48,6.64 5.48,10.88 0,4.2 -0.72,10.92 -5.52,10.92 -4.72,0 -5.44,-6.68 -5.44,-10.92 0,-4.16 0.68,-10.88 5.48,-10.88 z"
         style="font-style:normal;font-variant:normal;font-weight:normal;font-stretch:normal;font-size:40px;font-family:Courier;-inkscape-font-specification:'Courier, Normal';font-variant-ligatures:normal;font-variant-caps:normal;font-variant-numeric:normal;font-feature-settings:normal;text-align:start;writing-mode:lr-tb;text-anchor:start;fill:#ffffff"
         id="path1407" />
    </g>
    <g
       aria-label="w/c 16/3/20"
       transform="matrix(0.08892264,0,0,0.08892264,80.801841,86.72107)"
       style="font-style:normal;font-weight:normal;font-size:40px;line-height:1.25;font-family:sans-serif;letter-spacing:0px;word-spacing:0px;fill:#ffffff;fill-opacity:1;stroke:none"
       id="flowRoot1107-4">
      <path
         d="m 122.93742,-121.3875 v 1.88 h 1.72 l 4.52,15.32 h 1.96 l 3.72,-10.32 3.8,10.32 h 2.08 l 4.48,-15.32 h 1.56 v -1.88 h -6.8 v 1.88 h 3.36 l -3.6,12.28 h -0.08 l -3.96,-11.04 h -1.4 l -3.92,10.88 h -0.08 l -3.52,-12.12 h 3.32 v -1.88 z"
         style="font-style:normal;font-variant:normal;font-weight:normal;font-stretch:normal;font-size:40px;font-family:Courier;-inkscape-font-specification:'Courier, Normal';font-variant-ligatures:normal;font-variant-caps:normal;font-variant-numeric:normal;font-feature-settings:normal;text-align:start;writing-mode:lr-tb;text-anchor:start;fill:#ffffff"
         id="path1368" />
      <path
         d="m 165.4818,-132.2675 -15,32.6 1.72,0.8 15,-32.68 z"
         style="font-style:normal;font-variant:normal;font-weight:normal;font-stretch:normal;font-size:40px;font-family:Courier;-inkscape-font-specification:'Courier, Normal';font-variant-ligatures:normal;font-variant-caps:normal;font-variant-numeric:normal;font-feature-settings:normal;text-align:start;writing-mode:lr-tb;text-anchor:start;fill:#ffffff"
         id="path1370" />
      <path
         d="m 189.90617,-121.9075 c -0.12,0.52 -0.2,0.96 -0.24,1.28 -0.04,0.24 -0.2,0.88 -0.4,0.88 -0.04,0 -0.12,-0.08 -0.16,-0.12 -2.32,-1.92 -4.36,-2.12 -5.88,-2.12 -6.52,0 -9.56,4.88 -9.56,9.16 0,5.08 3.8,9.2 9.4,9.2 4.44,0 8,-2.6 9.72,-3.88 l -1.04,-1.52 c -2.92,2.04 -5.68,3.4 -8.48,3.4 -5.24,0 -7.44,-3.92 -7.44,-7.24 0,-3.44 2.44,-7.12 7.6,-7.12 5.16,0 5.8,3.04 6.08,4.2 l 0.16,0.68 1.84,-0.28 c -0.08,-1.04 -0.12,-1.88 -0.12,-2.64 0,-1.4 0.24,-2.88 0.36,-3.68 z"
         style="font-style:normal;font-variant:normal;font-weight:normal;font-stretch:normal;font-size:40px;font-family:Courier;-inkscape-font-specification:'Courier, Normal';font-variant-ligatures:normal;font-variant-caps:normal;font-variant-numeric:normal;font-feature-settings:normal;text-align:start;writing-mode:lr-tb;text-anchor:start;fill:#ffffff"
         id="path1372" />
      <path
         d="m 222.95492,-125.5075 0.8,1.76 6.4,-2.96 v 20.64 h -6.96 v 1.88 h 15.8 v -1.88 h -6.84 v -22.96 h -1.28 z"
         style="font-style:normal;font-variant:normal;font-weight:normal;font-stretch:normal;font-size:40px;font-family:Courier;-inkscape-font-specification:'Courier, Normal';font-variant-ligatures:normal;font-variant-caps:normal;font-variant-numeric:normal;font-feature-settings:normal;text-align:start;writing-mode:lr-tb;text-anchor:start;fill:#ffffff"
         id="path1374" />
      <path
         d="m 262.2193,-129.0275 c -4.68,-0.24 -6.64,0.36 -7.8,0.76 -7.04,2.56 -7.56,11.16 -7.56,13.68 0,8.48 4.8,10.96 8.04,10.96 4.12,0 7.08,-3.56 7.08,-7.6 0,-4.04 -2.8,-7.76 -7,-7.76 -3.36,0 -5.2,2.2 -5.8,3 l -0.08,-0.08 c 1.2,-11.04 7.12,-11.24 13.12,-10.96 z m -13.12,16.36 c 1.68,-4.16 5.08,-4.32 5.88,-4.32 2.88,0 4.84,2.72 4.84,5.76 0,3.56 -2.36,5.6 -4.92,5.6 -2.04,0 -5.48,-1.52 -5.8,-7.04 z"
         style="font-style:normal;font-variant:normal;font-weight:normal;font-stretch:normal;font-size:40px;font-family:Courier;-inkscape-font-specification:'Courier, Normal';font-variant-ligatures:normal;font-variant-caps:normal;font-variant-numeric:normal;font-feature-settings:normal;text-align:start;writing-mode:lr-tb;text-anchor:start;fill:#ffffff"
         id="path1376" />
      <path
         d="m 285.40367,-132.2675 -15,32.6 1.72,0.8 15,-32.68 z"
         style="font-style:normal;font-variant:normal;font-weight:normal;font-stretch:normal;font-size:40px;font-family:Courier;-inkscape-font-specification:'Courier, Normal';font-variant-ligatures:normal;font-variant-caps:normal;font-variant-numeric:normal;font-feature-settings:normal;text-align:start;writing-mode:lr-tb;text-anchor:start;fill:#ffffff"
         id="path1378" />
      <path
         d="m 294.10805,-105.5875 c 3.28,1.32 4.84,1.96 7.28,1.96 4.48,0 8.04,-2.88 8.04,-7.4 0,-3.72 -2.64,-5.68 -4.32,-6.36 0.72,-0.44 3.08,-1.88 3.08,-5.44 0,-3.92 -3.4,-6.2 -6.8,-6.2 -2.56,0 -4.6,1.2 -6.8,2.64 l 1,1.56 0.72,-0.44 c 1.24,-0.76 2.96,-1.88 5.04,-1.88 2.68,0 4.76,1.72 4.76,4.36 0,1.56 -0.76,3.04 -2.08,3.92 -1.2,0.8 -2.68,0.84 -3.84,0.84 v 1.88 c 1.28,-0.08 2.48,-0.12 3.88,0.36 0.32,0.08 3.32,1.08 3.32,4.84 0,3.56 -2.96,5.44 -5.88,5.44 -2.24,0 -4.64,-0.88 -6.64,-1.84 z"
         style="font-style:normal;font-variant:normal;font-weight:normal;font-stretch:normal;font-size:40px;font-family:Courier;-inkscape-font-specification:'Courier, Normal';font-variant-ligatures:normal;font-variant-caps:normal;font-variant-numeric:normal;font-feature-settings:normal;text-align:start;writing-mode:lr-tb;text-anchor:start;fill:#ffffff"
         id="path1380" />
      <path
         d="m 333.37242,-132.2675 -15,32.6 1.72,0.8 15,-32.68 z"
         style="font-style:normal;font-variant:normal;font-weight:normal;font-stretch:normal;font-size:40px;font-family:Courier;-inkscape-font-specification:'Courier, Normal';font-variant-ligatures:normal;font-variant-caps:normal;font-variant-numeric:normal;font-feature-settings:normal;text-align:start;writing-mode:lr-tb;text-anchor:start;fill:#ffffff"
         id="path1382" />
      <path
         d="m 355.7168,-110.0275 v 3.96 h -11.04 v -0.08 c 5.36,-4.28 10.32,-9 11.6,-11.04 0.96,-1.52 1.36,-2.72 1.36,-4.44 0,-4.52 -3.84,-7.4 -7.6,-7.4 -0.64,0 -4.28,0 -7.24,3.56 v 2.6 h 2.08 c -0.24,-3.28 3.56,-4.16 5.08,-4.16 2.04,0 5.52,1.52 5.52,5.32 0,1.84 -0.44,3.28 -2.36,5.2 -3.24,3.28 -9.4,8.72 -11.12,10.2 v 2.12 h 15.6 v -5.84 z"
         style="font-style:normal;font-variant:normal;font-weight:normal;font-stretch:normal;font-size:40px;font-family:Courier;-inkscape-font-specification:'Courier, Normal';font-variant-ligatures:normal;font-variant-caps:normal;font-variant-numeric:normal;font-feature-settings:normal;text-align:start;writing-mode:lr-tb;text-anchor:start;fill:#ffffff"
         id="path1384" />
      <path
         d="m 374.70117,-129.0275 c -6.52,0 -7.6,7.52 -7.6,12.72 0,5.16 1.08,12.68 7.6,12.68 6.52,0 7.6,-7.44 7.6,-12.68 0,-5.2 -1.08,-12.72 -7.6,-12.72 z m 0,1.8 c 4.76,0 5.48,6.64 5.48,10.88 0,4.2 -0.72,10.92 -5.52,10.92 -4.72,0 -5.44,-6.68 -5.44,-10.92 0,-4.16 0.68,-10.88 5.48,-10.88 z"
         style="font-style:normal;font-variant:normal;font-weight:normal;font-stretch:normal;font-size:40px;font-family:Courier;-inkscape-font-specification:'Courier, Normal';font-variant-ligatures:normal;font-variant-caps:normal;font-variant-numeric:normal;font-feature-settings:normal;text-align:start;writing-mode:lr-tb;text-anchor:start;fill:#ffffff"
         id="path1386" />
    </g>
    <g
       aria-label="w/c 23/3/20"
       transform="matrix(0.08892264,0,0,0.08892264,105.82998,86.72107)"
       style="font-style:normal;font-weight:normal;font-size:40px;line-height:1.25;font-family:sans-serif;letter-spacing:0px;word-spacing:0px;fill:#ffffff;fill-opacity:1;stroke:none"
       id="flowRoot1107-4-6">
      <path
         d="m 122.93742,-121.3875 v 1.88 h 1.72 l 4.52,15.32 h 1.96 l 3.72,-10.32 3.8,10.32 h 2.08 l 4.48,-15.32 h 1.56 v -1.88 h -6.8 v 1.88 h 3.36 l -3.6,12.28 h -0.08 l -3.96,-11.04 h -1.4 l -3.92,10.88 h -0.08 l -3.52,-12.12 h 3.32 v -1.88 z"
         style="font-style:normal;font-variant:normal;font-weight:normal;font-stretch:normal;font-size:40px;font-family:Courier;-inkscape-font-specification:'Courier, Normal';font-variant-ligatures:normal;font-variant-caps:normal;font-variant-numeric:normal;font-feature-settings:normal;text-align:start;writing-mode:lr-tb;text-anchor:start;fill:#ffffff"
         id="path1347" />
      <path
         d="m 165.4818,-132.2675 -15,32.6 1.72,0.8 15,-32.68 z"
         style="font-style:normal;font-variant:normal;font-weight:normal;font-stretch:normal;font-size:40px;font-family:Courier;-inkscape-font-specification:'Courier, Normal';font-variant-ligatures:normal;font-variant-caps:normal;font-variant-numeric:normal;font-feature-settings:normal;text-align:start;writing-mode:lr-tb;text-anchor:start;fill:#ffffff"
         id="path1349" />
      <path
         d="m 189.90617,-121.9075 c -0.12,0.52 -0.2,0.96 -0.24,1.28 -0.04,0.24 -0.2,0.88 -0.4,0.88 -0.04,0 -0.12,-0.08 -0.16,-0.12 -2.32,-1.92 -4.36,-2.12 -5.88,-2.12 -6.52,0 -9.56,4.88 -9.56,9.16 0,5.08 3.8,9.2 9.4,9.2 4.44,0 8,-2.6 9.72,-3.88 l -1.04,-1.52 c -2.92,2.04 -5.68,3.4 -8.48,3.4 -5.24,0 -7.44,-3.92 -7.44,-7.24 0,-3.44 2.44,-7.12 7.6,-7.12 5.16,0 5.8,3.04 6.08,4.2 l 0.16,0.68 1.84,-0.28 c -0.08,-1.04 -0.12,-1.88 -0.12,-2.64 0,-1.4 0.24,-2.88 0.36,-3.68 z"
         style="font-style:normal;font-variant:normal;font-weight:normal;font-stretch:normal;font-size:40px;font-family:Courier;-inkscape-font-specification:'Courier, Normal';font-variant-ligatures:normal;font-variant-caps:normal;font-variant-numeric:normal;font-feature-settings:normal;text-align:start;writing-mode:lr-tb;text-anchor:start;fill:#ffffff"
         id="path1351" />
      <path
         d="m 235.79492,-110.0275 v 3.96 h -11.04 v -0.08 c 5.36,-4.28 10.32,-9 11.6,-11.04 0.96,-1.52 1.36,-2.72 1.36,-4.44 0,-4.52 -3.84,-7.4 -7.6,-7.4 -0.64,0 -4.28,0 -7.24,3.56 v 2.6 h 2.08 c -0.24,-3.28 3.56,-4.16 5.08,-4.16 2.04,0 5.52,1.52 5.52,5.32 0,1.84 -0.44,3.28 -2.36,5.2 -3.24,3.28 -9.4,8.72 -11.12,10.2 v 2.12 h 15.6 v -5.84 z"
         style="font-style:normal;font-variant:normal;font-weight:normal;font-stretch:normal;font-size:40px;font-family:Courier;-inkscape-font-specification:'Courier, Normal';font-variant-ligatures:normal;font-variant-caps:normal;font-variant-numeric:normal;font-feature-settings:normal;text-align:start;writing-mode:lr-tb;text-anchor:start;fill:#ffffff"
         id="path1353" />
      <path
         d="m 246.1393,-105.5875 c 3.28,1.32 4.84,1.96 7.28,1.96 4.48,0 8.04,-2.88 8.04,-7.4 0,-3.72 -2.64,-5.68 -4.32,-6.36 0.72,-0.44 3.08,-1.88 3.08,-5.44 0,-3.92 -3.4,-6.2 -6.8,-6.2 -2.56,0 -4.6,1.2 -6.8,2.64 l 1,1.56 0.72,-0.44 c 1.24,-0.76 2.96,-1.88 5.04,-1.88 2.68,0 4.76,1.72 4.76,4.36 0,1.56 -0.76,3.04 -2.08,3.92 -1.2,0.8 -2.68,0.84 -3.84,0.84 v 1.88 c 1.28,-0.08 2.48,-0.12 3.88,0.36 0.32,0.08 3.32,1.08 3.32,4.84 0,3.56 -2.96,5.44 -5.88,5.44 -2.24,0 -4.64,-0.88 -6.64,-1.84 z"
         style="font-style:normal;font-variant:normal;font-weight:normal;font-stretch:normal;font-size:40px;font-family:Courier;-inkscape-font-specification:'Courier, Normal';font-variant-ligatures:normal;font-variant-caps:normal;font-variant-numeric:normal;font-feature-settings:normal;text-align:start;writing-mode:lr-tb;text-anchor:start;fill:#ffffff"
         id="path1355" />
      <path
         d="m 285.40367,-132.2675 -15,32.6 1.72,0.8 15,-32.68 z"
         style="font-style:normal;font-variant:normal;font-weight:normal;font-stretch:normal;font-size:40px;font-family:Courier;-inkscape-font-specification:'Courier, Normal';font-variant-ligatures:normal;font-variant-caps:normal;font-variant-numeric:normal;font-feature-settings:normal;text-align:start;writing-mode:lr-tb;text-anchor:start;fill:#ffffff"
         id="path1357" />
      <path
         d="m 294.10805,-105.5875 c 3.28,1.32 4.84,1.96 7.28,1.96 4.48,0 8.04,-2.88 8.04,-7.4 0,-3.72 -2.64,-5.68 -4.32,-6.36 0.72,-0.44 3.08,-1.88 3.08,-5.44 0,-3.92 -3.4,-6.2 -6.8,-6.2 -2.56,0 -4.6,1.2 -6.8,2.64 l 1,1.56 0.72,-0.44 c 1.24,-0.76 2.96,-1.88 5.04,-1.88 2.68,0 4.76,1.72 4.76,4.36 0,1.56 -0.76,3.04 -2.08,3.92 -1.2,0.8 -2.68,0.84 -3.84,0.84 v 1.88 c 1.28,-0.08 2.48,-0.12 3.88,0.36 0.32,0.08 3.32,1.08 3.32,4.84 0,3.56 -2.96,5.44 -5.88,5.44 -2.24,0 -4.64,-0.88 -6.64,-1.84 z"
         style="font-style:normal;font-variant:normal;font-weight:normal;font-stretch:normal;font-size:40px;font-family:Courier;-inkscape-font-specification:'Courier, Normal';font-variant-ligatures:normal;font-variant-caps:normal;font-variant-numeric:normal;font-feature-settings:normal;text-align:start;writing-mode:lr-tb;text-anchor:start;fill:#ffffff"
         id="path1359" />
      <path
         d="m 333.37242,-132.2675 -15,32.6 1.72,0.8 15,-32.68 z"
         style="font-style:normal;font-variant:normal;font-weight:normal;font-stretch:normal;font-size:40px;font-family:Courier;-inkscape-font-specification:'Courier, Normal';font-variant-ligatures:normal;font-variant-caps:normal;font-variant-numeric:normal;font-feature-settings:normal;text-align:start;writing-mode:lr-tb;text-anchor:start;fill:#ffffff"
         id="path1361" />
      <path
         d="m 355.7168,-110.0275 v 3.96 h -11.04 v -0.08 c 5.36,-4.28 10.32,-9 11.6,-11.04 0.96,-1.52 1.36,-2.72 1.36,-4.44 0,-4.52 -3.84,-7.4 -7.6,-7.4 -0.64,0 -4.28,0 -7.24,3.56 v 2.6 h 2.08 c -0.24,-3.28 3.56,-4.16 5.08,-4.16 2.04,0 5.52,1.52 5.52,5.32 0,1.84 -0.44,3.28 -2.36,5.2 -3.24,3.28 -9.4,8.72 -11.12,10.2 v 2.12 h 15.6 v -5.84 z"
         style="font-style:normal;font-variant:normal;font-weight:normal;font-stretch:normal;font-size:40px;font-family:Courier;-inkscape-font-specification:'Courier, Normal';font-variant-ligatures:normal;font-variant-caps:normal;font-variant-numeric:normal;font-feature-settings:normal;text-align:start;writing-mode:lr-tb;text-anchor:start;fill:#ffffff"
         id="path1363" />
      <path
         d="m 374.70117,-129.0275 c -6.52,0 -7.6,7.52 -7.6,12.72 0,5.16 1.08,12.68 7.6,12.68 6.52,0 7.6,-7.44 7.6,-12.68 0,-5.2 -1.08,-12.72 -7.6,-12.72 z m 0,1.8 c 4.76,0 5.48,6.64 5.48,10.88 0,4.2 -0.72,10.92 -5.52,10.92 -4.72,0 -5.44,-6.68 -5.44,-10.92 0,-4.16 0.68,-10.88 5.48,-10.88 z"
         style="font-style:normal;font-variant:normal;font-weight:normal;font-stretch:normal;font-size:40px;font-family:Courier;-inkscape-font-specification:'Courier, Normal';font-variant-ligatures:normal;font-variant-caps:normal;font-variant-numeric:normal;font-feature-settings:normal;text-align:start;writing-mode:lr-tb;text-anchor:start;fill:#ffffff"
         id="path1365" />
    </g>
    <g
       aria-label="w/c 06/4/20"
       transform="matrix(0.08892264,0,0,0.08892264,155.88625,86.72107)"
       style="font-style:normal;font-weight:normal;font-size:40px;line-height:1.25;font-family:sans-serif;letter-spacing:0px;word-spacing:0px;fill:#ffffff;fill-opacity:1;stroke:none"
       id="flowRoot1107-4-6-7">
      <path
         d="m 122.93742,-121.3875 v 1.88 h 1.72 l 4.52,15.32 h 1.96 l 3.72,-10.32 3.8,10.32 h 2.08 l 4.48,-15.32 h 1.56 v -1.88 h -6.8 v 1.88 h 3.36 l -3.6,12.28 h -0.08 l -3.96,-11.04 h -1.4 l -3.92,10.88 h -0.08 l -3.52,-12.12 h 3.32 v -1.88 z"
         style="font-style:normal;font-variant:normal;font-weight:normal;font-stretch:normal;font-size:40px;font-family:Courier;-inkscape-font-specification:'Courier, Normal';font-variant-ligatures:normal;font-variant-caps:normal;font-variant-numeric:normal;font-feature-settings:normal;text-align:start;writing-mode:lr-tb;text-anchor:start;fill:#ffffff"
         id="path1305" />
      <path
         d="m 165.4818,-132.2675 -15,32.6 1.72,0.8 15,-32.68 z"
         style="font-style:normal;font-variant:normal;font-weight:normal;font-stretch:normal;font-size:40px;font-family:Courier;-inkscape-font-specification:'Courier, Normal';font-variant-ligatures:normal;font-variant-caps:normal;font-variant-numeric:normal;font-feature-settings:normal;text-align:start;writing-mode:lr-tb;text-anchor:start;fill:#ffffff"
         id="path1307" />
      <path
         d="m 189.90617,-121.9075 c -0.12,0.52 -0.2,0.96 -0.24,1.28 -0.04,0.24 -0.2,0.88 -0.4,0.88 -0.04,0 -0.12,-0.08 -0.16,-0.12 -2.32,-1.92 -4.36,-2.12 -5.88,-2.12 -6.52,0 -9.56,4.88 -9.56,9.16 0,5.08 3.8,9.2 9.4,9.2 4.44,0 8,-2.6 9.72,-3.88 l -1.04,-1.52 c -2.92,2.04 -5.68,3.4 -8.48,3.4 -5.24,0 -7.44,-3.92 -7.44,-7.24 0,-3.44 2.44,-7.12 7.6,-7.12 5.16,0 5.8,3.04 6.08,4.2 l 0.16,0.68 1.84,-0.28 c -0.08,-1.04 -0.12,-1.88 -0.12,-2.64 0,-1.4 0.24,-2.88 0.36,-3.68 z"
         style="font-style:normal;font-variant:normal;font-weight:normal;font-stretch:normal;font-size:40px;font-family:Courier;-inkscape-font-specification:'Courier, Normal';font-variant-ligatures:normal;font-variant-caps:normal;font-variant-numeric:normal;font-feature-settings:normal;text-align:start;writing-mode:lr-tb;text-anchor:start;fill:#ffffff"
         id="path1309" />
      <path
         d="m 230.79492,-129.0275 c -6.52,0 -7.6,7.52 -7.6,12.72 0,5.16 1.08,12.68 7.6,12.68 6.52,0 7.6,-7.44 7.6,-12.68 0,-5.2 -1.08,-12.72 -7.6,-12.72 z m 0,1.8 c 4.76,0 5.48,6.64 5.48,10.88 0,4.2 -0.72,10.92 -5.52,10.92 -4.72,0 -5.44,-6.68 -5.44,-10.92 0,-4.16 0.68,-10.88 5.48,-10.88 z"
         style="font-style:normal;font-variant:normal;font-weight:normal;font-stretch:normal;font-size:40px;font-family:Courier;-inkscape-font-specification:'Courier, Normal';font-variant-ligatures:normal;font-variant-caps:normal;font-variant-numeric:normal;font-feature-settings:normal;text-align:start;writing-mode:lr-tb;text-anchor:start;fill:#ffffff"
         id="path1311" />
      <path
         d="m 262.2193,-129.0275 c -4.68,-0.24 -6.64,0.36 -7.8,0.76 -7.04,2.56 -7.56,11.16 -7.56,13.68 0,8.48 4.8,10.96 8.04,10.96 4.12,0 7.08,-3.56 7.08,-7.6 0,-4.04 -2.8,-7.76 -7,-7.76 -3.36,0 -5.2,2.2 -5.8,3 l -0.08,-0.08 c 1.2,-11.04 7.12,-11.24 13.12,-10.96 z m -13.12,16.36 c 1.68,-4.16 5.08,-4.32 5.88,-4.32 2.88,0 4.84,2.72 4.84,5.76 0,3.56 -2.36,5.6 -4.92,5.6 -2.04,0 -5.48,-1.52 -5.8,-7.04 z"
         style="font-style:normal;font-variant:normal;font-weight:normal;font-stretch:normal;font-size:40px;font-family:Courier;-inkscape-font-specification:'Courier, Normal';font-variant-ligatures:normal;font-variant-caps:normal;font-variant-numeric:normal;font-feature-settings:normal;text-align:start;writing-mode:lr-tb;text-anchor:start;fill:#ffffff"
         id="path1313" />
      <path
         d="m 285.40367,-132.2675 -15,32.6 1.72,0.8 15,-32.68 z"
         style="font-style:normal;font-variant:normal;font-weight:normal;font-stretch:normal;font-size:40px;font-family:Courier;-inkscape-font-specification:'Courier, Normal';font-variant-ligatures:normal;font-variant-caps:normal;font-variant-numeric:normal;font-feature-settings:normal;text-align:start;writing-mode:lr-tb;text-anchor:start;fill:#ffffff"
         id="path1315" />
      <path
         d="m 306.34805,-129.0275 h -2.72 l -9.92,16.68 v 2.32 h 10.72 v 3.96 h -5.4 v 1.88 h 10.92 v -1.88 h -3.6 v -3.96 h 3.6 v -1.92 h -3.6 z m -10.68,17.08 8.68,-14.76 h 0.08 v 14.76 z"
         style="font-style:normal;font-variant:normal;font-weight:normal;font-stretch:normal;font-size:40px;font-family:Courier;-inkscape-font-specification:'Courier, Normal';font-variant-ligatures:normal;font-variant-caps:normal;font-variant-numeric:normal;font-feature-settings:normal;text-align:start;writing-mode:lr-tb;text-anchor:start;fill:#ffffff"
         id="path1317" />
      <path
         d="m 333.37242,-132.2675 -15,32.6 1.72,0.8 15,-32.68 z"
         style="font-style:normal;font-variant:normal;font-weight:normal;font-stretch:normal;font-size:40px;font-family:Courier;-inkscape-font-specification:'Courier, Normal';font-variant-ligatures:normal;font-variant-caps:normal;font-variant-numeric:normal;font-feature-settings:normal;text-align:start;writing-mode:lr-tb;text-anchor:start;fill:#ffffff"
         id="path1319" />
      <path
         d="m 355.7168,-110.0275 v 3.96 h -11.04 v -0.08 c 5.36,-4.28 10.32,-9 11.6,-11.04 0.96,-1.52 1.36,-2.72 1.36,-4.44 0,-4.52 -3.84,-7.4 -7.6,-7.4 -0.64,0 -4.28,0 -7.24,3.56 v 2.6 h 2.08 c -0.24,-3.28 3.56,-4.16 5.08,-4.16 2.04,0 5.52,1.52 5.52,5.32 0,1.84 -0.44,3.28 -2.36,5.2 -3.24,3.28 -9.4,8.72 -11.12,10.2 v 2.12 h 15.6 v -5.84 z"
         style="font-style:normal;font-variant:normal;font-weight:normal;font-stretch:normal;font-size:40px;font-family:Courier;-inkscape-font-specification:'Courier, Normal';font-variant-ligatures:normal;font-variant-caps:normal;font-variant-numeric:normal;font-feature-settings:normal;text-align:start;writing-mode:lr-tb;text-anchor:start;fill:#ffffff"
         id="path1321" />
      <path
         d="m 374.70117,-129.0275 c -6.52,0 -7.6,7.52 -7.6,12.72 0,5.16 1.08,12.68 7.6,12.68 6.52,0 7.6,-7.44 7.6,-12.68 0,-5.2 -1.08,-12.72 -7.6,-12.72 z m 0,1.8 c 4.76,0 5.48,6.64 5.48,10.88 0,4.2 -0.72,10.92 -5.52,10.92 -4.72,0 -5.44,-6.68 -5.44,-10.92 0,-4.16 0.68,-10.88 5.48,-10.88 z"
         style="font-style:normal;font-variant:normal;font-weight:normal;font-stretch:normal;font-size:40px;font-family:Courier;-inkscape-font-specification:'Courier, Normal';font-variant-ligatures:normal;font-variant-caps:normal;font-variant-numeric:normal;font-feature-settings:normal;text-align:start;writing-mode:lr-tb;text-anchor:start;fill:#ffffff"
         id="path1323" />
    </g>
    <g
       aria-label="w/c 30/3/20"
       transform="matrix(0.08892264,0,0,0.08892264,130.85811,86.72107)"
       style="font-style:normal;font-weight:normal;font-size:40px;line-height:1.25;font-family:sans-serif;letter-spacing:0px;word-spacing:0px;fill:#ffffff;fill-opacity:1;stroke:none"
       id="flowRoot1107-4-6-7-9">
      <path
         d="m 122.93742,-121.3875 v 1.88 h 1.72 l 4.52,15.32 h 1.96 l 3.72,-10.32 3.8,10.32 h 2.08 l 4.48,-15.32 h 1.56 v -1.88 h -6.8 v 1.88 h 3.36 l -3.6,12.28 h -0.08 l -3.96,-11.04 h -1.4 l -3.92,10.88 h -0.08 l -3.52,-12.12 h 3.32 v -1.88 z"
         style="font-style:normal;font-variant:normal;font-weight:normal;font-stretch:normal;font-size:40px;font-family:Courier;-inkscape-font-specification:'Courier, Normal';font-variant-ligatures:normal;font-variant-caps:normal;font-variant-numeric:normal;font-feature-settings:normal;text-align:start;writing-mode:lr-tb;text-anchor:start;fill:#ffffff"
         id="path1326" />
      <path
         d="m 165.4818,-132.2675 -15,32.6 1.72,0.8 15,-32.68 z"
         style="font-style:normal;font-variant:normal;font-weight:normal;font-stretch:normal;font-size:40px;font-family:Courier;-inkscape-font-specification:'Courier, Normal';font-variant-ligatures:normal;font-variant-caps:normal;font-variant-numeric:normal;font-feature-settings:normal;text-align:start;writing-mode:lr-tb;text-anchor:start;fill:#ffffff"
         id="path1328" />
      <path
         d="m 189.90617,-121.9075 c -0.12,0.52 -0.2,0.96 -0.24,1.28 -0.04,0.24 -0.2,0.88 -0.4,0.88 -0.04,0 -0.12,-0.08 -0.16,-0.12 -2.32,-1.92 -4.36,-2.12 -5.88,-2.12 -6.52,0 -9.56,4.88 -9.56,9.16 0,5.08 3.8,9.2 9.4,9.2 4.44,0 8,-2.6 9.72,-3.88 l -1.04,-1.52 c -2.92,2.04 -5.68,3.4 -8.48,3.4 -5.24,0 -7.44,-3.92 -7.44,-7.24 0,-3.44 2.44,-7.12 7.6,-7.12 5.16,0 5.8,3.04 6.08,4.2 l 0.16,0.68 1.84,-0.28 c -0.08,-1.04 -0.12,-1.88 -0.12,-2.64 0,-1.4 0.24,-2.88 0.36,-3.68 z"
         style="font-style:normal;font-variant:normal;font-weight:normal;font-stretch:normal;font-size:40px;font-family:Courier;-inkscape-font-specification:'Courier, Normal';font-variant-ligatures:normal;font-variant-caps:normal;font-variant-numeric:normal;font-feature-settings:normal;text-align:start;writing-mode:lr-tb;text-anchor:start;fill:#ffffff"
         id="path1330" />
      <path
         d="m 222.15492,-105.5875 c 3.28,1.32 4.84,1.96 7.28,1.96 4.48,0 8.04,-2.88 8.04,-7.4 0,-3.72 -2.64,-5.68 -4.32,-6.36 0.72,-0.44 3.08,-1.88 3.08,-5.44 0,-3.92 -3.4,-6.2 -6.8,-6.2 -2.56,0 -4.6,1.2 -6.8,2.64 l 1,1.56 0.72,-0.44 c 1.24,-0.76 2.96,-1.88 5.04,-1.88 2.68,0 4.76,1.72 4.76,4.36 0,1.56 -0.76,3.04 -2.08,3.92 -1.2,0.8 -2.68,0.84 -3.84,0.84 v 1.88 c 1.28,-0.08 2.48,-0.12 3.88,0.36 0.32,0.08 3.32,1.08 3.32,4.84 0,3.56 -2.96,5.44 -5.88,5.44 -2.24,0 -4.64,-0.88 -6.64,-1.84 z"
         style="font-style:normal;font-variant:normal;font-weight:normal;font-stretch:normal;font-size:40px;font-family:Courier;-inkscape-font-specification:'Courier, Normal';font-variant-ligatures:normal;font-variant-caps:normal;font-variant-numeric:normal;font-feature-settings:normal;text-align:start;writing-mode:lr-tb;text-anchor:start;fill:#ffffff"
         id="path1332" />
      <path
         d="m 254.7793,-129.0275 c -6.52,0 -7.6,7.52 -7.6,12.72 0,5.16 1.08,12.68 7.6,12.68 6.52,0 7.6,-7.44 7.6,-12.68 0,-5.2 -1.08,-12.72 -7.6,-12.72 z m 0,1.8 c 4.76,0 5.48,6.64 5.48,10.88 0,4.2 -0.72,10.92 -5.52,10.92 -4.72,0 -5.44,-6.68 -5.44,-10.92 0,-4.16 0.68,-10.88 5.48,-10.88 z"
         style="font-style:normal;font-variant:normal;font-weight:normal;font-stretch:normal;font-size:40px;font-family:Courier;-inkscape-font-specification:'Courier, Normal';font-variant-ligatures:normal;font-variant-caps:normal;font-variant-numeric:normal;font-feature-settings:normal;text-align:start;writing-mode:lr-tb;text-anchor:start;fill:#ffffff"
         id="path1334" />
      <path
         d="m 285.40367,-132.2675 -15,32.6 1.72,0.8 15,-32.68 z"
         style="font-style:normal;font-variant:normal;font-weight:normal;font-stretch:normal;font-size:40px;font-family:Courier;-inkscape-font-specification:'Courier, Normal';font-variant-ligatures:normal;font-variant-caps:normal;font-variant-numeric:normal;font-feature-settings:normal;text-align:start;writing-mode:lr-tb;text-anchor:start;fill:#ffffff"
         id="path1336" />
      <path
         d="m 294.10805,-105.5875 c 3.28,1.32 4.84,1.96 7.28,1.96 4.48,0 8.04,-2.88 8.04,-7.4 0,-3.72 -2.64,-5.68 -4.32,-6.36 0.72,-0.44 3.08,-1.88 3.08,-5.44 0,-3.92 -3.4,-6.2 -6.8,-6.2 -2.56,0 -4.6,1.2 -6.8,2.64 l 1,1.56 0.72,-0.44 c 1.24,-0.76 2.96,-1.88 5.04,-1.88 2.68,0 4.76,1.72 4.76,4.36 0,1.56 -0.76,3.04 -2.08,3.92 -1.2,0.8 -2.68,0.84 -3.84,0.84 v 1.88 c 1.28,-0.08 2.48,-0.12 3.88,0.36 0.32,0.08 3.32,1.08 3.32,4.84 0,3.56 -2.96,5.44 -5.88,5.44 -2.24,0 -4.64,-0.88 -6.64,-1.84 z"
         style="font-style:normal;font-variant:normal;font-weight:normal;font-stretch:normal;font-size:40px;font-family:Courier;-inkscape-font-specification:'Courier, Normal';font-variant-ligatures:normal;font-variant-caps:normal;font-variant-numeric:normal;font-feature-settings:normal;text-align:start;writing-mode:lr-tb;text-anchor:start;fill:#ffffff"
         id="path1338" />
      <path
         d="m 333.37242,-132.2675 -15,32.6 1.72,0.8 15,-32.68 z"
         style="font-style:normal;font-variant:normal;font-weight:normal;font-stretch:normal;font-size:40px;font-family:Courier;-inkscape-font-specification:'Courier, Normal';font-variant-ligatures:normal;font-variant-caps:normal;font-variant-numeric:normal;font-feature-settings:normal;text-align:start;writing-mode:lr-tb;text-anchor:start;fill:#ffffff"
         id="path1340" />
      <path
         d="m 355.7168,-110.0275 v 3.96 h -11.04 v -0.08 c 5.36,-4.28 10.32,-9 11.6,-11.04 0.96,-1.52 1.36,-2.72 1.36,-4.44 0,-4.52 -3.84,-7.4 -7.6,-7.4 -0.64,0 -4.28,0 -7.24,3.56 v 2.6 h 2.08 c -0.24,-3.28 3.56,-4.16 5.08,-4.16 2.04,0 5.52,1.52 5.52,5.32 0,1.84 -0.44,3.28 -2.36,5.2 -3.24,3.28 -9.4,8.72 -11.12,10.2 v 2.12 h 15.6 v -5.84 z"
         style="font-style:normal;font-variant:normal;font-weight:normal;font-stretch:normal;font-size:40px;font-family:Courier;-inkscape-font-specification:'Courier, Normal';font-variant-ligatures:normal;font-variant-caps:normal;font-variant-numeric:normal;font-feature-settings:normal;text-align:start;writing-mode:lr-tb;text-anchor:start;fill:#ffffff"
         id="path1342" />
      <path
         d="m 374.70117,-129.0275 c -6.52,0 -7.6,7.52 -7.6,12.72 0,5.16 1.08,12.68 7.6,12.68 6.52,0 7.6,-7.44 7.6,-12.68 0,-5.2 -1.08,-12.72 -7.6,-12.72 z m 0,1.8 c 4.76,0 5.48,6.64 5.48,10.88 0,4.2 -0.72,10.92 -5.52,10.92 -4.72,0 -5.44,-6.68 -5.44,-10.92 0,-4.16 0.68,-10.88 5.48,-10.88 z"
         style="font-style:normal;font-variant:normal;font-weight:normal;font-stretch:normal;font-size:40px;font-family:Courier;-inkscape-font-specification:'Courier, Normal';font-variant-ligatures:normal;font-variant-caps:normal;font-variant-numeric:normal;font-feature-settings:normal;text-align:start;writing-mode:lr-tb;text-anchor:start;fill:#ffffff"
         id="path1344" />
    </g>
    <g
       aria-label="w/c 13/4/20"
       transform="matrix(0.08892264,0,0,0.08892264,180.91439,86.72107)"
       style="font-style:normal;font-weight:normal;font-size:40px;line-height:1.25;font-family:sans-serif;letter-spacing:0px;word-spacing:0px;fill:#ffffff;fill-opacity:1;stroke:none"
       id="flowRoot1107-4-6-7-0">
      <path
         d="m 122.93742,-121.3875 v 1.88 h 1.72 l 4.52,15.32 h 1.96 l 3.72,-10.32 3.8,10.32 h 2.08 l 4.48,-15.32 h 1.56 v -1.88 h -6.8 v 1.88 h 3.36 l -3.6,12.28 h -0.08 l -3.96,-11.04 h -1.4 l -3.92,10.88 h -0.08 l -3.52,-12.12 h 3.32 v -1.88 z"
         style="font-style:normal;font-variant:normal;font-weight:normal;font-stretch:normal;font-size:40px;font-family:Courier;-inkscape-font-specification:'Courier, Normal';font-variant-ligatures:normal;font-variant-caps:normal;font-variant-numeric:normal;font-feature-settings:normal;text-align:start;writing-mode:lr-tb;text-anchor:start;fill:#ffffff"
         id="path1284" />
      <path
         d="m 165.4818,-132.2675 -15,32.6 1.72,0.8 15,-32.68 z"
         style="font-style:normal;font-variant:normal;font-weight:normal;font-stretch:normal;font-size:40px;font-family:Courier;-inkscape-font-specification:'Courier, Normal';font-variant-ligatures:normal;font-variant-caps:normal;font-variant-numeric:normal;font-feature-settings:normal;text-align:start;writing-mode:lr-tb;text-anchor:start;fill:#ffffff"
         id="path1286" />
      <path
         d="m 189.90617,-121.9075 c -0.12,0.52 -0.2,0.96 -0.24,1.28 -0.04,0.24 -0.2,0.88 -0.4,0.88 -0.04,0 -0.12,-0.08 -0.16,-0.12 -2.32,-1.92 -4.36,-2.12 -5.88,-2.12 -6.52,0 -9.56,4.88 -9.56,9.16 0,5.08 3.8,9.2 9.4,9.2 4.44,0 8,-2.6 9.72,-3.88 l -1.04,-1.52 c -2.92,2.04 -5.68,3.4 -8.48,3.4 -5.24,0 -7.44,-3.92 -7.44,-7.24 0,-3.44 2.44,-7.12 7.6,-7.12 5.16,0 5.8,3.04 6.08,4.2 l 0.16,0.68 1.84,-0.28 c -0.08,-1.04 -0.12,-1.88 -0.12,-2.64 0,-1.4 0.24,-2.88 0.36,-3.68 z"
         style="font-style:normal;font-variant:normal;font-weight:normal;font-stretch:normal;font-size:40px;font-family:Courier;-inkscape-font-specification:'Courier, Normal';font-variant-ligatures:normal;font-variant-caps:normal;font-variant-numeric:normal;font-feature-settings:normal;text-align:start;writing-mode:lr-tb;text-anchor:start;fill:#ffffff"
         id="path1288" />
      <path
         d="m 222.95492,-125.5075 0.8,1.76 6.4,-2.96 v 20.64 h -6.96 v 1.88 h 15.8 v -1.88 h -6.84 v -22.96 h -1.28 z"
         style="font-style:normal;font-variant:normal;font-weight:normal;font-stretch:normal;font-size:40px;font-family:Courier;-inkscape-font-specification:'Courier, Normal';font-variant-ligatures:normal;font-variant-caps:normal;font-variant-numeric:normal;font-feature-settings:normal;text-align:start;writing-mode:lr-tb;text-anchor:start;fill:#ffffff"
         id="path1290" />
      <path
         d="m 246.1393,-105.5875 c 3.28,1.32 4.84,1.96 7.28,1.96 4.48,0 8.04,-2.88 8.04,-7.4 0,-3.72 -2.64,-5.68 -4.32,-6.36 0.72,-0.44 3.08,-1.88 3.08,-5.44 0,-3.92 -3.4,-6.2 -6.8,-6.2 -2.56,0 -4.6,1.2 -6.8,2.64 l 1,1.56 0.72,-0.44 c 1.24,-0.76 2.96,-1.88 5.04,-1.88 2.68,0 4.76,1.72 4.76,4.36 0,1.56 -0.76,3.04 -2.08,3.92 -1.2,0.8 -2.68,0.84 -3.84,0.84 v 1.88 c 1.28,-0.08 2.48,-0.12 3.88,0.36 0.32,0.08 3.32,1.08 3.32,4.84 0,3.56 -2.96,5.44 -5.88,5.44 -2.24,0 -4.64,-0.88 -6.64,-1.84 z"
         style="font-style:normal;font-variant:normal;font-weight:normal;font-stretch:normal;font-size:40px;font-family:Courier;-inkscape-font-specification:'Courier, Normal';font-variant-ligatures:normal;font-variant-caps:normal;font-variant-numeric:normal;font-feature-settings:normal;text-align:start;writing-mode:lr-tb;text-anchor:start;fill:#ffffff"
         id="path1292" />
      <path
         d="m 285.40367,-132.2675 -15,32.6 1.72,0.8 15,-32.68 z"
         style="font-style:normal;font-variant:normal;font-weight:normal;font-stretch:normal;font-size:40px;font-family:Courier;-inkscape-font-specification:'Courier, Normal';font-variant-ligatures:normal;font-variant-caps:normal;font-variant-numeric:normal;font-feature-settings:normal;text-align:start;writing-mode:lr-tb;text-anchor:start;fill:#ffffff"
         id="path1294" />
      <path
         d="m 306.34805,-129.0275 h -2.72 l -9.92,16.68 v 2.32 h 10.72 v 3.96 h -5.4 v 1.88 h 10.92 v -1.88 h -3.6 v -3.96 h 3.6 v -1.92 h -3.6 z m -10.68,17.08 8.68,-14.76 h 0.08 v 14.76 z"
         style="font-style:normal;font-variant:normal;font-weight:normal;font-stretch:normal;font-size:40px;font-family:Courier;-inkscape-font-specification:'Courier, Normal';font-variant-ligatures:normal;font-variant-caps:normal;font-variant-numeric:normal;font-feature-settings:normal;text-align:start;writing-mode:lr-tb;text-anchor:start;fill:#ffffff"
         id="path1296" />
      <path
         d="m 333.37242,-132.2675 -15,32.6 1.72,0.8 15,-32.68 z"
         style="font-style:normal;font-variant:normal;font-weight:normal;font-stretch:normal;font-size:40px;font-family:Courier;-inkscape-font-specification:'Courier, Normal';font-variant-ligatures:normal;font-variant-caps:normal;font-variant-numeric:normal;font-feature-settings:normal;text-align:start;writing-mode:lr-tb;text-anchor:start;fill:#ffffff"
         id="path1298" />
      <path
         d="m 355.7168,-110.0275 v 3.96 h -11.04 v -0.08 c 5.36,-4.28 10.32,-9 11.6,-11.04 0.96,-1.52 1.36,-2.72 1.36,-4.44 0,-4.52 -3.84,-7.4 -7.6,-7.4 -0.64,0 -4.28,0 -7.24,3.56 v 2.6 h 2.08 c -0.24,-3.28 3.56,-4.16 5.08,-4.16 2.04,0 5.52,1.52 5.52,5.32 0,1.84 -0.44,3.28 -2.36,5.2 -3.24,3.28 -9.4,8.72 -11.12,10.2 v 2.12 h 15.6 v -5.84 z"
         style="font-style:normal;font-variant:normal;font-weight:normal;font-stretch:normal;font-size:40px;font-family:Courier;-inkscape-font-specification:'Courier, Normal';font-variant-ligatures:normal;font-variant-caps:normal;font-variant-numeric:normal;font-feature-settings:normal;text-align:start;writing-mode:lr-tb;text-anchor:start;fill:#ffffff"
         id="path1300" />
      <path
         d="m 374.70117,-129.0275 c -6.52,0 -7.6,7.52 -7.6,12.72 0,5.16 1.08,12.68 7.6,12.68 6.52,0 7.6,-7.44 7.6,-12.68 0,-5.2 -1.08,-12.72 -7.6,-12.72 z m 0,1.8 c 4.76,0 5.48,6.64 5.48,10.88 0,4.2 -0.72,10.92 -5.52,10.92 -4.72,0 -5.44,-6.68 -5.44,-10.92 0,-4.16 0.68,-10.88 5.48,-10.88 z"
         style="font-style:normal;font-variant:normal;font-weight:normal;font-stretch:normal;font-size:40px;font-family:Courier;-inkscape-font-specification:'Courier, Normal';font-variant-ligatures:normal;font-variant-caps:normal;font-variant-numeric:normal;font-feature-settings:normal;text-align:start;writing-mode:lr-tb;text-anchor:start;fill:#ffffff"
         id="path1302" />
    </g>
  </g>
</svg>
