<?xml version="1.0" encoding="UTF-8" standalone="no"?>
<!-- Created with Inkscape (http://www.inkscape.org/) -->

<svg
   xmlns:dc="http://purl.org/dc/elements/1.1/"
   xmlns:cc="http://creativecommons.org/ns#"
   xmlns:rdf="http://www.w3.org/1999/02/22-rdf-syntax-ns#"
   xmlns:svg="http://www.w3.org/2000/svg"
   xmlns="http://www.w3.org/2000/svg"
   xmlns:sodipodi="http://sodipodi.sourceforge.net/DTD/sodipodi-0.dtd"
   xmlns:inkscape="http://www.inkscape.org/namespaces/inkscape"
   width="257.06662mm"
   height="267.15146mm"
   viewBox="0 0 257.06662 267.15146"
   version="1.1"
   id="svg8"
   inkscape:version="0.92.4 (5da689c313, 2019-01-14)"
   sodipodi:docname="nicholson-figure.svg">
  <defs
     id="defs2" />
  <sodipodi:namedview
     id="base"
     pagecolor="#ffffff"
     bordercolor="#666666"
     borderopacity="1.0"
     inkscape:pageopacity="0.0"
     inkscape:pageshadow="2"
     inkscape:zoom="0.49497475"
     inkscape:cx="882.15071"
     inkscape:cy="445.10499"
     inkscape:document-units="mm"
     inkscape:current-layer="flowRoot817-5-0-0"
     showgrid="false"
     inkscape:window-width="1920"
     inkscape:window-height="1023"
     inkscape:window-x="1080"
     inkscape:window-y="520"
     inkscape:window-maximized="1"
     fit-margin-top="0"
     fit-margin-left="0"
     fit-margin-right="0"
     fit-margin-bottom="0" />
  <metadata
     id="metadata5">
    <rdf:RDF>
      <cc:Work
         rdf:about="">
        <dc:format>image/svg+xml</dc:format>
        <dc:type
           rdf:resource="http://purl.org/dc/dcmitype/StillImage" />
        <dc:title></dc:title>
      </cc:Work>
    </rdf:RDF>
  </metadata>
  <g
     inkscape:label="Layer 1"
     inkscape:groupmode="layer"
     id="layer1"
     transform="translate(-27.284836,2.0155667)">
    <path
       sodipodi:type="star"
       style="fill:#006699;fill-opacity:1;stroke-width:0.69991118"
       id="path971-3"
       sodipodi:sides="6"
       sodipodi:cx="155.81815"
       sodipodi:cy="131.56017"
       sodipodi:r1="51.413322"
       sodipodi:r2="44.525242"
       sodipodi:arg1="1.0471976"
       sodipodi:arg2="1.5707963"
       inkscape:flatsided="true"
       inkscape:rounded="0"
       inkscape:randomized="0"
       d="m 181.5248,176.08541 -51.41332,0 -25.70666,-44.52525 25.70667,-44.525239 51.41332,2e-6 25.70666,44.525247 z"
       inkscape:transform-center-y="4.6456302e-06" />
    <path
       sodipodi:type="star"
       style="fill:#0099e5;fill-opacity:1;stroke-width:0.69991118"
       id="path971-3-9"
       sodipodi:sides="6"
       sodipodi:cx="232.93813"
       sodipodi:cy="176.0854"
       sodipodi:r1="51.413322"
       sodipodi:r2="44.525242"
       sodipodi:arg1="1.0471976"
       sodipodi:arg2="1.5707963"
       inkscape:flatsided="true"
       inkscape:rounded="0"
       inkscape:randomized="0"
       d="m 258.64478,220.61065 -51.41332,0 -25.70666,-44.52525 25.70667,-44.52524 51.41332,0 25.70666,44.52525 z"
       inkscape:transform-center-y="4.6456302e-06" />
    <path
       sodipodi:type="star"
       style="fill:#3382aa;fill-opacity:1;stroke-width:0.69991118"
       id="path971-3-9-7"
       sodipodi:sides="6"
       sodipodi:cx="155.81815"
       sodipodi:cy="220.61066"
       sodipodi:r1="51.413322"
       sodipodi:r2="44.525242"
       sodipodi:arg1="1.0471976"
       sodipodi:arg2="1.5707963"
       inkscape:flatsided="true"
       inkscape:rounded="0"
       inkscape:randomized="0"
       d="m 181.5248,265.1359 -51.41332,0 -25.70666,-44.52525 25.70667,-44.52524 51.41332,0 25.70666,44.52525 z"
       inkscape:transform-center-y="4.6456302e-06" />
    <path
       sodipodi:type="star"
       style="fill:#45b0e5;fill-opacity:1;stroke-width:0.69991118"
       id="path971-3-9-7-5"
       sodipodi:sides="6"
       sodipodi:cx="78.698158"
       sodipodi:cy="176.0854"
       sodipodi:r1="51.413322"
       sodipodi:r2="44.525242"
       sodipodi:arg1="1.0471976"
       sodipodi:arg2="1.5707963"
       inkscape:flatsided="true"
       inkscape:rounded="0"
       inkscape:randomized="0"
       d="m 104.40482,220.61065 -51.413325,0 -25.706659,-44.52525 25.706663,-44.52524 51.413321,0 25.70666,44.52525 z"
       inkscape:transform-center-y="4.6456302e-06" />
    <path
       sodipodi:type="star"
       style="fill:#004466;fill-opacity:1;stroke-width:0.69991118"
       id="path971-3-9-7-5-4"
       sodipodi:sides="6"
       sodipodi:cx="78.698166"
       sodipodi:cy="87.03492"
       sodipodi:r1="51.413322"
       sodipodi:r2="44.525242"
       sodipodi:arg1="1.0471976"
       sodipodi:arg2="1.5707963"
       inkscape:flatsided="true"
       inkscape:rounded="0"
       inkscape:randomized="0"
       d="m 104.40482,131.56016 -51.413318,0 -25.706659,-44.525243 25.706664,-44.525242 51.413323,3e-6 25.70666,44.525244 z"
       inkscape:transform-center-y="4.6456302e-06" />
    <path
       sodipodi:type="star"
       style="fill:#3d5866;fill-opacity:1;stroke-width:0.69991118"
       id="path971-3-9-7-5-4-4"
       sodipodi:sides="6"
       sodipodi:cx="155.81815"
       sodipodi:cy="42.509678"
       sodipodi:r1="51.413322"
       sodipodi:r2="44.525242"
       sodipodi:arg1="1.0471976"
       sodipodi:arg2="1.5707963"
       inkscape:flatsided="true"
       inkscape:rounded="0"
       inkscape:randomized="0"
       d="m 181.5248,87.034922 -51.41332,-2e-6 -25.70666,-44.525245 25.70667,-44.5252417 51.41332,2.5e-6 25.70666,44.5252442 z"
       inkscape:transform-center-y="4.6456302e-06" />
    <path
       sodipodi:type="star"
       style="fill:#6fa0b9;fill-opacity:1;stroke-width:0.69991118"
       id="path971-3-9-7-5-4-4-9"
       sodipodi:sides="6"
       sodipodi:cx="232.93813"
       sodipodi:cy="87.03492"
       sodipodi:r1="51.413322"
       sodipodi:r2="44.525242"
       sodipodi:arg1="1.0471976"
       sodipodi:arg2="1.5707963"
       inkscape:flatsided="true"
       inkscape:rounded="0"
       inkscape:randomized="0"
       d="m 258.64478,131.56016 -51.41332,0 -25.70666,-44.525243 25.70667,-44.525242 51.41332,3e-6 25.70666,44.525244 z"
       inkscape:transform-center-y="4.6456302e-06" />
    <g
       aria-label="Escape Rooms"
       transform="matrix(0.26458333,0,0,0.26458333,66.431448,-75.297407)"
       style="font-style:normal;font-variant:normal;font-weight:normal;font-stretch:normal;font-size:40px;line-height:1.25;font-family:Ubuntu;-inkscape-font-specification:Ubuntu;letter-spacing:0px;word-spacing:0px;fill:#ffffff;fill-opacity:1;stroke:none"
       id="flowRoot817">
      <path
         d="m 210.40387,792.12391 v -27.72 h 16.92 v 3.32 h -13.04 v 8.24 h 11.6 v 3.24 h -11.6 v 9.6 h 14.04 v 3.32 z"
         style="text-align:center;text-anchor:middle;fill:#ffffff"
         id="path1152" />
      <path
         d="m 237.81637,789.44391 q 2.28,0 3.36,-0.6 1.12,-0.6 1.12,-1.92 0,-1.36 -1.08,-2.16 -1.08,-0.8 -3.56,-1.8 -1.2,-0.48 -2.32,-0.96 -1.08,-0.52 -1.88,-1.2 -0.8,-0.68 -1.28,-1.64 -0.48,-0.96 -0.48,-2.36 0,-2.76 2.04,-4.36 2.04,-1.64 5.56,-1.64 0.88,0 1.76,0.12 0.88,0.08 1.64,0.24 0.76,0.12 1.32,0.28 0.6,0.16 0.92,0.28 l -0.68,3.2 q -0.6,-0.32 -1.88,-0.64 -1.28,-0.36 -3.08,-0.36 -1.56,0 -2.72,0.64 -1.16,0.6 -1.16,1.92 0,0.68 0.24,1.2 0.28,0.52 0.8,0.96 0.56,0.4 1.36,0.76 0.8,0.36 1.92,0.76 1.48,0.56 2.64,1.12 1.16,0.52 1.96,1.24 0.84,0.72 1.28,1.76 0.44,1 0.44,2.48 0,2.88 -2.16,4.36 -2.12,1.48 -6.08,1.48 -2.76,0 -4.32,-0.48 -1.56,-0.44 -2.12,-0.68 l 0.68,-3.2 q 0.64,0.24 2.04,0.72 1.4,0.48 3.72,0.48 z"
         style="text-align:center;text-anchor:middle;fill:#ffffff"
         id="path1154" />
      <path
         d="m 259.82887,792.60391 q -2.52,0 -4.44,-0.8 -1.88,-0.8 -3.2,-2.24 -1.28,-1.44 -1.92,-3.4 -0.64,-2 -0.64,-4.4 0,-2.4 0.68,-4.4 0.72,-2 2,-3.44 1.28,-1.48 3.12,-2.28 1.88,-0.84 4.16,-0.84 1.4,0 2.8,0.24 1.4,0.24 2.68,0.76 l -0.84,3.16 q -0.84,-0.4 -1.96,-0.64 -1.08,-0.24 -2.32,-0.24 -3.12,0 -4.8,1.96 -1.64,1.96 -1.64,5.72 0,1.68 0.36,3.08 0.4,1.4 1.2,2.4 0.84,1 2.12,1.56 1.28,0.52 3.12,0.52 1.48,0 2.68,-0.28 1.2,-0.28 1.88,-0.6 l 0.52,3.12 q -0.32,0.2 -0.92,0.4 -0.6,0.16 -1.36,0.28 -0.76,0.16 -1.64,0.24 -0.84,0.12 -1.64,0.12 z"
         style="text-align:center;text-anchor:middle;fill:#ffffff"
         id="path1156" />
      <path
         d="m 276.42262,789.44391 q 1.32,0 2.32,-0.04 1.04,-0.08 1.72,-0.24 v -6.2 q -0.4,-0.2 -1.32,-0.32 -0.88,-0.16 -2.16,-0.16 -0.84,0 -1.8,0.12 -0.92,0.12 -1.72,0.52 -0.76,0.36 -1.28,1.04 -0.52,0.64 -0.52,1.72 0,2 1.28,2.8 1.28,0.76 3.48,0.76 z m -0.32,-18.64 q 2.24,0 3.76,0.6 1.56,0.56 2.48,1.64 0.96,1.04 1.36,2.52 0.4,1.44 0.4,3.2 v 13 q -0.48,0.08 -1.36,0.24 -0.84,0.12 -1.92,0.24 -1.08,0.12 -2.36,0.2 -1.24,0.12 -2.48,0.12 -1.76,0 -3.24,-0.36 -1.48,-0.36 -2.56,-1.12 -1.08,-0.8 -1.68,-2.08 -0.6,-1.28 -0.6,-3.08 0,-1.72 0.68,-2.96 0.72,-1.24 1.92,-2 1.2,-0.76 2.8,-1.12 1.6,-0.36 3.36,-0.36 0.56,0 1.16,0.08 0.6,0.04 1.12,0.16 0.56,0.08 0.96,0.16 0.4,0.08 0.56,0.12 v -1.04 q 0,-0.92 -0.2,-1.8 -0.2,-0.92 -0.72,-1.6 -0.52,-0.72 -1.44,-1.12 -0.88,-0.44 -2.32,-0.44 -1.84,0 -3.24,0.28 -1.36,0.24 -2.04,0.52 l -0.44,-3.08 q 0.72,-0.32 2.4,-0.6 1.68,-0.32 3.64,-0.32 z"
         style="text-align:center;text-anchor:middle;fill:#ffffff"
         id="path1158" />
      <path
         d="m 304.68199,781.76391 q 0,-3.64 -1.8,-5.6 -1.8,-1.96 -4.8,-1.96 -1.68,0 -2.64,0.12 -0.92,0.12 -1.48,0.28 v 13.12 q 0.68,0.56 1.96,1.08 1.28,0.52 2.8,0.52 1.6,0 2.72,-0.56 1.16,-0.6 1.88,-1.6 0.72,-1.04 1.04,-2.4 0.32,-1.4 0.32,-3 z m 3.88,0 q 0,2.36 -0.64,4.36 -0.6,2 -1.8,3.44 -1.2,1.44 -2.96,2.24 -1.72,0.8 -3.96,0.8 -1.8,0 -3.2,-0.48 -1.36,-0.48 -2.04,-0.92 v 8.32 h -3.72 v -27.56 q 1.32,-0.32 3.28,-0.68 2,-0.4 4.6,-0.4 2.4,0 4.32,0.76 1.92,0.76 3.28,2.16 1.36,1.4 2.08,3.44 0.76,2 0.76,4.52 z"
         style="text-align:center;text-anchor:middle;fill:#ffffff"
         id="path1160" />
      <path
         d="m 312.67574,781.76391 q 0,-2.76 0.8,-4.8 0.8,-2.08 2.12,-3.44 1.32,-1.36 3.04,-2.04 1.72,-0.68 3.52,-0.68 4.2,0 6.44,2.64 2.24,2.6 2.24,7.96 0,0.24 0,0.64 0,0.36 -0.04,0.68 h -14.24 q 0.24,3.24 1.88,4.92 1.64,1.68 5.12,1.68 1.96,0 3.28,-0.32 1.36,-0.36 2.04,-0.68 l 0.52,3.12 q -0.68,0.36 -2.4,0.76 -1.68,0.4 -3.84,0.4 -2.72,0 -4.72,-0.8 -1.96,-0.84 -3.24,-2.28 -1.28,-1.44 -1.92,-3.4 -0.6,-2 -0.6,-4.36 z m 14.28,-2.04 q 0.04,-2.52 -1.28,-4.12 -1.28,-1.64 -3.56,-1.64 -1.28,0 -2.28,0.52 -0.96,0.48 -1.64,1.28 -0.68,0.8 -1.08,1.84 -0.36,1.04 -0.48,2.12 z"
         style="text-align:center;text-anchor:middle;fill:#ffffff"
         id="path1162" />
      <path
         d="m 359.19824,780.52391 q 0.64,0.8 1.6,2.12 1,1.28 2.04,2.88 1.04,1.56 2.04,3.28 1.04,1.72 1.76,3.32 h -4.24 q -0.8,-1.52 -1.76,-3.08 -0.92,-1.56 -1.88,-2.96 -0.96,-1.44 -1.92,-2.68 -0.92,-1.24 -1.68,-2.16 -0.52,0.04 -1.08,0.04 -0.52,0 -1.08,0 h -3.48 v 10.84 h -3.88 v -27.32 q 1.64,-0.4 3.64,-0.52 2.04,-0.16 3.72,-0.16 5.84,0 8.88,2.2 3.08,2.2 3.08,6.56 0,2.76 -1.48,4.72 -1.44,1.96 -4.28,2.92 z m -5.88,-13 q -2.48,0 -3.8,0.12 v 10.44 h 2.76 q 2,0 3.6,-0.2 1.6,-0.2 2.68,-0.76 1.12,-0.56 1.72,-1.56 0.6,-1.04 0.6,-2.72 0,-1.56 -0.6,-2.6 -0.6,-1.04 -1.64,-1.64 -1,-0.6 -2.4,-0.84 -1.36,-0.24 -2.92,-0.24 z"
         style="text-align:center;text-anchor:middle;fill:#ffffff"
         id="path1164" />
      <path
         d="m 388.91449,781.72391 q 0,2.48 -0.72,4.48 -0.72,2 -2.04,3.44 -1.28,1.44 -3.08,2.24 -1.8,0.76 -3.92,0.76 -2.12,0 -3.92,-0.76 -1.8,-0.8 -3.12,-2.24 -1.28,-1.44 -2,-3.44 -0.72,-2 -0.72,-4.48 0,-2.44 0.72,-4.44 0.72,-2.04 2,-3.48 1.32,-1.44 3.12,-2.2 1.8,-0.8 3.92,-0.8 2.12,0 3.92,0.8 1.8,0.76 3.08,2.2 1.32,1.44 2.04,3.48 0.72,2 0.72,4.44 z m -3.88,0 q 0,-3.52 -1.6,-5.56 -1.56,-2.08 -4.28,-2.08 -2.72,0 -4.32,2.08 -1.56,2.04 -1.56,5.56 0,3.52 1.56,5.6 1.6,2.04 4.32,2.04 2.72,0 4.28,-2.04 1.6,-2.08 1.6,-5.6 z"
         style="text-align:center;text-anchor:middle;fill:#ffffff"
         id="path1166" />
      <path
         d="m 412.50824,781.72391 q 0,2.48 -0.72,4.48 -0.72,2 -2.04,3.44 -1.28,1.44 -3.08,2.24 -1.8,0.76 -3.92,0.76 -2.12,0 -3.92,-0.76 -1.8,-0.8 -3.12,-2.24 -1.28,-1.44 -2,-3.44 -0.72,-2 -0.72,-4.48 0,-2.44 0.72,-4.44 0.72,-2.04 2,-3.48 1.32,-1.44 3.12,-2.2 1.8,-0.8 3.92,-0.8 2.12,0 3.92,0.8 1.8,0.76 3.08,2.2 1.32,1.44 2.04,3.48 0.72,2 0.72,4.44 z m -3.88,0 q 0,-3.52 -1.6,-5.56 -1.56,-2.08 -4.28,-2.08 -2.72,0 -4.32,2.08 -1.56,2.04 -1.56,5.56 0,3.52 1.56,5.6 1.6,2.04 4.32,2.04 2.72,0 4.28,-2.04 1.6,-2.08 1.6,-5.6 z"
         style="text-align:center;text-anchor:middle;fill:#ffffff"
         id="path1168" />
      <path
         d="m 417.74199,771.92391 q 1.28,-0.32 3.36,-0.68 2.12,-0.36 4.88,-0.36 2,0 3.36,0.56 1.36,0.52 2.28,1.56 0.28,-0.2 0.88,-0.56 0.6,-0.36 1.48,-0.68 0.88,-0.36 1.96,-0.6 1.08,-0.28 2.32,-0.28 2.4,0 3.92,0.72 1.52,0.68 2.36,1.96 0.88,1.28 1.16,3.04 0.32,1.76 0.32,3.84 v 11.68 h -3.72 v -10.88 q 0,-1.84 -0.2,-3.16 -0.16,-1.32 -0.68,-2.2 -0.48,-0.88 -1.36,-1.28 -0.84,-0.44 -2.2,-0.44 -1.88,0 -3.12,0.52 -1.2,0.48 -1.64,0.88 0.32,1.04 0.48,2.28 0.16,1.24 0.16,2.6 v 11.68 h -3.72 v -10.88 q 0,-1.84 -0.2,-3.16 -0.2,-1.32 -0.72,-2.2 -0.48,-0.88 -1.36,-1.28 -0.84,-0.44 -2.16,-0.44 -0.56,0 -1.2,0.04 -0.64,0.04 -1.24,0.12 -0.56,0.04 -1.04,0.12 -0.48,0.08 -0.64,0.12 v 17.56 h -3.72 z"
         style="text-align:center;text-anchor:middle;fill:#ffffff"
         id="path1170" />
      <path
         d="m 457.03512,789.44391 q 2.28,0 3.36,-0.6 1.12,-0.6 1.12,-1.92 0,-1.36 -1.08,-2.16 -1.08,-0.8 -3.56,-1.8 -1.2,-0.48 -2.32,-0.96 -1.08,-0.52 -1.88,-1.2 -0.8,-0.68 -1.28,-1.64 -0.48,-0.96 -0.48,-2.36 0,-2.76 2.04,-4.36 2.04,-1.64 5.56,-1.64 0.88,0 1.76,0.12 0.88,0.08 1.64,0.24 0.76,0.12 1.32,0.28 0.6,0.16 0.92,0.28 l -0.68,3.2 q -0.6,-0.32 -1.88,-0.64 -1.28,-0.36 -3.08,-0.36 -1.56,0 -2.72,0.64 -1.16,0.6 -1.16,1.92 0,0.68 0.24,1.2 0.28,0.52 0.8,0.96 0.56,0.4 1.36,0.76 0.8,0.36 1.92,0.76 1.48,0.56 2.64,1.12 1.16,0.52 1.96,1.24 0.84,0.72 1.28,1.76 0.44,1 0.44,2.48 0,2.88 -2.16,4.36 -2.12,1.48 -6.08,1.48 -2.76,0 -4.32,-0.48 -1.56,-0.44 -2.12,-0.68 l 0.68,-3.2 q 0.64,0.24 2.04,0.72 1.4,0.48 3.72,0.48 z"
         style="text-align:center;text-anchor:middle;fill:#ffffff"
         id="path1172" />
    </g>
    <g
       aria-label="Point-and-Click Adventures"
       transform="matrix(0.26458333,0,0,0.26458333,152.03498,-125.11961)"
       style="font-style:normal;font-variant:normal;font-weight:normal;font-stretch:normal;font-size:40px;line-height:1.25;font-family:Ubuntu;-inkscape-font-specification:Ubuntu;text-align:center;letter-spacing:0px;word-spacing:0px;text-anchor:middle;fill:#ffffff;fill-opacity:1;stroke:none"
       id="flowRoot817-5">
      <path
         d="m 179.1916,764.12391 q 5.84,0 8.96,2.24 3.16,2.2 3.16,6.6 0,2.4 -0.88,4.12 -0.84,1.68 -2.48,2.76 -1.6,1.04 -3.92,1.52 -2.32,0.48 -5.24,0.48 h -3.08 v 10.28 h -3.88 v -27.32 q 1.64,-0.4 3.64,-0.52 2.04,-0.16 3.72,-0.16 z m 0.32,3.4 q -2.48,0 -3.8,0.12 v 10.88 h 2.92 q 2,0 3.6,-0.24 1.6,-0.28 2.68,-0.88 1.12,-0.64 1.72,-1.72 0.6,-1.08 0.6,-2.76 0,-1.6 -0.64,-2.64 -0.6,-1.04 -1.68,-1.64 -1.04,-0.64 -2.44,-0.88 -1.4,-0.24 -2.96,-0.24 z"
         style=""
         id="path1285" />
      <path
         d="m 213.3891,781.72391 q 0,2.48 -0.72,4.48 -0.72,2 -2.04,3.44 -1.28,1.44 -3.08,2.24 -1.8,0.76 -3.92,0.76 -2.12,0 -3.92,-0.76 -1.8,-0.8 -3.12,-2.24 -1.28,-1.44 -2,-3.44 -0.72,-2 -0.72,-4.48 0,-2.44 0.72,-4.44 0.72,-2.04 2,-3.48 1.32,-1.44 3.12,-2.2 1.8,-0.8 3.92,-0.8 2.12,0 3.92,0.8 1.8,0.76 3.08,2.2 1.32,1.44 2.04,3.48 0.72,2 0.72,4.44 z m -3.88,0 q 0,-3.52 -1.6,-5.56 -1.56,-2.08 -4.28,-2.08 -2.72,0 -4.32,2.08 -1.56,2.04 -1.56,5.56 0,3.52 1.56,5.6 1.6,2.04 4.32,2.04 2.72,0 4.28,-2.04 1.6,-2.08 1.6,-5.6 z"
         style=""
         id="path1287" />
      <path
         d="m 222.34285,792.12391 h -3.72 v -20.8 h 3.72 z m -1.88,-24.56 q -1,0 -1.72,-0.64 -0.68,-0.68 -0.68,-1.8 0,-1.12 0.68,-1.76 0.72,-0.68 1.72,-0.68 1,0 1.68,0.68 0.72,0.64 0.72,1.76 0,1.12 -0.72,1.8 -0.68,0.64 -1.68,0.64 z"
         style=""
         id="path1289" />
      <path
         d="m 228.7791,771.92391 q 1.28,-0.32 3.4,-0.68 2.12,-0.36 4.88,-0.36 2.48,0 4.12,0.72 1.64,0.68 2.6,1.96 1,1.24 1.4,3 0.4,1.76 0.4,3.88 v 11.68 h -3.72 v -10.88 q 0,-1.92 -0.28,-3.28 -0.24,-1.36 -0.84,-2.2 -0.6,-0.84 -1.6,-1.2 -1,-0.4 -2.48,-0.4 -0.6,0 -1.24,0.04 -0.64,0.04 -1.24,0.12 -0.56,0.04 -1.04,0.12 -0.44,0.08 -0.64,0.12 v 17.56 h -3.72 z"
         style=""
         id="path1291" />
      <path
         d="m 255.22785,771.32391 h 7.88 v 3.12 h -7.88 v 9.6 q 0,1.56 0.24,2.6 0.24,1 0.72,1.6 0.48,0.56 1.2,0.8 0.72,0.24 1.68,0.24 1.68,0 2.68,-0.36 1.04,-0.4 1.44,-0.56 l 0.72,3.08 q -0.56,0.28 -1.96,0.68 -1.4,0.44 -3.2,0.44 -2.12,0 -3.52,-0.52 -1.36,-0.56 -2.2,-1.64 -0.84,-1.08 -1.2,-2.64 -0.32,-1.6 -0.32,-3.68 v -18.56 l 3.72,-0.64 z"
         style=""
         id="path1293" />
      <path
         d="m 264.1191,778.40391 h 9.88 v 3.48 h -9.88 z"
         style=""
         id="path1295" />
      <path
         d="m 285.27223,789.44391 q 1.32,0 2.32,-0.04 1.04,-0.08 1.72,-0.24 v -6.2 q -0.4,-0.2 -1.32,-0.32 -0.88,-0.16 -2.16,-0.16 -0.84,0 -1.8,0.12 -0.92,0.12 -1.72,0.52 -0.76,0.36 -1.28,1.04 -0.52,0.64 -0.52,1.72 0,2 1.28,2.8 1.28,0.76 3.48,0.76 z m -0.32,-18.64 q 2.24,0 3.76,0.6 1.56,0.56 2.48,1.64 0.96,1.04 1.36,2.52 0.4,1.44 0.4,3.2 v 13 q -0.48,0.08 -1.36,0.24 -0.84,0.12 -1.92,0.24 -1.08,0.12 -2.36,0.2 -1.24,0.12 -2.48,0.12 -1.76,0 -3.24,-0.36 -1.48,-0.36 -2.56,-1.12 -1.08,-0.8 -1.68,-2.08 -0.6,-1.28 -0.6,-3.08 0,-1.72 0.68,-2.96 0.72,-1.24 1.92,-2 1.2,-0.76 2.8,-1.12 1.6,-0.36 3.36,-0.36 0.56,0 1.16,0.08 0.6,0.04 1.12,0.16 0.56,0.08 0.96,0.16 0.4,0.08 0.56,0.12 v -1.04 q 0,-0.92 -0.2,-1.8 -0.2,-0.92 -0.72,-1.6 -0.52,-0.72 -1.44,-1.12 -0.88,-0.44 -2.32,-0.44 -1.84,0 -3.24,0.28 -1.36,0.24 -2.04,0.52 l -0.44,-3.08 q 0.72,-0.32 2.4,-0.6 1.68,-0.32 3.64,-0.32 z"
         style=""
         id="path1297" />
      <path
         d="m 299.0916,771.92391 q 1.28,-0.32 3.4,-0.68 2.12,-0.36 4.88,-0.36 2.48,0 4.12,0.72 1.64,0.68 2.6,1.96 1,1.24 1.4,3 0.4,1.76 0.4,3.88 v 11.68 h -3.72 v -10.88 q 0,-1.92 -0.28,-3.28 -0.24,-1.36 -0.84,-2.2 -0.6,-0.84 -1.6,-1.2 -1,-0.4 -2.48,-0.4 -0.6,0 -1.24,0.04 -0.64,0.04 -1.24,0.12 -0.56,0.04 -1.04,0.12 -0.44,0.08 -0.64,0.12 v 17.56 h -3.72 z"
         style=""
         id="path1299" />
      <path
         d="m 335.50035,775.72391 q -0.68,-0.56 -1.96,-1.08 -1.28,-0.52 -2.8,-0.52 -1.6,0 -2.76,0.6 -1.12,0.56 -1.84,1.6 -0.72,1 -1.04,2.4 -0.32,1.4 -0.32,3 0,3.64 1.8,5.64 1.8,1.96 4.8,1.96 1.52,0 2.52,-0.12 1.04,-0.16 1.6,-0.32 z m 0,-14 3.72,-0.64 v 30.44 q -1.28,0.36 -3.28,0.72 -2,0.36 -4.6,0.36 -2.4,0 -4.32,-0.76 -1.92,-0.76 -3.28,-2.16 -1.36,-1.4 -2.12,-3.4 -0.72,-2.04 -0.72,-4.56 0,-2.4 0.6,-4.4 0.64,-2 1.84,-3.44 1.2,-1.44 2.92,-2.24 1.76,-0.8 4,-0.8 1.8,0 3.16,0.48 1.4,0.48 2.08,0.92 z"
         style=""
         id="path1301" />
      <path
         d="m 343.4941,778.40391 h 9.88 v 3.48 h -9.88 z"
         style=""
         id="path1303" />
      <path
         d="m 369.76723,792.72391 q -2.92,0 -5.32,-0.96 -2.4,-0.96 -4.12,-2.8 -1.72,-1.84 -2.68,-4.52 -0.92,-2.72 -0.92,-6.2 0,-3.48 1.04,-6.16 1.08,-2.72 2.88,-4.56 1.8,-1.84 4.2,-2.8 2.4,-0.96 5.12,-0.96 1.72,0 3.08,0.24 1.4,0.24 2.4,0.56 1.04,0.32 1.68,0.64 0.64,0.32 0.88,0.48 l -1.12,3.2 q -0.36,-0.24 -1.04,-0.52 -0.68,-0.28 -1.56,-0.56 -0.84,-0.28 -1.88,-0.44 -1,-0.2 -2.04,-0.2 -2.2,0 -3.96,0.76 -1.76,0.76 -3,2.2 -1.24,1.44 -1.92,3.52 -0.64,2.04 -0.64,4.6 0,2.48 0.56,4.52 0.6,2.04 1.76,3.52 1.16,1.44 2.88,2.24 1.76,0.8 4.08,0.8 2.68,0 4.44,-0.56 1.76,-0.56 2.64,-1 l 1,3.2 q -0.28,0.2 -1,0.52 -0.72,0.28 -1.8,0.56 -1.08,0.28 -2.52,0.48 -1.44,0.2 -3.12,0.2 z"
         style=""
         id="path1305" />
      <path
         d="m 388.61285,792.52391 q -3.44,-0.08 -4.88,-1.48 -1.44,-1.4 -1.44,-4.36 v -24.96 l 3.72,-0.64 v 25 q 0,0.92 0.16,1.52 0.16,0.6 0.52,0.96 0.36,0.36 0.96,0.56 0.6,0.16 1.48,0.28 z"
         style=""
         id="path1307" />
      <path
         d="m 397.03035,792.12391 h -3.72 v -20.8 h 3.72 z m -1.88,-24.56 q -1,0 -1.72,-0.64 -0.68,-0.68 -0.68,-1.8 0,-1.12 0.68,-1.76 0.72,-0.68 1.72,-0.68 1,0 1.68,0.68 0.72,0.64 0.72,1.76 0,1.12 -0.72,1.8 -0.68,0.64 -1.68,0.64 z"
         style=""
         id="path1309" />
      <path
         d="m 412.5066,792.60391 q -2.52,0 -4.44,-0.8 -1.88,-0.8 -3.2,-2.24 -1.28,-1.44 -1.92,-3.4 -0.64,-2 -0.64,-4.4 0,-2.4 0.68,-4.4 0.72,-2 2,-3.44 1.28,-1.48 3.12,-2.28 1.88,-0.84 4.16,-0.84 1.4,0 2.8,0.24 1.4,0.24 2.68,0.76 l -0.84,3.16 q -0.84,-0.4 -1.96,-0.64 -1.08,-0.24 -2.32,-0.24 -3.12,0 -4.8,1.96 -1.64,1.96 -1.64,5.72 0,1.68 0.36,3.08 0.4,1.4 1.2,2.4 0.84,1 2.12,1.56 1.28,0.52 3.12,0.52 1.48,0 2.68,-0.28 1.2,-0.28 1.88,-0.6 l 0.52,3.12 q -0.32,0.2 -0.92,0.4 -0.6,0.16 -1.36,0.28 -0.76,0.16 -1.64,0.24 -0.84,0.12 -1.64,0.12 z"
         style=""
         id="path1311" />
      <path
         d="m 429.58035,780.68391 q 1.2,0.92 2.52,2.28 1.36,1.36 2.64,2.96 1.32,1.56 2.48,3.2 1.16,1.6 1.96,3 h -4.36 q -0.84,-1.4 -1.96,-2.84 -1.08,-1.48 -2.28,-2.8 -1.2,-1.36 -2.44,-2.48 -1.24,-1.12 -2.36,-1.88 v 10 h -3.72 v -30.4 l 3.72,-0.64 v 18.96 q 0.96,-0.96 2.12,-2.12 1.16,-1.16 2.28,-2.36 1.12,-1.2 2.12,-2.28 1,-1.12 1.72,-1.96 h 4.36 q -0.92,1 -2,2.2 -1.08,1.2 -2.24,2.44 -1.16,1.2 -2.36,2.44 -1.16,1.2 -2.2,2.28 z"
         style=""
         id="path1313" />
      <path
         d="m 221.48441,842.12391 q -0.68,-1.8 -1.28,-3.52 -0.6,-1.76 -1.24,-3.56 h -12.56 l -2.52,7.08 h -4.04 q 1.6,-4.4 3,-8.12 1.4,-3.76 2.72,-7.12 1.36,-3.36 2.68,-6.4 1.32,-3.08 2.76,-6.08 h 3.56 q 1.44,3 2.76,6.08 1.32,3.04 2.64,6.4 1.36,3.36 2.76,7.12 1.4,3.72 3,8.12 z m -3.64,-10.28 q -1.28,-3.48 -2.56,-6.72 -1.24,-3.28 -2.6,-6.28 -1.4,3 -2.68,6.28 -1.24,3.24 -2.48,6.72 z"
         style=""
         id="path1315" />
      <path
         d="m 242.10191,825.72391 q -0.68,-0.56 -1.96,-1.08 -1.28,-0.52 -2.8,-0.52 -1.6,0 -2.76,0.6 -1.12,0.56 -1.84,1.6 -0.72,1 -1.04,2.4 -0.32,1.4 -0.32,3 0,3.64 1.8,5.64 1.8,1.96 4.8,1.96 1.52,0 2.52,-0.12 1.04,-0.16 1.6,-0.32 z m 0,-14 3.72,-0.64 v 30.44 q -1.28,0.36 -3.28,0.72 -2,0.36 -4.6,0.36 -2.4,0 -4.32,-0.76 -1.92,-0.76 -3.28,-2.16 -1.36,-1.4 -2.12,-3.4 -0.72,-2.04 -0.72,-4.56 0,-2.4 0.6,-4.4 0.64,-2 1.84,-3.44 1.2,-1.44 2.92,-2.24 1.76,-0.8 4,-0.8 1.8,0 3.16,0.48 1.4,0.48 2.08,0.92 z"
         style=""
         id="path1317" />
      <path
         d="m 268.49566,821.32391 q -1.56,5.84 -3.68,11.2 -2.08,5.36 -4.04,9.6 h -3.36 q -1.96,-4.24 -4.08,-9.6 -2.08,-5.36 -3.64,-11.2 h 4 q 0.48,1.96 1.12,4.2 0.68,2.2 1.4,4.4 0.76,2.16 1.52,4.2 0.76,2.04 1.44,3.64 0.68,-1.6 1.44,-3.64 0.76,-2.04 1.48,-4.2 0.76,-2.2 1.4,-4.4 0.68,-2.24 1.16,-4.2 z"
         style=""
         id="path1319" />
      <path
         d="m 270.62691,831.76391 q 0,-2.76 0.8,-4.8 0.8,-2.08 2.12,-3.44 1.32,-1.36 3.04,-2.04 1.72,-0.68 3.52,-0.68 4.2,0 6.44,2.64 2.24,2.6 2.24,7.96 0,0.24 0,0.64 0,0.36 -0.04,0.68 h -14.24 q 0.24,3.24 1.88,4.92 1.64,1.68 5.12,1.68 1.96,0 3.28,-0.32 1.36,-0.36 2.04,-0.68 l 0.52,3.12 q -0.68,0.36 -2.4,0.76 -1.68,0.4 -3.84,0.4 -2.72,0 -4.72,-0.8 -1.96,-0.84 -3.24,-2.28 -1.28,-1.44 -1.92,-3.4 -0.6,-2 -0.6,-4.36 z m 14.28,-2.04 q 0.04,-2.52 -1.28,-4.12 -1.28,-1.64 -3.56,-1.64 -1.28,0 -2.28,0.52 -0.96,0.48 -1.64,1.28 -0.68,0.8 -1.08,1.84 -0.36,1.04 -0.48,2.12 z"
         style=""
         id="path1321" />
      <path
         d="m 294.13066,821.92391 q 1.28,-0.32 3.4,-0.68 2.12,-0.36 4.88,-0.36 2.48,0 4.12,0.72 1.64,0.68 2.6,1.96 1,1.24 1.4,3 0.4,1.76 0.4,3.88 v 11.68 h -3.72 v -10.88 q 0,-1.92 -0.28,-3.28 -0.24,-1.36 -0.84,-2.2 -0.6,-0.84 -1.6,-1.2 -1,-0.4 -2.48,-0.4 -0.6,0 -1.24,0.04 -0.64,0.04 -1.24,0.12 -0.56,0.04 -1.04,0.12 -0.44,0.08 -0.64,0.12 v 17.56 h -3.72 z"
         style=""
         id="path1323" />
      <path
         d="m 320.57941,821.32391 h 7.88 v 3.12 h -7.88 v 9.6 q 0,1.56 0.24,2.6 0.24,1 0.72,1.6 0.48,0.56 1.2,0.8 0.72,0.24 1.68,0.24 1.68,0 2.68,-0.36 1.04,-0.4 1.44,-0.56 l 0.72,3.08 q -0.56,0.28 -1.96,0.68 -1.4,0.44 -3.2,0.44 -2.12,0 -3.52,-0.52 -1.36,-0.56 -2.2,-1.64 -0.84,-1.08 -1.2,-2.64 -0.32,-1.6 -0.32,-3.68 v -18.56 l 3.72,-0.64 z"
         style=""
         id="path1325" />
      <path
         d="m 349.75316,841.52391 q -1.28,0.32 -3.4,0.68 -2.08,0.36 -4.84,0.36 -2.4,0 -4.04,-0.68 -1.64,-0.72 -2.64,-2 -1,-1.28 -1.44,-3 -0.44,-1.76 -0.44,-3.88 v -11.68 h 3.72 v 10.88 q 0,3.8 1.2,5.44 1.2,1.64 4.04,1.64 0.6,0 1.24,-0.04 0.64,-0.04 1.2,-0.08 0.56,-0.08 1,-0.12 0.48,-0.08 0.68,-0.16 v -17.56 h 3.72 z"
         style=""
         id="path1327" />
      <path
         d="m 363.84191,820.88391 q 0.48,0 1.08,0.08 0.64,0.04 1.24,0.16 0.6,0.08 1.08,0.2 0.52,0.08 0.76,0.16 l -0.64,3.24 q -0.44,-0.16 -1.48,-0.36 -1,-0.24 -2.6,-0.24 -1.04,0 -2.08,0.24 -1,0.2 -1.32,0.28 v 17.48 h -3.72 v -19.92 q 1.32,-0.48 3.28,-0.88 1.96,-0.44 4.4,-0.44 z"
         style=""
         id="path1329" />
      <path
         d="m 370.47066,831.76391 q 0,-2.76 0.8,-4.8 0.8,-2.08 2.12,-3.44 1.32,-1.36 3.04,-2.04 1.72,-0.68 3.52,-0.68 4.2,0 6.44,2.64 2.24,2.6 2.24,7.96 0,0.24 0,0.64 0,0.36 -0.04,0.68 h -14.24 q 0.24,3.24 1.88,4.92 1.64,1.68 5.12,1.68 1.96,0 3.28,-0.32 1.36,-0.36 2.04,-0.68 l 0.52,3.12 q -0.68,0.36 -2.4,0.76 -1.68,0.4 -3.84,0.4 -2.72,0 -4.72,-0.8 -1.96,-0.84 -3.24,-2.28 -1.28,-1.44 -1.92,-3.4 -0.6,-2 -0.6,-4.36 z m 14.28,-2.04 q 0.04,-2.52 -1.28,-4.12 -1.28,-1.64 -3.56,-1.64 -1.28,0 -2.28,0.52 -0.96,0.48 -1.64,1.28 -0.68,0.8 -1.08,1.84 -0.36,1.04 -0.48,2.12 z"
         style=""
         id="path1331" />
      <path
         d="m 398.81441,839.44391 q 2.28,0 3.36,-0.6 1.12,-0.6 1.12,-1.92 0,-1.36 -1.08,-2.16 -1.08,-0.8 -3.56,-1.8 -1.2,-0.48 -2.32,-0.96 -1.08,-0.52 -1.88,-1.2 -0.8,-0.68 -1.28,-1.64 -0.48,-0.96 -0.48,-2.36 0,-2.76 2.04,-4.36 2.04,-1.64 5.56,-1.64 0.88,0 1.76,0.12 0.88,0.08 1.64,0.24 0.76,0.12 1.32,0.28 0.6,0.16 0.92,0.28 l -0.68,3.2 q -0.6,-0.32 -1.88,-0.64 -1.28,-0.36 -3.08,-0.36 -1.56,0 -2.72,0.64 -1.16,0.6 -1.16,1.92 0,0.68 0.24,1.2 0.28,0.52 0.8,0.96 0.56,0.4 1.36,0.76 0.8,0.36 1.92,0.76 1.48,0.56 2.64,1.12 1.16,0.52 1.96,1.24 0.84,0.72 1.28,1.76 0.44,1 0.44,2.48 0,2.88 -2.16,4.36 -2.12,1.48 -6.08,1.48 -2.76,0 -4.32,-0.48 -1.56,-0.44 -2.12,-0.68 l 0.68,-3.2 q 0.64,0.24 2.04,0.72 1.4,0.48 3.72,0.48 z"
         style=""
         id="path1333" />
    </g>
    <g
       aria-label="Puzzle/Treasure Hunts"
       transform="matrix(0.26458333,0,0,0.26458333,148.42693,-36.032086)"
       style="font-style:normal;font-variant:normal;font-weight:normal;font-stretch:normal;font-size:40px;line-height:1.25;font-family:Ubuntu;-inkscape-font-specification:Ubuntu;text-align:center;letter-spacing:0px;word-spacing:0px;text-anchor:middle;fill:#ffffff;fill-opacity:1;stroke:none"
       id="flowRoot817-5-0">
      <path
         d="m 181.96895,764.12391 q 5.84,0 8.96,2.24 3.16,2.2 3.16,6.6 0,2.4 -0.88,4.12 -0.84,1.68 -2.48,2.76 -1.6,1.04 -3.92,1.52 -2.32,0.48 -5.24,0.48 h -3.08 v 10.28 h -3.88 v -27.32 q 1.64,-0.4 3.64,-0.52 2.04,-0.16 3.72,-0.16 z m 0.32,3.4 q -2.48,0 -3.8,0.12 v 10.88 h 2.92 q 2,0 3.6,-0.24 1.6,-0.28 2.68,-0.88 1.12,-0.64 1.72,-1.72 0.6,-1.08 0.6,-2.76 0,-1.6 -0.64,-2.64 -0.6,-1.04 -1.68,-1.64 -1.04,-0.64 -2.44,-0.88 -1.4,-0.24 -2.96,-0.24 z"
         style=""
         id="path1244" />
      <path
         d="m 215.22582,791.52391 q -1.28,0.32 -3.4,0.68 -2.08,0.36 -4.84,0.36 -2.4,0 -4.04,-0.68 -1.64,-0.72 -2.64,-2 -1,-1.28 -1.44,-3 -0.44,-1.76 -0.44,-3.88 v -11.68 h 3.72 v 10.88 q 0,3.8 1.2,5.44 1.2,1.64 4.04,1.64 0.6,0 1.24,-0.04 0.64,-0.04 1.2,-0.08 0.56,-0.08 1,-0.12 0.48,-0.08 0.68,-0.16 v -17.56 h 3.72 z"
         style=""
         id="path1246" />
      <path
         d="m 235.43457,774.12391 q -0.84,0.92 -2.24,2.6 -1.36,1.68 -2.96,3.72 -1.56,2.04 -3.16,4.28 -1.56,2.24 -2.76,4.28 h 11.44 v 3.12 h -15.88 v -2.48 q 0.96,-1.76 2.36,-3.88 1.4,-2.12 2.92,-4.2 1.56,-2.12 3,-3.96 1.48,-1.88 2.56,-3.16 h -10.28 v -3.12 h 15 z"
         style=""
         id="path1248" />
      <path
         d="m 254.2627,774.12391 q -0.84,0.92 -2.24,2.6 -1.36,1.68 -2.96,3.72 -1.56,2.04 -3.16,4.28 -1.56,2.24 -2.76,4.28 h 11.44 v 3.12 h -15.88 v -2.48 q 0.96,-1.76 2.36,-3.88 1.4,-2.12 2.92,-4.2 1.56,-2.12 3,-3.96 1.48,-1.88 2.56,-3.16 h -10.28 v -3.12 h 15 z"
         style=""
         id="path1250" />
      <path
         d="m 265.53082,792.52391 q -3.44,-0.08 -4.88,-1.48 -1.44,-1.4 -1.44,-4.36 v -24.96 l 3.72,-0.64 v 25 q 0,0.92 0.16,1.52 0.16,0.6 0.52,0.96 0.36,0.36 0.96,0.56 0.6,0.16 1.48,0.28 z"
         style=""
         id="path1252" />
      <path
         d="m 269.06832,781.76391 q 0,-2.76 0.8,-4.8 0.8,-2.08 2.12,-3.44 1.32,-1.36 3.04,-2.04 1.72,-0.68 3.52,-0.68 4.2,0 6.44,2.64 2.24,2.6 2.24,7.96 0,0.24 0,0.64 0,0.36 -0.04,0.68 h -14.24 q 0.24,3.24 1.88,4.92 1.64,1.68 5.12,1.68 1.96,0 3.28,-0.32 1.36,-0.36 2.04,-0.68 l 0.52,3.12 q -0.68,0.36 -2.4,0.76 -1.68,0.4 -3.84,0.4 -2.72,0 -4.72,-0.8 -1.96,-0.84 -3.24,-2.28 -1.28,-1.44 -1.92,-3.4 -0.6,-2 -0.6,-4.36 z m 14.28,-2.04 q 0.04,-2.52 -1.28,-4.12 -1.28,-1.64 -3.56,-1.64 -1.28,0 -2.28,0.52 -0.96,0.48 -1.64,1.28 -0.68,0.8 -1.08,1.84 -0.36,1.04 -0.48,2.12 z"
         style=""
         id="path1254" />
      <path
         d="m 292.21207,799.52391 h -3.8 l 13.56,-38.72 h 3.72 z"
         style=""
         id="path1256" />
      <path
         d="m 327.89457,764.40391 v 3.36 h -8.72 v 24.36 h -3.88 v -24.36 h -8.72 v -3.36 z"
         style=""
         id="path1258" />
      <path
         d="m 337.8302,770.88391 q 0.48,0 1.08,0.08 0.64,0.04 1.24,0.16 0.6,0.08 1.08,0.2 0.52,0.08 0.76,0.16 l -0.64,3.24 q -0.44,-0.16 -1.48,-0.36 -1,-0.24 -2.6,-0.24 -1.04,0 -2.08,0.24 -1,0.2 -1.32,0.28 v 17.48 h -3.72 v -19.92 q 1.32,-0.48 3.28,-0.88 1.96,-0.44 4.4,-0.44 z"
         style=""
         id="path1260" />
      <path
         d="m 344.45895,781.76391 q 0,-2.76 0.8,-4.8 0.8,-2.08 2.12,-3.44 1.32,-1.36 3.04,-2.04 1.72,-0.68 3.52,-0.68 4.2,0 6.44,2.64 2.24,2.6 2.24,7.96 0,0.24 0,0.64 0,0.36 -0.04,0.68 h -14.24 q 0.24,3.24 1.88,4.92 1.64,1.68 5.12,1.68 1.96,0 3.28,-0.32 1.36,-0.36 2.04,-0.68 l 0.52,3.12 q -0.68,0.36 -2.4,0.76 -1.68,0.4 -3.84,0.4 -2.72,0 -4.72,-0.8 -1.96,-0.84 -3.24,-2.28 -1.28,-1.44 -1.92,-3.4 -0.6,-2 -0.6,-4.36 z m 14.28,-2.04 q 0.04,-2.52 -1.28,-4.12 -1.28,-1.64 -3.56,-1.64 -1.28,0 -2.28,0.52 -0.96,0.48 -1.64,1.28 -0.68,0.8 -1.08,1.84 -0.36,1.04 -0.48,2.12 z"
         style=""
         id="path1262" />
      <path
         d="m 375.0027,789.44391 q 1.32,0 2.32,-0.04 1.04,-0.08 1.72,-0.24 v -6.2 q -0.4,-0.2 -1.32,-0.32 -0.88,-0.16 -2.16,-0.16 -0.84,0 -1.8,0.12 -0.92,0.12 -1.72,0.52 -0.76,0.36 -1.28,1.04 -0.52,0.64 -0.52,1.72 0,2 1.28,2.8 1.28,0.76 3.48,0.76 z m -0.32,-18.64 q 2.24,0 3.76,0.6 1.56,0.56 2.48,1.64 0.96,1.04 1.36,2.52 0.4,1.44 0.4,3.2 v 13 q -0.48,0.08 -1.36,0.24 -0.84,0.12 -1.92,0.24 -1.08,0.12 -2.36,0.2 -1.24,0.12 -2.48,0.12 -1.76,0 -3.24,-0.36 -1.48,-0.36 -2.56,-1.12 -1.08,-0.8 -1.68,-2.08 -0.6,-1.28 -0.6,-3.08 0,-1.72 0.68,-2.96 0.72,-1.24 1.92,-2 1.2,-0.76 2.8,-1.12 1.6,-0.36 3.36,-0.36 0.56,0 1.16,0.08 0.6,0.04 1.12,0.16 0.56,0.08 0.96,0.16 0.4,0.08 0.56,0.12 v -1.04 q 0,-0.92 -0.2,-1.8 -0.2,-0.92 -0.72,-1.6 -0.52,-0.72 -1.44,-1.12 -0.88,-0.44 -2.32,-0.44 -1.84,0 -3.24,0.28 -1.36,0.24 -2.04,0.52 l -0.44,-3.08 q 0.72,-0.32 2.4,-0.6 1.68,-0.32 3.64,-0.32 z"
         style=""
         id="path1264" />
      <path
         d="m 393.66207,789.44391 q 2.28,0 3.36,-0.6 1.12,-0.6 1.12,-1.92 0,-1.36 -1.08,-2.16 -1.08,-0.8 -3.56,-1.8 -1.2,-0.48 -2.32,-0.96 -1.08,-0.52 -1.88,-1.2 -0.8,-0.68 -1.28,-1.64 -0.48,-0.96 -0.48,-2.36 0,-2.76 2.04,-4.36 2.04,-1.64 5.56,-1.64 0.88,0 1.76,0.12 0.88,0.08 1.64,0.24 0.76,0.12 1.32,0.28 0.6,0.16 0.92,0.28 l -0.68,3.2 q -0.6,-0.32 -1.88,-0.64 -1.28,-0.36 -3.08,-0.36 -1.56,0 -2.72,0.64 -1.16,0.6 -1.16,1.92 0,0.68 0.24,1.2 0.28,0.52 0.8,0.96 0.56,0.4 1.36,0.76 0.8,0.36 1.92,0.76 1.48,0.56 2.64,1.12 1.16,0.52 1.96,1.24 0.84,0.72 1.28,1.76 0.44,1 0.44,2.48 0,2.88 -2.16,4.36 -2.12,1.48 -6.08,1.48 -2.76,0 -4.32,-0.48 -1.56,-0.44 -2.12,-0.68 l 0.68,-3.2 q 0.64,0.24 2.04,0.72 1.4,0.48 3.72,0.48 z"
         style=""
         id="path1266" />
      <path
         d="m 423.19457,791.52391 q -1.28,0.32 -3.4,0.68 -2.08,0.36 -4.84,0.36 -2.4,0 -4.04,-0.68 -1.64,-0.72 -2.64,-2 -1,-1.28 -1.44,-3 -0.44,-1.76 -0.44,-3.88 v -11.68 h 3.72 v 10.88 q 0,3.8 1.2,5.44 1.2,1.64 4.04,1.64 0.6,0 1.24,-0.04 0.64,-0.04 1.2,-0.08 0.56,-0.08 1,-0.12 0.48,-0.08 0.68,-0.16 v -17.56 h 3.72 z"
         style=""
         id="path1268" />
      <path
         d="m 437.28332,770.88391 q 0.48,0 1.08,0.08 0.64,0.04 1.24,0.16 0.6,0.08 1.08,0.2 0.52,0.08 0.76,0.16 l -0.64,3.24 q -0.44,-0.16 -1.48,-0.36 -1,-0.24 -2.6,-0.24 -1.04,0 -2.08,0.24 -1,0.2 -1.32,0.28 v 17.48 h -3.72 v -19.92 q 1.32,-0.48 3.28,-0.88 1.96,-0.44 4.4,-0.44 z"
         style=""
         id="path1270" />
      <path
         d="m 443.91207,781.76391 q 0,-2.76 0.8,-4.8 0.8,-2.08 2.12,-3.44 1.32,-1.36 3.04,-2.04 1.72,-0.68 3.52,-0.68 4.2,0 6.44,2.64 2.24,2.6 2.24,7.96 0,0.24 0,0.64 0,0.36 -0.04,0.68 h -14.24 q 0.24,3.24 1.88,4.92 1.64,1.68 5.12,1.68 1.96,0 3.28,-0.32 1.36,-0.36 2.04,-0.68 l 0.52,3.12 q -0.68,0.36 -2.4,0.76 -1.68,0.4 -3.84,0.4 -2.72,0 -4.72,-0.8 -1.96,-0.84 -3.24,-2.28 -1.28,-1.44 -1.92,-3.4 -0.6,-2 -0.6,-4.36 z m 14.28,-2.04 q 0.04,-2.52 -1.28,-4.12 -1.28,-1.64 -3.56,-1.64 -1.28,0 -2.28,0.52 -0.96,0.48 -1.64,1.28 -0.68,0.8 -1.08,1.84 -0.36,1.04 -0.48,2.12 z"
         style=""
         id="path1272" />
      <path
         d="m 284.54895,814.40391 h 3.88 v 27.72 h -3.88 v -12.8 h -13.56 v 12.8 h -3.88 v -27.72 h 3.88 v 11.56 h 13.56 z"
         style=""
         id="path1274" />
      <path
         d="m 311.63207,841.52391 q -1.28,0.32 -3.4,0.68 -2.08,0.36 -4.84,0.36 -2.4,0 -4.04,-0.68 -1.64,-0.72 -2.64,-2 -1,-1.28 -1.44,-3 -0.44,-1.76 -0.44,-3.88 v -11.68 h 3.72 v 10.88 q 0,3.8 1.2,5.44 1.2,1.64 4.04,1.64 0.6,0 1.24,-0.04 0.64,-0.04 1.2,-0.08 0.56,-0.08 1,-0.12 0.48,-0.08 0.68,-0.16 v -17.56 h 3.72 z"
         style=""
         id="path1276" />
      <path
         d="m 318.04082,821.92391 q 1.28,-0.32 3.4,-0.68 2.12,-0.36 4.88,-0.36 2.48,0 4.12,0.72 1.64,0.68 2.6,1.96 1,1.24 1.4,3 0.4,1.76 0.4,3.88 v 11.68 h -3.72 v -10.88 q 0,-1.92 -0.28,-3.28 -0.24,-1.36 -0.84,-2.2 -0.6,-0.84 -1.6,-1.2 -1,-0.4 -2.48,-0.4 -0.6,0 -1.24,0.04 -0.64,0.04 -1.24,0.12 -0.56,0.04 -1.04,0.12 -0.44,0.08 -0.64,0.12 v 17.56 h -3.72 z"
         style=""
         id="path1278" />
      <path
         d="m 344.48957,821.32391 h 7.88 v 3.12 h -7.88 v 9.6 q 0,1.56 0.24,2.6 0.24,1 0.72,1.6 0.48,0.56 1.2,0.8 0.72,0.24 1.68,0.24 1.68,0 2.68,-0.36 1.04,-0.4 1.44,-0.56 l 0.72,3.08 q -0.56,0.28 -1.96,0.68 -1.4,0.44 -3.2,0.44 -2.12,0 -3.52,-0.52 -1.36,-0.56 -2.2,-1.64 -0.84,-1.08 -1.2,-2.64 -0.32,-1.6 -0.32,-3.68 v -18.56 l 3.72,-0.64 z"
         style=""
         id="path1280" />
      <path
         d="m 361.94332,839.44391 q 2.28,0 3.36,-0.6 1.12,-0.6 1.12,-1.92 0,-1.36 -1.08,-2.16 -1.08,-0.8 -3.56,-1.8 -1.2,-0.48 -2.32,-0.96 -1.08,-0.52 -1.88,-1.2 -0.8,-0.68 -1.28,-1.64 -0.48,-0.96 -0.48,-2.36 0,-2.76 2.04,-4.36 2.04,-1.64 5.56,-1.64 0.88,0 1.76,0.12 0.88,0.08 1.64,0.24 0.76,0.12 1.32,0.28 0.6,0.16 0.92,0.28 l -0.68,3.2 q -0.6,-0.32 -1.88,-0.64 -1.28,-0.36 -3.08,-0.36 -1.56,0 -2.72,0.64 -1.16,0.6 -1.16,1.92 0,0.68 0.24,1.2 0.28,0.52 0.8,0.96 0.56,0.4 1.36,0.76 0.8,0.36 1.92,0.76 1.48,0.56 2.64,1.12 1.16,0.52 1.96,1.24 0.84,0.72 1.28,1.76 0.44,1 0.44,2.48 0,2.88 -2.16,4.36 -2.12,1.48 -6.08,1.48 -2.76,0 -4.32,-0.48 -1.56,-0.44 -2.12,-0.68 l 0.68,-3.2 q 0.64,0.24 2.04,0.72 1.4,0.48 3.72,0.48 z"
         style=""
         id="path1282" />
    </g>
    <g
       aria-label="Themed entertainment industry"
       transform="matrix(0.26458333,0,0,0.26458333,-5.8952432,-132.66553)"
       style="font-style:normal;font-variant:normal;font-weight:normal;font-stretch:normal;font-size:40px;line-height:1.25;font-family:Ubuntu;-inkscape-font-specification:Ubuntu;text-align:center;letter-spacing:0px;word-spacing:0px;text-anchor:middle;fill:#ffffff;fill-opacity:1;stroke:none"
       id="flowRoot817-5-0-0">
      <path
         d="m 266.60062,764.40391 v 3.36 h -8.72 v 24.36 h -3.87999 v -24.36 h -8.72001 v -3.36 z"
         style=""
         id="path1381" />
      <path
         d="m 270.41875,792.12391 v -30.4 l 3.72,-0.64 v 10.64 q 1.04,-0.4 2.2,-0.6 1.2,-0.24 2.36,-0.24 2.48,0 4.12,0.72 1.64,0.68 2.6,1.96 1,1.24 1.4,3 0.4,1.76 0.4,3.88 v 11.68 h -3.72 v -10.88 q 0,-1.92 -0.28,-3.28 -0.24,-1.36 -0.84,-2.2 -0.6,-0.84 -1.6,-1.2 -1,-0.4 -2.48,-0.4 -0.6,0 -1.24,0.08 -0.64,0.08 -1.24,0.2 -0.56,0.08 -1.04,0.2 -0.44,0.12 -0.64,0.2 v 17.28 z"
         style=""
         id="path1383" />
      <path
         d="m 292.07125,781.76391 q 0,-2.76 0.8,-4.8 0.8,-2.08 2.12,-3.44 1.32,-1.36 3.04,-2.04 1.72,-0.68 3.52,-0.68 4.2,0 6.44,2.64 2.24,2.6 2.24,7.96 0,0.24 0,0.64 0,0.36 -0.04,0.68 h -14.24 q 0.24,3.24 1.88,4.92 1.64,1.68 5.12,1.68 1.96,0 3.28,-0.32 1.36,-0.36 2.04,-0.68 l 0.52,3.12 q -0.68,0.36 -2.4,0.76 -1.68,0.4 -3.84,0.4 -2.72,0 -4.72,-0.8 -1.96,-0.84 -3.24,-2.28 -1.28,-1.44 -1.92,-3.4 -0.6,-2 -0.6,-4.36 z m 14.28,-2.04 q 0.04,-2.52 -1.28,-4.12 -1.28,-1.64 -3.56,-1.64 -1.28,0 -2.28,0.52 -0.96,0.48 -1.64,1.28 -0.68,0.8 -1.08,1.84 -0.36,1.04 -0.48,2.12 z"
         style=""
         id="path1385" />
      <path
         d="m 315.575,771.92391 q 1.28,-0.32 3.36,-0.68 2.12,-0.36 4.88,-0.36 2,0 3.36,0.56 1.36,0.52 2.28,1.56 0.28,-0.2 0.88,-0.56 0.6,-0.36 1.48,-0.68 0.88,-0.36 1.96,-0.6 1.08,-0.28 2.32,-0.28 2.4,0 3.92,0.72 1.52,0.68 2.36,1.96 0.88,1.28 1.16,3.04 0.32,1.76 0.32,3.84 v 11.68 h -3.72 v -10.88 q 0,-1.84 -0.2,-3.16 -0.16,-1.32 -0.68,-2.2 -0.48,-0.88 -1.36,-1.28 -0.84,-0.44 -2.2,-0.44 -1.88,0 -3.12,0.52 -1.2,0.48 -1.64,0.88 0.32,1.04 0.48,2.28 0.16,1.24 0.16,2.6 v 11.68 h -3.72 v -10.88 q 0,-1.84 -0.2,-3.16 -0.2,-1.32 -0.72,-2.2 -0.48,-0.88 -1.36,-1.28 -0.84,-0.44 -2.16,-0.44 -0.56,0 -1.2,0.04 -0.64,0.04 -1.24,0.12 -0.56,0.04 -1.04,0.12 -0.48,0.08 -0.64,0.12 v 17.56 h -3.72 z"
         style=""
         id="path1387" />
      <path
         d="m 348.86813,781.76391 q 0,-2.76 0.79999,-4.8 0.8,-2.08 2.12,-3.44 1.32,-1.36 3.04,-2.04 1.72001,-0.68 3.52,-0.68 4.20001,0 6.44,2.64 2.24,2.6 2.24,7.96 0,0.24 0,0.64 0,0.36 -0.04,0.68 h -14.24 q 0.24,3.24 1.87999,4.92 1.64,1.68 5.12001,1.68 1.95999,0 3.27999,-0.32 1.36,-0.36 2.04,-0.68 l 0.52,3.12 q -0.68,0.36 -2.39999,0.76 -1.68001,0.4 -3.84001,0.4 -2.72,0 -4.72,-0.8 -1.96,-0.84 -3.24,-2.28 -1.28,-1.44 -1.92,-3.4 -0.59999,-2 -0.59999,-4.36 z m 14.27999,-2.04 q 0.04,-2.52 -1.27999,-4.12 -1.28001,-1.64 -3.56,-1.64 -1.28001,0 -2.28001,0.52 -0.96,0.48 -1.64,1.28 -0.68,0.8 -1.07999,1.84 -0.36001,1.04 -0.48001,2.12 z"
         style=""
         id="path1389" />
      <path
         d="m 385.81187,775.72391 q -0.68,-0.56 -1.96,-1.08 -1.28,-0.52 -2.8,-0.52 -1.6,0 -2.76,0.6 -1.12,0.56 -1.84,1.6 -0.72,1 -1.04,2.4 -0.31999,1.4 -0.31999,3 0,3.64 1.8,5.64 1.79999,1.96 4.79999,1.96 1.52001,0 2.52001,-0.12 1.03999,-0.16 1.59999,-0.32 z m 0,-14 3.72001,-0.64 v 30.44 q -1.28001,0.36 -3.28001,0.72 -2,0.36 -4.59999,0.36 -2.40001,0 -4.32,-0.76 -1.92001,-0.76 -3.28001,-2.16 -1.36,-1.4 -2.12,-3.4 -0.71999,-2.04 -0.71999,-4.56 0,-2.4 0.59999,-4.4 0.64,-2 1.84001,-3.44 1.19999,-1.44 2.91999,-2.24 1.76001,-0.8 4,-0.8 1.8,0 3.16,0.48 1.4,0.48 2.08,0.92 z"
         style=""
         id="path1391" />
      <path
         d="m 188.36031,831.76391 q 0,-2.76 0.8,-4.8 0.8,-2.08 2.12,-3.44 1.32,-1.36 3.04,-2.04 1.72,-0.68 3.52,-0.68 4.2,0 6.44,2.64 2.24,2.6 2.24,7.96 0,0.24 0,0.64 0,0.36 -0.04,0.68 h -14.24 q 0.24,3.24 1.88,4.92 1.64,1.68 5.12,1.68 1.96,0 3.28,-0.32 1.36,-0.36 2.04,-0.68 l 0.52,3.12 q -0.68,0.36 -2.4,0.76 -1.68,0.4 -3.84,0.4 -2.72,0 -4.72,-0.8 -1.96,-0.84 -3.24,-2.28 -1.28,-1.44 -1.92,-3.4 -0.6,-2 -0.6,-4.36 z m 14.28,-2.04 q 0.04,-2.52 -1.28,-4.12 -1.28,-1.64 -3.56,-1.64 -1.28,0 -2.28,0.52 -0.96,0.48 -1.64,1.28 -0.68,0.8 -1.08,1.84 -0.36,1.04 -0.48,2.12 z"
         style=""
         id="path1393" />
      <path
         d="m 211.86406,821.92391 q 1.28,-0.32 3.4,-0.68 2.12,-0.36 4.88,-0.36 2.48,0 4.12,0.72 1.64,0.68 2.6,1.96 1,1.24 1.4,3 0.4,1.76 0.4,3.88 v 11.68 h -3.72 v -10.88 q 0,-1.92 -0.28,-3.28 -0.24,-1.36 -0.84,-2.2 -0.6,-0.84 -1.6,-1.2 -1,-0.4 -2.48,-0.4 -0.6,0 -1.24,0.04 -0.64,0.04 -1.24,0.12 -0.56,0.04 -1.04,0.12 -0.44,0.08 -0.64,0.12 v 17.56 h -3.72 z"
         style=""
         id="path1395" />
      <path
         d="m 238.31281,821.32391 h 7.88 v 3.12 h -7.88 v 9.6 q 0,1.56 0.24,2.6 0.24,1 0.72,1.6 0.48,0.56 1.2,0.8 0.72,0.24 1.68,0.24 1.68,0 2.68,-0.36 1.04,-0.4 1.44,-0.56 l 0.72,3.08 q -0.56,0.28 -1.96,0.68 -1.4,0.44 -3.2,0.44 -2.12,0 -3.52,-0.52 -1.36,-0.56 -2.2,-1.64 -0.84,-1.08 -1.2,-2.64 -0.32,-1.6 -0.32,-3.68 v -18.56 l 3.72,-0.64 z"
         style=""
         id="path1397" />
      <path
         d="m 249.37594,831.76391 q 0,-2.76 0.8,-4.8 0.8,-2.08 2.12,-3.44 1.32,-1.36 3.04,-2.04 1.72,-0.68 3.52,-0.68 4.2,0 6.44,2.64 2.24,2.6 2.24,7.96 0,0.24 0,0.64 0,0.36 -0.04,0.68 h -14.24 q 0.24,3.24 1.88,4.92 1.64,1.68 5.12,1.68 1.96,0 3.28,-0.32 1.36,-0.36 2.04,-0.68 l 0.52,3.12 q -0.68,0.36 -2.4,0.76 -1.68,0.4 -3.84,0.4 -2.72,0 -4.72,-0.8 -1.96,-0.84 -3.24,-2.28 -1.28,-1.44 -1.92,-3.4 -0.6,-2 -0.6,-4.36 z m 14.28,-2.04 q 0.04,-2.52 -1.28,-4.12 -1.28,-1.64 -3.56,-1.64 -1.28,0 -2.28,0.52 -0.96,0.48 -1.64,1.28 -0.68,0.8 -1.08,1.84 -0.36,1.04 -0.48,2.12 z"
         style=""
         id="path1399" />
      <path
         d="m 280.55969,820.88391 q 0.48,0 1.08,0.08 0.64,0.04 1.24,0.16 0.6,0.08 1.08,0.2 0.52,0.08 0.76,0.16 l -0.64,3.24 q -0.44,-0.16 -1.48,-0.36 -1,-0.24 -2.6,-0.24 -1.04,0 -2.08,0.24 -1,0.2 -1.32,0.28 v 17.48 h -3.72 v -19.92 q 1.32,-0.48 3.28,-0.88 1.96,-0.44 4.4,-0.44 z"
         style=""
         id="path1401" />
      <path
         d="m 291.82844,821.32391 h 7.88 v 3.12 h -7.88 v 9.6 q 0,1.56 0.24,2.6 0.24,1 0.72,1.6 0.48,0.56 1.2,0.8 0.72,0.24 1.68,0.24 1.68,0 2.68,-0.36 1.04,-0.4 1.44,-0.56 l 0.72,3.08 q -0.56,0.28 -1.96,0.68 -1.4,0.44 -3.2,0.44 -2.12,0 -3.52,-0.52 -1.36,-0.56 -2.2,-1.64 -0.84,-1.08 -1.2,-2.64 -0.32,-1.6 -0.32,-3.68 v -18.56 l 3.72,-0.64 z"
         style=""
         id="path1403" />
      <path
         d="m 311.48219,839.44391 q 1.32,0 2.32,-0.04 1.04,-0.08 1.72,-0.24 v -6.2 q -0.4,-0.2 -1.32,-0.32 -0.88,-0.16 -2.16,-0.16 -0.84,0 -1.8,0.12 -0.92,0.12 -1.72,0.52 -0.76,0.36 -1.28,1.04 -0.52,0.64 -0.52,1.72 0,2 1.28,2.8 1.28,0.76 3.48,0.76 z m -0.32,-18.64 q 2.24,0 3.76,0.6 1.56,0.56 2.48,1.64 0.96,1.04 1.36,2.52 0.4,1.44 0.4,3.2 v 13 q -0.48,0.08 -1.36,0.24 -0.84,0.12 -1.92,0.24 -1.08,0.12 -2.36,0.2 -1.24,0.12 -2.48,0.12 -1.76,0 -3.24,-0.36 -1.48,-0.36 -2.56,-1.12 -1.08,-0.8 -1.68,-2.08 -0.6,-1.28 -0.6,-3.08 0,-1.72 0.68,-2.96 0.72,-1.24 1.92,-2 1.2,-0.76 2.8,-1.12 1.6,-0.36 3.36,-0.36 0.56,0 1.16,0.08 0.6,0.04 1.12,0.16 0.56,0.08 0.96,0.16 0.4,0.08 0.56,0.12 v -1.04 q 0,-0.92 -0.2,-1.8 -0.2,-0.92 -0.72,-1.6 -0.52,-0.72 -1.44,-1.12 -0.88,-0.44 -2.32,-0.44 -1.84,0 -3.24,0.28 -1.36,0.24 -2.04,0.52 l -0.44,-3.08 q 0.72,-0.32 2.4,-0.6 1.68,-0.32 3.64,-0.32 z"
         style=""
         id="path1405" />
      <path
         d="m 329.02156,842.12391 h -3.72 v -20.8 h 3.72 z m -1.88,-24.56 q -1,0 -1.72,-0.64 -0.68,-0.68 -0.68,-1.8 0,-1.12 0.68,-1.76 0.72,-0.68 1.72,-0.68 1,0 1.68,0.68 0.72,0.64 0.72,1.76 0,1.12 -0.72,1.8 -0.68,0.64 -1.68,0.64 z"
         style=""
         id="path1407" />
      <path
         d="m 335.45781,821.92391 q 1.28,-0.32 3.4,-0.68 2.12,-0.36 4.88,-0.36 2.48,0 4.12,0.72 1.64,0.68 2.6,1.96 1,1.24 1.4,3 0.4,1.76 0.4,3.88 v 11.68 h -3.72 v -10.88 q 0,-1.92 -0.28,-3.28 -0.24,-1.36 -0.84,-2.2 -0.6,-0.84 -1.6,-1.2 -1,-0.4 -2.48,-0.4 -0.6,0 -1.24,0.04 -0.64,0.04 -1.24,0.12 -0.56,0.04 -1.04,0.12 -0.44,0.08 -0.64,0.12 v 17.56 h -3.72 z"
         style=""
         id="path1409" />
      <path
         d="m 358.42656,821.92391 q 1.28,-0.32 3.36,-0.68 2.12,-0.36 4.88,-0.36 2,0 3.36,0.56 1.36,0.52 2.28,1.56 0.28,-0.2 0.88,-0.56 0.6,-0.36 1.48,-0.68 0.88,-0.36 1.96,-0.6 1.08,-0.28 2.32,-0.28 2.4,0 3.92,0.72 1.52,0.68 2.36,1.96 0.88,1.28 1.16,3.04 0.32,1.76 0.32,3.84 v 11.68 h -3.72 v -10.88 q 0,-1.84 -0.2,-3.16 -0.16,-1.32 -0.68,-2.2 -0.48,-0.88 -1.36,-1.28 -0.84,-0.44 -2.2,-0.44 -1.88,0 -3.12,0.52 -1.2,0.48 -1.64,0.88 0.32,1.04 0.48,2.28 0.16,1.24 0.16,2.6 v 11.68 h -3.72 v -10.88 q 0,-1.84 -0.2,-3.16 -0.2,-1.32 -0.72,-2.2 -0.48,-0.88 -1.36,-1.28 -0.84,-0.44 -2.16,-0.44 -0.56,0 -1.2,0.04 -0.64,0.04 -1.24,0.12 -0.56,0.04 -1.04,0.12 -0.48,0.08 -0.64,0.12 v 17.56 h -3.72 z"
         style=""
         id="path1411" />
      <path
         d="m 391.71969,831.76391 q 0,-2.76 0.8,-4.8 0.8,-2.08 2.12,-3.44 1.32,-1.36 3.04,-2.04 1.72,-0.68 3.52,-0.68 4.2,0 6.44,2.64 2.24,2.6 2.24,7.96 0,0.24 0,0.64 0,0.36 -0.04,0.68 h -14.24 q 0.24,3.24 1.88,4.92 1.64,1.68 5.12,1.68 1.96,0 3.28,-0.32 1.36,-0.36 2.04,-0.68 l 0.52,3.12 q -0.68,0.36 -2.4,0.76 -1.68,0.4 -3.84,0.4 -2.72,0 -4.72,-0.8 -1.96,-0.84 -3.24,-2.28 -1.28,-1.44 -1.92,-3.4 -0.6,-2 -0.6,-4.36 z m 14.28,-2.04 q 0.04,-2.52 -1.28,-4.12 -1.28,-1.64 -3.56,-1.64 -1.28,0 -2.28,0.52 -0.96,0.48 -1.64,1.28 -0.68,0.8 -1.08,1.84 -0.36,1.04 -0.48,2.12 z"
         style=""
         id="path1413" />
      <path
         d="m 415.22344,821.92391 q 1.28,-0.32 3.4,-0.68 2.12,-0.36 4.88,-0.36 2.48,0 4.12,0.72 1.64,0.68 2.6,1.96 1,1.24 1.4,3 0.4,1.76 0.4,3.88 v 11.68 h -3.72 v -10.88 q 0,-1.92 -0.28,-3.28 -0.24,-1.36 -0.84,-2.2 -0.6,-0.84 -1.6,-1.2 -1,-0.4 -2.48,-0.4 -0.6,0 -1.24,0.04 -0.64,0.04 -1.24,0.12 -0.56,0.04 -1.04,0.12 -0.44,0.08 -0.64,0.12 v 17.56 h -3.72 z"
         style=""
         id="path1415" />
      <path
         d="m 441.67219,821.32391 h 7.88 v 3.12 h -7.88 v 9.6 q 0,1.56 0.24,2.6 0.24,1 0.72,1.6 0.48,0.56 1.2,0.8 0.72,0.24 1.68,0.24 1.68,0 2.68,-0.36 1.04,-0.4 1.44,-0.56 l 0.72,3.08 q -0.56,0.28 -1.96,0.68 -1.4,0.44 -3.2,0.44 -2.12,0 -3.52,-0.52 -1.36,-0.56 -2.2,-1.64 -0.84,-1.08 -1.2,-2.64 -0.32,-1.6 -0.32,-3.68 v -18.56 l 3.72,-0.64 z"
         style=""
         id="path1417" />
      <path
         d="m 250.74031,892.12391 h -3.72 v -20.8 h 3.72 z m -1.88,-24.56 q -1,0 -1.72,-0.64 -0.68,-0.68 -0.68,-1.8 0,-1.12 0.68,-1.76 0.72,-0.68 1.72,-0.68 1,0 1.68,0.68 0.72,0.64 0.72,1.76 0,1.12 -0.72,1.8 -0.68,0.64 -1.68,0.64 z"
         style=""
         id="path1419" />
      <path
         d="m 257.17656,871.92391 q 1.28,-0.32 3.4,-0.68 2.12,-0.36 4.88,-0.36 2.48,0 4.12,0.72 1.64,0.68 2.6,1.96 1,1.24 1.4,3 0.4,1.76 0.4,3.88 v 11.68 h -3.72 v -10.88 q 0,-1.92 -0.28,-3.28 -0.24,-1.36 -0.84,-2.2 -0.6,-0.84 -1.6,-1.2 -1,-0.4 -2.48,-0.4 -0.6,0 -1.24,0.04 -0.64,0.04 -1.24,0.12 -0.56,0.04 -1.04,0.12 -0.44,0.08 -0.64,0.12 v 17.56 h -3.72 z"
         style=""
         id="path1421" />
      <path
         d="m 293.58531,875.72391 q -0.68,-0.56 -1.96,-1.08 -1.28,-0.52 -2.8,-0.52 -1.6,0 -2.76,0.6 -1.12,0.56 -1.84,1.6 -0.72,1 -1.04,2.4 -0.32,1.4 -0.32,3 0,3.64 1.8,5.64 1.8,1.96 4.8,1.96 1.52,0 2.52,-0.12 1.04,-0.16 1.6,-0.32 z m 0,-14 3.72,-0.64 v 30.44 q -1.28,0.36 -3.28,0.72 -2,0.36 -4.6,0.36 -2.4,0 -4.32,-0.76 -1.92,-0.76 -3.28,-2.16 -1.36,-1.4 -2.12,-3.4 -0.72,-2.04 -0.72,-4.56 0,-2.4 0.6,-4.4 0.64,-2 1.84,-3.44 1.2,-1.44 2.92,-2.24 1.76,-0.8 4,-0.8 1.8,0 3.16,0.48 1.4,0.48 2.08,0.92 z"
         style=""
         id="path1423" />
      <path
         d="m 320.29906,891.52391 q -1.28,0.32 -3.4,0.68 -2.08,0.36 -4.84,0.36 -2.4,0 -4.04,-0.68 -1.64,-0.72 -2.64,-2 -1,-1.28 -1.44,-3 -0.44,-1.76 -0.44,-3.88 v -11.68 h 3.72 v 10.88 q 0,3.8 1.2,5.44 1.2,1.64 4.04,1.64 0.6,0 1.24,-0.04 0.64,-0.04 1.2,-0.08 0.56,-0.08 1,-0.12 0.48,-0.08 0.68,-0.16 v -17.56 h 3.72 z"
         style=""
         id="path1425" />
      <path
         d="m 331.54781,889.44391 q 2.28,0 3.36,-0.6 1.12,-0.6 1.12,-1.92 0,-1.36 -1.08,-2.16 -1.08,-0.8 -3.56,-1.8 -1.2,-0.48 -2.32,-0.96 -1.08,-0.52 -1.88,-1.2 -0.8,-0.68 -1.28,-1.64 -0.48,-0.96 -0.48,-2.36 0,-2.76 2.04,-4.36 2.04,-1.64 5.56,-1.64 0.88,0 1.76,0.12 0.88,0.08 1.64,0.24 0.76,0.12 1.32,0.28 0.6,0.16 0.92,0.28 l -0.68,3.2 q -0.6,-0.32 -1.88,-0.64 -1.28,-0.36 -3.08,-0.36 -1.56,0 -2.72,0.64 -1.16,0.6 -1.16,1.92 0,0.68 0.24,1.2 0.28,0.52 0.8,0.96 0.56,0.4 1.36,0.76 0.8,0.36 1.92,0.76 1.48,0.56 2.64,1.12 1.16,0.52 1.96,1.24 0.84,0.72 1.28,1.76 0.44,1 0.44,2.48 0,2.88 -2.16,4.36 -2.12,1.48 -6.08,1.48 -2.76,0 -4.32,-0.48 -1.56,-0.44 -2.12,-0.68 l 0.68,-3.2 q 0.64,0.24 2.04,0.72 1.4,0.48 3.72,0.48 z"
         style=""
         id="path1427" />
      <path
         d="m 348.00031,871.32391 h 7.88 v 3.12 h -7.88 v 9.6 q 0,1.56 0.24,2.6 0.24,1 0.72,1.6 0.48,0.56 1.2,0.8 0.72,0.24 1.68,0.24 1.68,0 2.68,-0.36 1.04,-0.4 1.44,-0.56 l 0.72,3.08 q -0.56,0.28 -1.96,0.68 -1.4,0.44 -3.2,0.44 -2.12,0 -3.52,-0.52 -1.36,-0.56 -2.2,-1.64 -0.84,-1.08 -1.2,-2.64 -0.32,-1.6 -0.32,-3.68 v -18.56 l 3.72,-0.64 z"
         style=""
         id="path1429" />
      <path
         d="m 368.29406,870.88391 q 0.48,0 1.08,0.08 0.64,0.04 1.24,0.16 0.6,0.08 1.08,0.2 0.52,0.08 0.76,0.16 l -0.64,3.24 q -0.44,-0.16 -1.48,-0.36 -1,-0.24 -2.6,-0.24 -1.04,0 -2.08,0.24 -1,0.2 -1.32,0.28 v 17.48 h -3.72 v -19.92 q 1.32,-0.48 3.28,-0.88 1.96,-0.44 4.4,-0.44 z"
         style=""
         id="path1431" />
      <path
         d="m 374.50219,896.00391 q 0.44,0.2 1.12,0.36 0.72,0.2 1.4,0.2 2.2,0 3.44,-1 1.24,-0.96 2.24,-3.16 -2.52,-4.8 -4.72,-10.16 -2.16,-5.4 -3.6,-10.92 h 4 q 0.44,1.8 1.04,3.88 0.64,2.08 1.4,4.28 0.76,2.2 1.64,4.4 0.88,2.2 1.84,4.24 1.52,-4.2 2.64,-8.32 1.12,-4.12 2.12,-8.48 h 3.84 q -1.44,5.88 -3.2,11.32 -1.76,5.4 -3.8,10.12 -0.8,1.8 -1.68,3.08 -0.84,1.32 -1.88,2.16 -1.04,0.84 -2.36,1.24 -1.28,0.4 -2.92,0.4 -0.44,0 -0.92,-0.08 -0.48,-0.04 -0.96,-0.16 -0.44,-0.08 -0.84,-0.2 -0.36,-0.12 -0.52,-0.2 z"
         style=""
         id="path1433" />
    </g>
    <g
       aria-label="Interactive theater and haunted houses"
       transform="matrix(0.26458333,0,0,0.26458333,71.274015,1.6245842)"
       style="font-style:normal;font-variant:normal;font-weight:normal;font-stretch:normal;font-size:40px;line-height:1.25;font-family:Ubuntu;-inkscape-font-specification:Ubuntu;text-align:center;letter-spacing:0px;word-spacing:0px;text-anchor:middle;fill:#ffffff;fill-opacity:1;stroke:none"
       id="flowRoot817-5-0-0-4">
      <path
         d="m 224.72125,764.40391 h 3.88 v 27.72 h -3.88 z"
         style=""
         id="path1175" />
      <path
         d="m 235.2625,771.92391 q 1.28,-0.32 3.4,-0.68 2.12,-0.36 4.88,-0.36 2.48,0 4.12,0.72 1.64,0.68 2.6,1.96 1,1.24 1.4,3 0.4,1.76 0.4,3.88 v 11.68 h -3.72 v -10.88 q 0,-1.92 -0.28,-3.28 -0.24,-1.36 -0.84,-2.2 -0.6,-0.84 -1.6,-1.2 -1,-0.4 -2.48,-0.4 -0.6,0 -1.24,0.04 -0.64,0.04 -1.24,0.12 -0.56,0.04 -1.04,0.12 -0.44,0.08 -0.64,0.12 v 17.56 h -3.72 z"
         style=""
         id="path1177" />
      <path
         d="m 261.71125,771.32391 h 7.88 v 3.12 h -7.88 v 9.6 q 0,1.56 0.24,2.6 0.24,1 0.72,1.6 0.48,0.56 1.2,0.8 0.72,0.24 1.68,0.24 1.68,0 2.68,-0.36 1.04,-0.4 1.44,-0.56 l 0.72,3.08 q -0.56,0.28 -1.96,0.68 -1.4,0.44 -3.2,0.44 -2.12,0 -3.52,-0.52 -1.36,-0.56 -2.2,-1.64 -0.84,-1.08 -1.2,-2.64 -0.32,-1.6 -0.32,-3.68 v -18.56 l 3.72,-0.64 z"
         style=""
         id="path1179" />
      <path
         d="m 272.77438,781.76391 q 0,-2.76 0.79999,-4.8 0.8,-2.08 2.12,-3.44 1.32,-1.36 3.04,-2.04 1.72001,-0.68 3.52,-0.68 4.20001,0 6.44,2.64 2.24,2.6 2.24,7.96 0,0.24 0,0.64 0,0.36 -0.04,0.68 h -14.24 q 0.24,3.24 1.87999,4.92 1.64,1.68 5.12001,1.68 1.95999,0 3.27999,-0.32 1.36,-0.36 2.04,-0.68 l 0.52,3.12 q -0.68,0.36 -2.39999,0.76 -1.68001,0.4 -3.84001,0.4 -2.72,0 -4.72,-0.8 -1.96,-0.84 -3.24,-2.28 -1.28,-1.44 -1.92,-3.4 -0.59999,-2 -0.59999,-4.36 z m 14.27999,-2.04 q 0.04,-2.52 -1.27999,-4.12 -1.28001,-1.64 -3.56,-1.64 -1.28001,0 -2.28001,0.52 -0.96,0.48 -1.64,1.28 -0.68,0.8 -1.07999,1.84 -0.36001,1.04 -0.48001,2.12 z"
         style=""
         id="path1181" />
      <path
         d="m 303.95812,770.88391 q 0.48001,0 1.08,0.08 0.64001,0.04 1.24,0.16 0.6,0.08 1.08,0.2 0.52,0.08 0.76001,0.16 l -0.64001,3.24 q -0.44,-0.16 -1.47999,-0.36 -1,-0.24 -2.60001,-0.24 -1.04,0 -2.08,0.24 -1,0.2 -1.31999,0.28 v 17.48 h -3.72001 v -19.92 q 1.32,-0.48 3.28001,-0.88 1.95999,-0.44 4.39999,-0.44 z"
         style=""
         id="path1183" />
      <path
         d="m 318.78687,789.44391 q 1.32,0 2.32,-0.04 1.04001,-0.08 1.72,-0.24 v -6.2 q -0.4,-0.2 -1.32,-0.32 -0.88,-0.16 -2.16,-0.16 -0.84,0 -1.8,0.12 -0.92,0.12 -1.72,0.52 -0.76,0.36 -1.28,1.04 -0.51999,0.64 -0.51999,1.72 0,2 1.27999,2.8 1.28001,0.76 3.48,0.76 z m -0.31999,-18.64 q 2.24,0 3.75999,0.6 1.56,0.56 2.48001,1.64 0.95999,1.04 1.35999,2.52 0.40001,1.44 0.40001,3.2 v 13 q -0.48001,0.08 -1.36001,0.24 -0.83999,0.12 -1.92,0.24 -1.08,0.12 -2.36,0.2 -1.23999,0.12 -2.48,0.12 -1.75999,0 -3.24,-0.36 -1.48,-0.36 -2.56,-1.12 -1.07999,-0.8 -1.68,-2.08 -0.59999,-1.28 -0.59999,-3.08 0,-1.72 0.67999,-2.96 0.72,-1.24 1.92,-2 1.2,-0.76 2.8,-1.12 1.60001,-0.36 3.36001,-0.36 0.56,0 1.15999,0.08 0.6,0.04 1.12,0.16 0.56,0.08 0.96001,0.16 0.39999,0.08 0.55999,0.12 v -1.04 q 0,-0.92 -0.2,-1.8 -0.2,-0.92 -0.71999,-1.6 -0.52001,-0.72 -1.44,-1.12 -0.88,-0.44 -2.32,-0.44 -1.84001,0 -3.24,0.28 -1.36001,0.24 -2.04001,0.52 l -0.44,-3.08 q 0.72001,-0.32 2.4,-0.6 1.68,-0.32 3.64001,-0.32 z"
         style=""
         id="path1185" />
      <path
         d="m 341.64625,792.60391 q -2.52,0 -4.44,-0.8 -1.88,-0.8 -3.2,-2.24 -1.28,-1.44 -1.92,-3.4 -0.64,-2 -0.64,-4.4 0,-2.4 0.68,-4.4 0.72,-2 2,-3.44 1.28,-1.48 3.12,-2.28 1.88,-0.84 4.16,-0.84 1.4,0 2.8,0.24 1.4,0.24 2.68,0.76 l -0.84,3.16 q -0.84,-0.4 -1.96,-0.64 -1.08,-0.24 -2.32,-0.24 -3.12,0 -4.8,1.96 -1.64,1.96 -1.64,5.72 0,1.68 0.36,3.08 0.4,1.4 1.2,2.4 0.84,1 2.12,1.56 1.28,0.52 3.12,0.52 1.48,0 2.68,-0.28 1.2,-0.28 1.88,-0.6 l 0.52,3.12 q -0.32,0.2 -0.92,0.4 -0.6,0.16 -1.36,0.28 -0.76,0.16 -1.64,0.24 -0.84,0.12 -1.64,0.12 z"
         style=""
         id="path1187" />
      <path
         d="m 354.68,771.32391 h 7.88 v 3.12 h -7.88 v 9.6 q 0,1.56 0.24,2.6 0.24,1 0.72,1.6 0.48,0.56 1.2,0.8 0.72,0.24 1.68,0.24 1.68,0 2.68,-0.36 1.04,-0.4 1.44,-0.56 l 0.72,3.08 q -0.56,0.28 -1.96,0.68 -1.4,0.44 -3.2,0.44 -2.12,0 -3.52,-0.52 -1.36,-0.56 -2.2,-1.64 -0.84,-1.08 -1.2,-2.64 -0.32,-1.6 -0.32,-3.68 v -18.56 l 3.72,-0.64 z"
         style=""
         id="path1189" />
      <path
         d="m 371.01375,792.12391 h -3.72 v -20.8 h 3.72 z m -1.88,-24.56 q -1,0 -1.72,-0.64 -0.68,-0.68 -0.68,-1.8 0,-1.12 0.68,-1.76 0.72,-0.68 1.72,-0.68 1,0 1.68,0.68 0.72,0.64 0.72,1.76 0,1.12 -0.72,1.8 -0.68,0.64 -1.68,0.64 z"
         style=""
         id="path1191" />
      <path
         d="m 393.69,771.32391 q -1.56,5.84 -3.68,11.2 -2.08,5.36 -4.04,9.6 h -3.36 q -1.96,-4.24 -4.08,-9.6 -2.08,-5.36 -3.64,-11.2 h 4 q 0.48,1.96 1.12,4.2 0.68,2.2 1.4,4.4 0.76,2.16 1.52,4.2 0.76,2.04 1.44,3.64 0.68,-1.6 1.44,-3.64 0.76,-2.04 1.48,-4.2 0.76,-2.2 1.4,-4.4 0.68,-2.24 1.16,-4.2 z"
         style=""
         id="path1193" />
      <path
         d="m 395.82125,781.76391 q 0,-2.76 0.8,-4.8 0.8,-2.08 2.12,-3.44 1.32,-1.36 3.04,-2.04 1.72,-0.68 3.52,-0.68 4.2,0 6.44,2.64 2.24,2.6 2.24,7.96 0,0.24 0,0.64 0,0.36 -0.04,0.68 h -14.24 q 0.24,3.24 1.88,4.92 1.64,1.68 5.12,1.68 1.96,0 3.28,-0.32 1.36,-0.36 2.04,-0.68 l 0.52,3.12 q -0.68,0.36 -2.4,0.76 -1.68,0.4 -3.84,0.4 -2.72,0 -4.72,-0.8 -1.96,-0.84 -3.24,-2.28 -1.28,-1.44 -1.92,-3.4 -0.6,-2 -0.6,-4.36 z m 14.28,-2.04 q 0.04,-2.52 -1.28,-4.12 -1.28,-1.64 -3.56,-1.64 -1.28,0 -2.28,0.52 -0.96,0.48 -1.64,1.28 -0.68,0.8 -1.08,1.84 -0.36,1.04 -0.48,2.12 z"
         style=""
         id="path1195" />
      <path
         d="m 219.25031,821.32391 h 7.88 v 3.12 h -7.88 v 9.6 q 0,1.56 0.24,2.6 0.24,1 0.72,1.6 0.48,0.56 1.2,0.8 0.72,0.24 1.68,0.24 1.68,0 2.68,-0.36 1.04,-0.4 1.44,-0.56 l 0.72,3.08 q -0.56,0.28 -1.96,0.68 -1.4,0.44 -3.2,0.44 -2.12,0 -3.52,-0.52 -1.36,-0.56 -2.2,-1.64 -0.84,-1.08 -1.2,-2.64 -0.32,-1.6 -0.32,-3.68 v -18.56 l 3.72,-0.64 z"
         style=""
         id="path1197" />
      <path
         d="m 231.86406,842.12391 v -30.4 l 3.72,-0.64 v 10.64 q 1.04,-0.4 2.2,-0.6 1.2,-0.24 2.36,-0.24 2.48,0 4.12,0.72 1.64,0.68 2.6,1.96 1,1.24 1.4,3 0.4,1.76 0.4,3.88 v 11.68 h -3.72 v -10.88 q 0,-1.92 -0.28,-3.28 -0.24,-1.36 -0.84,-2.2 -0.6,-0.84 -1.6,-1.2 -1,-0.4 -2.48,-0.4 -0.6,0 -1.24,0.08 -0.64,0.08 -1.24,0.2 -0.56,0.08 -1.04,0.2 -0.44,0.12 -0.64,0.2 v 17.28 z"
         style=""
         id="path1199" />
      <path
         d="m 253.51656,831.76391 q 0,-2.76 0.8,-4.8 0.8,-2.08 2.12,-3.44 1.32,-1.36 3.04,-2.04 1.72,-0.68 3.52,-0.68 4.2,0 6.44,2.64 2.24,2.6 2.24,7.96 0,0.24 0,0.64 0,0.36 -0.04,0.68 h -14.24 q 0.24,3.24 1.88,4.92 1.64,1.68 5.12,1.68 1.96,0 3.28,-0.32 1.36,-0.36 2.04,-0.68 l 0.52,3.12 q -0.68,0.36 -2.4,0.76 -1.68,0.4 -3.84,0.4 -2.72,0 -4.72,-0.8 -1.96,-0.84 -3.24,-2.28 -1.28,-1.44 -1.92,-3.4 -0.6,-2 -0.6,-4.36 z m 14.28,-2.04 q 0.04,-2.52 -1.28,-4.12 -1.28,-1.64 -3.56,-1.64 -1.28,0 -2.28,0.52 -0.96,0.48 -1.64,1.28 -0.68,0.8 -1.08,1.84 -0.36,1.04 -0.48,2.12 z"
         style=""
         id="path1201" />
      <path
         d="m 284.06031,839.44391 q 1.32,0 2.32,-0.04 1.04,-0.08 1.72,-0.24 v -6.2 q -0.4,-0.2 -1.32,-0.32 -0.88,-0.16 -2.16,-0.16 -0.84,0 -1.8,0.12 -0.92,0.12 -1.72,0.52 -0.76,0.36 -1.28,1.04 -0.52,0.64 -0.52,1.72 0,2 1.28,2.8 1.28,0.76 3.48,0.76 z m -0.32,-18.64 q 2.24,0 3.76,0.6 1.56,0.56 2.48,1.64 0.96,1.04 1.36,2.52 0.4,1.44 0.4,3.2 v 13 q -0.48,0.08 -1.36,0.24 -0.84,0.12 -1.92,0.24 -1.08,0.12 -2.36,0.2 -1.24,0.12 -2.48,0.12 -1.76,0 -3.24,-0.36 -1.48,-0.36 -2.56,-1.12 -1.08,-0.8 -1.68,-2.08 -0.6,-1.28 -0.6,-3.08 0,-1.72 0.68,-2.96 0.72,-1.24 1.92,-2 1.2,-0.76 2.8,-1.12 1.6,-0.36 3.36,-0.36 0.56,0 1.16,0.08 0.6,0.04 1.12,0.16 0.56,0.08 0.96,0.16 0.4,0.08 0.56,0.12 v -1.04 q 0,-0.92 -0.2,-1.8 -0.2,-0.92 -0.72,-1.6 -0.52,-0.72 -1.44,-1.12 -0.88,-0.44 -2.32,-0.44 -1.84,0 -3.24,0.28 -1.36,0.24 -2.04,0.52 l -0.44,-3.08 q 0.72,-0.32 2.4,-0.6 1.68,-0.32 3.64,-0.32 z"
         style=""
         id="path1203" />
      <path
         d="m 301.35969,821.32391 h 7.88 v 3.12 h -7.88 v 9.6 q 0,1.56 0.24,2.6 0.24,1 0.72,1.6 0.48,0.56 1.2,0.8 0.72,0.24 1.68,0.24 1.68,0 2.68,-0.36 1.04,-0.4 1.44,-0.56 l 0.72,3.08 q -0.56,0.28 -1.96,0.68 -1.4,0.44 -3.2,0.44 -2.12,0 -3.52,-0.52 -1.36,-0.56 -2.2,-1.64 -0.84,-1.08 -1.2,-2.64 -0.32,-1.6 -0.32,-3.68 v -18.56 l 3.72,-0.64 z"
         style=""
         id="path1205" />
      <path
         d="m 312.42281,831.76391 q 0,-2.76 0.8,-4.8 0.8,-2.08 2.12,-3.44 1.32,-1.36 3.04,-2.04 1.72,-0.68 3.52,-0.68 4.2,0 6.44,2.64 2.24,2.6 2.24,7.96 0,0.24 0,0.64 0,0.36 -0.04,0.68 h -14.24 q 0.24,3.24 1.88,4.92 1.64,1.68 5.12,1.68 1.96,0 3.28,-0.32 1.36,-0.36 2.04,-0.68 l 0.52,3.12 q -0.68,0.36 -2.4,0.76 -1.68,0.4 -3.84,0.4 -2.72,0 -4.72,-0.8 -1.96,-0.84 -3.24,-2.28 -1.28,-1.44 -1.92,-3.4 -0.6,-2 -0.6,-4.36 z m 14.28,-2.04 q 0.04,-2.52 -1.28,-4.12 -1.28,-1.64 -3.56,-1.64 -1.28,0 -2.28,0.52 -0.96,0.48 -1.64,1.28 -0.68,0.8 -1.08,1.84 -0.36,1.04 -0.48,2.12 z"
         style=""
         id="path1207" />
      <path
         d="m 343.60656,820.88391 q 0.48,0 1.08,0.08 0.64,0.04 1.24,0.16 0.6,0.08 1.08,0.2 0.52,0.08 0.76,0.16 l -0.64,3.24 q -0.44,-0.16 -1.48,-0.36 -1,-0.24 -2.6,-0.24 -1.04,0 -2.08,0.24 -1,0.2 -1.32,0.28 v 17.48 h -3.72 v -19.92 q 1.32,-0.48 3.28,-0.88 1.96,-0.44 4.4,-0.44 z"
         style=""
         id="path1209" />
      <path
         d="m 367.65406,839.44391 q 1.32,0 2.32,-0.04 1.04,-0.08 1.72,-0.24 v -6.2 q -0.4,-0.2 -1.32,-0.32 -0.88,-0.16 -2.16,-0.16 -0.84,0 -1.8,0.12 -0.92,0.12 -1.72,0.52 -0.76,0.36 -1.28,1.04 -0.52,0.64 -0.52,1.72 0,2 1.28,2.8 1.28,0.76 3.48,0.76 z m -0.32,-18.64 q 2.24,0 3.76,0.6 1.56,0.56 2.48,1.64 0.96,1.04 1.36,2.52 0.4,1.44 0.4,3.2 v 13 q -0.48,0.08 -1.36,0.24 -0.84,0.12 -1.92,0.24 -1.08,0.12 -2.36,0.2 -1.24,0.12 -2.48,0.12 -1.76,0 -3.24,-0.36 -1.48,-0.36 -2.56,-1.12 -1.08,-0.8 -1.68,-2.08 -0.6,-1.28 -0.6,-3.08 0,-1.72 0.68,-2.96 0.72,-1.24 1.92,-2 1.2,-0.76 2.8,-1.12 1.6,-0.36 3.36,-0.36 0.56,0 1.16,0.08 0.6,0.04 1.12,0.16 0.56,0.08 0.96,0.16 0.4,0.08 0.56,0.12 v -1.04 q 0,-0.92 -0.2,-1.8 -0.2,-0.92 -0.72,-1.6 -0.52,-0.72 -1.44,-1.12 -0.88,-0.44 -2.32,-0.44 -1.84,0 -3.24,0.28 -1.36,0.24 -2.04,0.52 l -0.44,-3.08 q 0.72,-0.32 2.4,-0.6 1.68,-0.32 3.64,-0.32 z"
         style=""
         id="path1211" />
      <path
         d="m 381.47344,821.92391 q 1.28,-0.32 3.4,-0.68 2.12,-0.36 4.88,-0.36 2.48,0 4.12,0.72 1.64,0.68 2.6,1.96 1,1.24 1.4,3 0.4,1.76 0.4,3.88 v 11.68 h -3.72 v -10.88 q 0,-1.92 -0.28,-3.28 -0.24,-1.36 -0.84,-2.2 -0.6,-0.84 -1.6,-1.2 -1,-0.4 -2.48,-0.4 -0.6,0 -1.24,0.04 -0.64,0.04 -1.24,0.12 -0.56,0.04 -1.04,0.12 -0.44,0.08 -0.64,0.12 v 17.56 h -3.72 z"
         style=""
         id="path1213" />
      <path
         d="m 417.88219,825.72391 q -0.68,-0.56 -1.96,-1.08 -1.28,-0.52 -2.8,-0.52 -1.6,0 -2.76,0.6 -1.12,0.56 -1.84,1.6 -0.72,1 -1.04,2.4 -0.32,1.4 -0.32,3 0,3.64 1.8,5.64 1.8,1.96 4.8,1.96 1.52,0 2.52,-0.12 1.04,-0.16 1.6,-0.32 z m 0,-14 3.72,-0.64 v 30.44 q -1.28,0.36 -3.28,0.72 -2,0.36 -4.6,0.36 -2.4,0 -4.32,-0.76 -1.92,-0.76 -3.28,-2.16 -1.36,-1.4 -2.12,-3.4 -0.72,-2.04 -0.72,-4.56 0,-2.4 0.6,-4.4 0.64,-2 1.84,-3.44 1.2,-1.44 2.92,-2.24 1.76,-0.8 4,-0.8 1.8,0 3.16,0.48 1.4,0.48 2.08,0.92 z"
         style=""
         id="path1215" />
      <path
         d="m 177.99687,892.12391 v -30.4 l 3.72,-0.64 v 10.64 q 1.04,-0.4 2.2,-0.6 1.2,-0.24 2.36,-0.24 2.48,0 4.12,0.72 1.64,0.68 2.6,1.96 1,1.24 1.4,3 0.4,1.76 0.4,3.88 v 11.68 h -3.72 v -10.88 q 0,-1.92 -0.28,-3.28 -0.24,-1.36 -0.84,-2.2 -0.6,-0.84 -1.6,-1.2 -1,-0.4 -2.48,-0.4 -0.6,0 -1.24,0.08 -0.64,0.08 -1.24,0.2 -0.56,0.08 -1.04,0.2 -0.44,0.12 -0.64,0.2 v 17.28 z"
         style=""
         id="path1217" />
      <path
         d="m 207.84937,889.44391 q 1.32,0 2.32,-0.04 1.04,-0.08 1.72,-0.24 v -6.2 q -0.4,-0.2 -1.32,-0.32 -0.88,-0.16 -2.16,-0.16 -0.84,0 -1.8,0.12 -0.92,0.12 -1.72,0.52 -0.76,0.36 -1.28,1.04 -0.52,0.64 -0.52,1.72 0,2 1.28,2.8 1.28,0.76 3.48,0.76 z m -0.32,-18.64 q 2.24,0 3.76,0.6 1.56,0.56 2.48,1.64 0.96,1.04 1.36,2.52 0.40001,1.44 0.40001,3.2 v 13 q -0.48001,0.08 -1.36001,0.24 -0.84,0.12 -1.92,0.24 -1.08,0.12 -2.36,0.2 -1.24,0.12 -2.48,0.12 -1.76,0 -3.24,-0.36 -1.48,-0.36 -2.56,-1.12 -1.08,-0.8 -1.68,-2.08 -0.6,-1.28 -0.6,-3.08 0,-1.72 0.68,-2.96 0.72,-1.24 1.92,-2 1.2,-0.76 2.8,-1.12 1.6,-0.36 3.36,-0.36 0.56,0 1.16,0.08 0.6,0.04 1.12,0.16 0.56,0.08 0.96,0.16 0.4,0.08 0.56,0.12 v -1.04 q 0,-0.92 -0.2,-1.8 -0.2,-0.92 -0.71999,-1.6 -0.52001,-0.72 -1.44001,-1.12 -0.88,-0.44 -2.32,-0.44 -1.84,0 -3.23999,0.28 -1.36001,0.24 -2.04001,0.52 l -0.44,-3.08 q 0.72,-0.32 2.4,-0.6 1.68,-0.32 3.64,-0.32 z"
         style=""
         id="path1219" />
      <path
         d="m 238.22875,891.52391 q -1.28,0.32 -3.4,0.68 -2.08,0.36 -4.84,0.36 -2.4,0 -4.04,-0.68 -1.64,-0.72 -2.64,-2 -1,-1.28 -1.44,-3 -0.44,-1.76 -0.44,-3.88 v -11.68 h 3.72 v 10.88 q 0,3.8 1.2,5.44 1.2,1.64 4.04,1.64 0.6,0 1.24,-0.04 0.64,-0.04 1.2,-0.08 0.56,-0.08 1,-0.12 0.48,-0.08 0.68,-0.16 v -17.56 h 3.72 z"
         style=""
         id="path1221" />
      <path
         d="m 244.6375,871.92391 q 1.28,-0.32 3.4,-0.68 2.12,-0.36 4.88,-0.36 2.48,0 4.12,0.72 1.64,0.68 2.6,1.96 1,1.24 1.4,3 0.4,1.76 0.4,3.88 v 11.68 h -3.72 v -10.88 q 0,-1.92 -0.28,-3.28 -0.24,-1.36 -0.84,-2.2 -0.6,-0.84 -1.6,-1.2 -1,-0.4 -2.48,-0.4 -0.6,0 -1.24,0.04 -0.64,0.04 -1.24,0.12 -0.56,0.04 -1.04,0.12 -0.44,0.08 -0.64,0.12 v 17.56 h -3.72 z"
         style=""
         id="path1223" />
      <path
         d="m 271.08625,871.32391 h 7.88 v 3.12 h -7.88 v 9.6 q 0,1.56 0.24,2.6 0.24,1 0.72,1.6 0.48,0.56 1.2,0.8 0.72,0.24 1.68,0.24 1.68,0 2.68,-0.36 1.04,-0.4 1.44,-0.56 l 0.72,3.08 q -0.56,0.28 -1.96,0.68 -1.4,0.44 -3.2,0.44 -2.12,0 -3.52,-0.52 -1.36,-0.56 -2.2,-1.64 -0.84,-1.08 -1.2,-2.64 -0.32,-1.6 -0.32,-3.68 v -18.56 l 3.72,-0.64 z"
         style=""
         id="path1225" />
      <path
         d="m 282.14938,881.76391 q 0,-2.76 0.79999,-4.8 0.8,-2.08 2.12,-3.44 1.32,-1.36 3.04,-2.04 1.72001,-0.68 3.52,-0.68 4.20001,0 6.44,2.64 2.24,2.6 2.24,7.96 0,0.24 0,0.64 0,0.36 -0.04,0.68 h -14.24 q 0.24,3.24 1.87999,4.92 1.64,1.68 5.12001,1.68 1.95999,0 3.27999,-0.32 1.36,-0.36 2.04,-0.68 l 0.52,3.12 q -0.68,0.36 -2.39999,0.76 -1.68001,0.4 -3.84001,0.4 -2.72,0 -4.72,-0.8 -1.96,-0.84 -3.24,-2.28 -1.28,-1.44 -1.92,-3.4 -0.59999,-2 -0.59999,-4.36 z m 14.27999,-2.04 q 0.04,-2.52 -1.27999,-4.12 -1.28001,-1.64 -3.56,-1.64 -1.28001,0 -2.28001,0.52 -0.96,0.48 -1.64,1.28 -0.68,0.8 -1.07999,1.84 -0.36001,1.04 -0.48001,2.12 z"
         style=""
         id="path1227" />
      <path
         d="m 319.09312,875.72391 q -0.68,-0.56 -1.96,-1.08 -1.28,-0.52 -2.8,-0.52 -1.6,0 -2.76,0.6 -1.12,0.56 -1.84,1.6 -0.72,1 -1.04,2.4 -0.31999,1.4 -0.31999,3 0,3.64 1.8,5.64 1.79999,1.96 4.79999,1.96 1.52001,0 2.52001,-0.12 1.03999,-0.16 1.59999,-0.32 z m 0,-14 3.72001,-0.64 v 30.44 q -1.28001,0.36 -3.28001,0.72 -2,0.36 -4.59999,0.36 -2.40001,0 -4.32,-0.76 -1.92001,-0.76 -3.28001,-2.16 -1.36,-1.4 -2.12,-3.4 -0.71999,-2.04 -0.71999,-4.56 0,-2.4 0.59999,-4.4 0.64,-2 1.84001,-3.44 1.19999,-1.44 2.91999,-2.24 1.76001,-0.8 4,-0.8 1.8,0 3.16,0.48 1.4,0.48 2.08,0.92 z"
         style=""
         id="path1229" />
      <path
         d="m 338.46562,892.12391 v -30.4 l 3.72001,-0.64 v 10.64 q 1.03999,-0.4 2.19999,-0.6 1.2,-0.24 2.36001,-0.24 2.47999,0 4.12,0.72 1.63999,0.68 2.59999,1.96 1,1.24 1.40001,3 0.39999,1.76 0.39999,3.88 v 11.68 h -3.72 v -10.88 q 0,-1.92 -0.28,-3.28 -0.24,-1.36 -0.83999,-2.2 -0.60001,-0.84 -1.60001,-1.2 -1,-0.4 -2.48,-0.4 -0.59999,0 -1.24,0.08 -0.64,0.08 -1.23999,0.2 -0.56,0.08 -1.04001,0.2 -0.44,0.12 -0.63999,0.2 v 17.28 z"
         style=""
         id="path1231" />
      <path
         d="m 379.63812,881.72391 q 0,2.48 -0.72,4.48 -0.72,2 -2.04,3.44 -1.28,1.44 -3.07999,2.24 -1.8,0.76 -3.92001,0.76 -2.12,0 -3.92,-0.76 -1.8,-0.8 -3.12,-2.24 -1.27999,-1.44 -2,-3.44 -0.71999,-2 -0.71999,-4.48 0,-2.44 0.71999,-4.44 0.72001,-2.04 2,-3.48 1.32,-1.44 3.12,-2.2 1.8,-0.8 3.92,-0.8 2.12001,0 3.92001,0.8 1.79999,0.76 3.07999,2.2 1.32,1.44 2.04,3.48 0.72,2 0.72,4.44 z m -3.88,0 q 0,-3.52 -1.6,-5.56 -1.56,-2.08 -4.28,-2.08 -2.72,0 -4.31999,2.08 -1.56,2.04 -1.56,5.56 0,3.52 1.56,5.6 1.59999,2.04 4.31999,2.04 2.72,0 4.28,-2.04 1.6,-2.08 1.6,-5.6 z"
         style=""
         id="path1233" />
      <path
         d="m 401.43187,891.52391 q -1.27999,0.32 -3.39999,0.68 -2.08001,0.36 -4.84001,0.36 -2.4,0 -4.03999,-0.68 -1.64001,-0.72 -2.64001,-2 -1,-1.28 -1.44,-3 -0.44,-1.76 -0.44,-3.88 v -11.68 h 3.72 v 10.88 q 0,3.8 1.2,5.44 1.2,1.64 4.04001,1.64 0.59999,0 1.24,-0.04 0.63999,-0.04 1.2,-0.08 0.56,-0.08 1,-0.12 0.47999,-0.08 0.68,-0.16 v -17.56 h 3.71999 z"
         style=""
         id="path1235" />
      <path
         d="m 412.68063,889.44391 q 2.27999,0 3.35999,-0.6 1.12,-0.6 1.12,-1.92 0,-1.36 -1.08,-2.16 -1.07999,-0.8 -3.56,-1.8 -1.2,-0.48 -2.32,-0.96 -1.07999,-0.52 -1.88,-1.2 -0.8,-0.68 -1.28,-1.64 -0.47999,-0.96 -0.47999,-2.36 0,-2.76 2.03999,-4.36 2.04,-1.64 5.56,-1.64 0.88,0 1.76,0.12 0.88001,0.08 1.64001,0.24 0.75999,0.12 1.31999,0.28 0.6,0.16 0.92001,0.28 l -0.68,3.2 q -0.60001,-0.32 -1.88,-0.64 -1.28001,-0.36 -3.08001,-0.36 -1.56,0 -2.72,0.64 -1.16,0.6 -1.16,1.92 0,0.68 0.24,1.2 0.28001,0.52 0.8,0.96 0.56,0.4 1.36001,0.76 0.79999,0.36 1.91999,0.76 1.48,0.56 2.64001,1.12 1.15999,0.52 1.95999,1.24 0.84,0.72 1.28,1.76 0.44,1 0.44,2.48 0,2.88 -2.16,4.36 -2.12,1.48 -6.07999,1.48 -2.76001,0 -4.32,-0.48 -1.56,-0.44 -2.12,-0.68 l 0.67999,-3.2 q 0.64001,0.24 2.04,0.72 1.40001,0.48 3.72001,0.48 z"
         style=""
         id="path1237" />
      <path
         d="m 424.49313,881.76391 q 0,-2.76 0.79999,-4.8 0.8,-2.08 2.12,-3.44 1.32,-1.36 3.04,-2.04 1.72001,-0.68 3.52,-0.68 4.20001,0 6.44,2.64 2.24,2.6 2.24,7.96 0,0.24 0,0.64 0,0.36 -0.04,0.68 h -14.24 q 0.24,3.24 1.87999,4.92 1.64,1.68 5.12001,1.68 1.95999,0 3.27999,-0.32 1.36,-0.36 2.04,-0.68 l 0.52,3.12 q -0.68,0.36 -2.39999,0.76 -1.68001,0.4 -3.84001,0.4 -2.72,0 -4.72,-0.8 -1.96,-0.84 -3.24,-2.28 -1.28,-1.44 -1.92,-3.4 -0.59999,-2 -0.59999,-4.36 z m 14.27999,-2.04 q 0.04,-2.52 -1.27999,-4.12 -1.28001,-1.64 -3.56,-1.64 -1.28001,0 -2.28001,0.52 -0.96,0.48 -1.64,1.28 -0.68,0.8 -1.07999,1.84 -0.36001,1.04 -0.48001,2.12 z"
         style=""
         id="path1239" />
      <path
         d="m 452.83688,889.44391 q 2.27999,0 3.35999,-0.6 1.12,-0.6 1.12,-1.92 0,-1.36 -1.08,-2.16 -1.07999,-0.8 -3.56,-1.8 -1.2,-0.48 -2.32,-0.96 -1.07999,-0.52 -1.88,-1.2 -0.8,-0.68 -1.28,-1.64 -0.47999,-0.96 -0.47999,-2.36 0,-2.76 2.03999,-4.36 2.04,-1.64 5.56,-1.64 0.88,0 1.76,0.12 0.88001,0.08 1.64001,0.24 0.75999,0.12 1.31999,0.28 0.6,0.16 0.92001,0.28 l -0.68,3.2 q -0.60001,-0.32 -1.88,-0.64 -1.28001,-0.36 -3.08001,-0.36 -1.56,0 -2.72,0.64 -1.16,0.6 -1.16,1.92 0,0.68 0.24,1.2 0.28001,0.52 0.8,0.96 0.56,0.4 1.36001,0.76 0.79999,0.36 1.91999,0.76 1.48,0.56 2.64001,1.12 1.15999,0.52 1.95999,1.24 0.84,0.72 1.28,1.76 0.44,1 0.44,2.48 0,2.88 -2.16,4.36 -2.12,1.48 -6.07999,1.48 -2.76001,0 -4.32,-0.48 -1.56,-0.44 -2.12,-0.68 l 0.67999,-3.2 q 0.64001,0.24 2.04,0.72 1.40001,0.48 3.72001,0.48 z"
         style=""
         id="path1241" />
    </g>
    <g
       aria-label="Adventure game shows and movies"
       transform="matrix(0.26458333,0,0,0.26458333,-5.6677092,-42.689002)"
       style="font-style:normal;font-variant:normal;font-weight:normal;font-stretch:normal;font-size:40px;line-height:1.25;font-family:Ubuntu;-inkscape-font-specification:Ubuntu;text-align:center;letter-spacing:0px;word-spacing:0px;text-anchor:middle;fill:#ffffff;fill-opacity:1;stroke:none"
       id="flowRoot817-5-0-0-3">
      <path
         d="m 190.03812,792.12391 q -0.68,-1.8 -1.28,-3.52 -0.6,-1.76 -1.24,-3.56 h -12.56 l -2.51999,7.08 h -4.04001 q 1.6,-4.4 3,-8.12 1.4,-3.76 2.72,-7.12 1.36,-3.36 2.68,-6.4 1.32,-3.08 2.76,-6.08 h 3.56 q 1.44,3 2.76,6.08 1.32,3.04 2.64,6.4 1.36,3.36 2.76,7.12 1.4,3.72 3,8.12 z m -3.64,-10.28 q -1.28,-3.48 -2.56,-6.72 -1.24,-3.28 -2.6,-6.28 -1.4,3 -2.68,6.28 -1.24,3.24 -2.48,6.72 z"
         style=""
         id="path1097" />
      <path
         d="m 210.65562,775.72391 q -0.68,-0.56 -1.96,-1.08 -1.28,-0.52 -2.8,-0.52 -1.6,0 -2.76,0.6 -1.12,0.56 -1.84,1.6 -0.72,1 -1.04,2.4 -0.32,1.4 -0.32,3 0,3.64 1.8,5.64 1.8,1.96 4.8,1.96 1.52,0 2.52,-0.12 1.04,-0.16 1.6,-0.32 z m 0,-14 3.72001,-0.64 v 30.44 q -1.28001,0.36 -3.28001,0.72 -2,0.36 -4.6,0.36 -2.4,0 -4.32,-0.76 -1.92,-0.76 -3.28,-2.16 -1.36,-1.4 -2.12,-3.4 -0.72,-2.04 -0.72,-4.56 0,-2.4 0.6,-4.4 0.64,-2 1.84,-3.44 1.2,-1.44 2.92,-2.24 1.76,-0.8 4,-0.8 1.8,0 3.16,0.48 1.4,0.48 2.08,0.92 z"
         style=""
         id="path1099" />
      <path
         d="m 237.04937,771.32391 q -1.56,5.84 -3.68,11.2 -2.08,5.36 -4.04,9.6 h -3.35999 q -1.96001,-4.24 -4.08001,-9.6 -2.08,-5.36 -3.64,-11.2 h 4 q 0.48,1.96 1.12,4.2 0.68,2.2 1.4,4.4 0.76,2.16 1.52,4.2 0.76,2.04 1.44,3.64 0.68,-1.6 1.44,-3.64 0.76,-2.04 1.48,-4.2 0.76,-2.2 1.4,-4.4 0.68,-2.24 1.16,-4.2 z"
         style=""
         id="path1101" />
      <path
         d="m 239.18062,781.76391 q 0,-2.76 0.8,-4.8 0.8,-2.08 2.12,-3.44 1.32,-1.36 3.04,-2.04 1.72,-0.68 3.52,-0.68 4.2,0 6.44,2.64 2.24,2.6 2.24,7.96 0,0.24 0,0.64 0,0.36 -0.04,0.68 h -14.24001 q 0.24,3.24 1.88,4.92 1.64,1.68 5.12,1.68 1.96,0 3.28,-0.32 1.36,-0.36 2.04,-0.68 l 0.52,3.12 q -0.68,0.36 -2.39999,0.76 -1.68001,0.4 -3.84001,0.4 -2.72,0 -4.72,-0.8 -1.96,-0.84 -3.24,-2.28 -1.28,-1.44 -1.92,-3.4 -0.6,-2 -0.6,-4.36 z m 14.28,-2.04 q 0.04,-2.52 -1.28,-4.12 -1.28,-1.64 -3.56,-1.64 -1.28,0 -2.28,0.52 -0.96,0.48 -1.64,1.28 -0.68,0.8 -1.08,1.84 -0.36,1.04 -0.48,2.12 z"
         style=""
         id="path1103" />
      <path
         d="m 262.68437,771.92391 q 1.28001,-0.32 3.40001,-0.68 2.12,-0.36 4.88,-0.36 2.47999,0 4.12,0.72 1.63999,0.68 2.59999,1.96 1,1.24 1.40001,3 0.39999,1.76 0.39999,3.88 v 11.68 h -3.72 v -10.88 q 0,-1.92 -0.28,-3.28 -0.24,-1.36 -0.83999,-2.2 -0.60001,-0.84 -1.60001,-1.2 -1,-0.4 -2.48,-0.4 -0.59999,0 -1.24,0.04 -0.64,0.04 -1.23999,0.12 -0.56,0.04 -1.04001,0.12 -0.44,0.08 -0.63999,0.12 v 17.56 h -3.72001 z"
         style=""
         id="path1105" />
      <path
         d="m 289.13312,771.32391 h 7.88 v 3.12 h -7.88 v 9.6 q 0,1.56 0.24001,2.6 0.24,1 0.71999,1.6 0.48,0.56 1.2,0.8 0.72,0.24 1.68,0.24 1.68,0 2.68,-0.36 1.04,-0.4 1.44,-0.56 l 0.72001,3.08 q -0.56001,0.28 -1.96001,0.68 -1.4,0.44 -3.2,0.44 -2.12,0 -3.52,-0.52 -1.36,-0.56 -2.19999,-1.64 -0.84001,-1.08 -1.20001,-2.64 -0.32,-1.6 -0.32,-3.68 v -18.56 l 3.72,-0.64 z"
         style=""
         id="path1107" />
      <path
         d="m 318.30687,791.52391 q -1.27999,0.32 -3.39999,0.68 -2.08001,0.36 -4.84001,0.36 -2.4,0 -4.03999,-0.68 -1.64001,-0.72 -2.64001,-2 -1,-1.28 -1.44,-3 -0.44,-1.76 -0.44,-3.88 v -11.68 h 3.72 v 10.88 q 0,3.8 1.2,5.44 1.2,1.64 4.04001,1.64 0.59999,0 1.24,-0.04 0.63999,-0.04 1.2,-0.08 0.56,-0.08 1,-0.12 0.47999,-0.08 0.68,-0.16 v -17.56 h 3.71999 z"
         style=""
         id="path1109" />
      <path
         d="m 332.39562,770.88391 q 0.48001,0 1.08,0.08 0.64001,0.04 1.24,0.16 0.6,0.08 1.08,0.2 0.52,0.08 0.76001,0.16 l -0.64001,3.24 q -0.44,-0.16 -1.47999,-0.36 -1,-0.24 -2.60001,-0.24 -1.04,0 -2.08,0.24 -1,0.2 -1.31999,0.28 v 17.48 h -3.72001 v -19.92 q 1.32,-0.48 3.28001,-0.88 1.95999,-0.44 4.39999,-0.44 z"
         style=""
         id="path1111" />
      <path
         d="m 339.02438,781.76391 q 0,-2.76 0.79999,-4.8 0.8,-2.08 2.12,-3.44 1.32,-1.36 3.04,-2.04 1.72001,-0.68 3.52,-0.68 4.20001,0 6.44,2.64 2.24,2.6 2.24,7.96 0,0.24 0,0.64 0,0.36 -0.04,0.68 h -14.24 q 0.24,3.24 1.87999,4.92 1.64,1.68 5.12001,1.68 1.95999,0 3.27999,-0.32 1.36,-0.36 2.04,-0.68 l 0.52,3.12 q -0.68,0.36 -2.39999,0.76 -1.68001,0.4 -3.84001,0.4 -2.72,0 -4.72,-0.8 -1.96,-0.84 -3.24,-2.28 -1.28,-1.44 -1.92,-3.4 -0.59999,-2 -0.59999,-4.36 z m 14.27999,-2.04 q 0.04,-2.52 -1.27999,-4.12 -1.28001,-1.64 -3.56,-1.64 -1.28001,0 -2.28001,0.52 -0.96,0.48 -1.64,1.28 -0.68,0.8 -1.07999,1.84 -0.36001,1.04 -0.48001,2.12 z"
         style=""
         id="path1113" />
      <path
         d="m 384.78687,790.04391 q -0.48,0.32 -1.87999,0.84 -1.36001,0.48 -3.2,0.48 -1.88001,0 -3.56,-0.6 -1.64001,-0.6 -2.88,-1.84 -1.24,-1.28 -1.96001,-3.16 -0.71999,-1.88 -0.71999,-4.48 0,-2.28 0.68,-4.16 0.67999,-1.92 1.95999,-3.28 1.32,-1.4 3.2,-2.16 1.88,-0.8 4.24,-0.8 2.60001,0 4.52,0.4 1.96001,0.36 3.28001,0.68 v 18.56 q 0,4.8 -2.48001,6.96 -2.48,2.16 -7.51999,2.16 -1.96001,0 -3.72001,-0.32 -1.71999,-0.32 -3,-0.76 l 0.68,-3.24 q 1.12,0.44 2.72001,0.76 1.63999,0.36 3.39999,0.36 3.32,0 4.76,-1.32 1.48,-1.32 1.48,-4.2 z m -0.04,-15.44 q -0.56,-0.16 -1.52,-0.28 -0.92,-0.16 -2.51999,-0.16 -3,0 -4.64001,1.96 -1.59999,1.96 -1.59999,5.2 0,1.8 0.44,3.08 0.47999,1.28 1.24,2.12 0.79999,0.84 1.79999,1.24 1.04,0.4 2.12,0.4 1.48,0 2.72,-0.4 1.24001,-0.44 1.96,-1 z"
         style=""
         id="path1115" />
      <path
         d="m 401.91187,789.44391 q 1.32,0 2.32,-0.04 1.04001,-0.08 1.72,-0.24 v -6.2 q -0.4,-0.2 -1.32,-0.32 -0.88,-0.16 -2.16,-0.16 -0.84,0 -1.8,0.12 -0.92,0.12 -1.72,0.52 -0.76,0.36 -1.28,1.04 -0.51999,0.64 -0.51999,1.72 0,2 1.27999,2.8 1.28001,0.76 3.48,0.76 z m -0.31999,-18.64 q 2.24,0 3.75999,0.6 1.56,0.56 2.48001,1.64 0.95999,1.04 1.35999,2.52 0.40001,1.44 0.40001,3.2 v 13 q -0.48001,0.08 -1.36001,0.24 -0.83999,0.12 -1.92,0.24 -1.08,0.12 -2.36,0.2 -1.23999,0.12 -2.48,0.12 -1.75999,0 -3.24,-0.36 -1.48,-0.36 -2.56,-1.12 -1.07999,-0.8 -1.68,-2.08 -0.59999,-1.28 -0.59999,-3.08 0,-1.72 0.67999,-2.96 0.72,-1.24 1.92,-2 1.2,-0.76 2.8,-1.12 1.60001,-0.36 3.36001,-0.36 0.56,0 1.15999,0.08 0.6,0.04 1.12,0.16 0.56,0.08 0.96001,0.16 0.39999,0.08 0.55999,0.12 v -1.04 q 0,-0.92 -0.2,-1.8 -0.2,-0.92 -0.71999,-1.6 -0.52001,-0.72 -1.44,-1.12 -0.88,-0.44 -2.32,-0.44 -1.84001,0 -3.24,0.28 -1.36001,0.24 -2.04001,0.52 l -0.44,-3.08 q 0.72001,-0.32 2.4,-0.6 1.68,-0.32 3.64001,-0.32 z"
         style=""
         id="path1117" />
      <path
         d="m 415.73125,771.92391 q 1.28,-0.32 3.36,-0.68 2.12,-0.36 4.88,-0.36 2,0 3.36,0.56 1.36,0.52 2.28,1.56 0.28,-0.2 0.88,-0.56 0.6,-0.36 1.48,-0.68 0.88,-0.36 1.96,-0.6 1.08,-0.28 2.32,-0.28 2.4,0 3.92,0.72 1.52,0.68 2.36,1.96 0.88,1.28 1.16,3.04 0.32,1.76 0.32,3.84 v 11.68 h -3.72 v -10.88 q 0,-1.84 -0.2,-3.16 -0.16,-1.32 -0.68,-2.2 -0.48,-0.88 -1.36,-1.28 -0.84,-0.44 -2.2,-0.44 -1.88,0 -3.12,0.52 -1.2,0.48 -1.64,0.88 0.32,1.04 0.48,2.28 0.16,1.24 0.16,2.6 v 11.68 h -3.72 v -10.88 q 0,-1.84 -0.2,-3.16 -0.2,-1.32 -0.72,-2.2 -0.48,-0.88 -1.36,-1.28 -0.84,-0.44 -2.16,-0.44 -0.56,0 -1.2,0.04 -0.64,0.04 -1.24,0.12 -0.56,0.04 -1.04,0.12 -0.48,0.08 -0.64,0.12 v 17.56 h -3.72 z"
         style=""
         id="path1119" />
      <path
         d="m 449.02438,781.76391 q 0,-2.76 0.79999,-4.8 0.8,-2.08 2.12,-3.44 1.32,-1.36 3.04,-2.04 1.72001,-0.68 3.52,-0.68 4.20001,0 6.44,2.64 2.24,2.6 2.24,7.96 0,0.24 0,0.64 0,0.36 -0.04,0.68 h -14.24 q 0.24,3.24 1.87999,4.92 1.64,1.68 5.12001,1.68 1.95999,0 3.27999,-0.32 1.36,-0.36 2.04,-0.68 l 0.52,3.12 q -0.68,0.36 -2.39999,0.76 -1.68001,0.4 -3.84001,0.4 -2.72,0 -4.72,-0.8 -1.96,-0.84 -3.24,-2.28 -1.28,-1.44 -1.92,-3.4 -0.59999,-2 -0.59999,-4.36 z m 14.27999,-2.04 q 0.04,-2.52 -1.27999,-4.12 -1.28001,-1.64 -3.56,-1.64 -1.28001,0 -2.28001,0.52 -0.96,0.48 -1.64,1.28 -0.68,0.8 -1.07999,1.84 -0.36001,1.04 -0.48001,2.12 z"
         style=""
         id="path1121" />
      <path
         d="m 232.13375,839.44391 q 2.28,0 3.36,-0.6 1.12,-0.6 1.12,-1.92 0,-1.36 -1.08,-2.16 -1.08,-0.8 -3.56,-1.8 -1.2,-0.48 -2.32,-0.96 -1.08,-0.52 -1.88,-1.2 -0.8,-0.68 -1.28,-1.64 -0.48,-0.96 -0.48,-2.36 0,-2.76 2.04,-4.36 2.04,-1.64 5.56,-1.64 0.88,0 1.76,0.12 0.88,0.08 1.64,0.24 0.76,0.12 1.32,0.28 0.6,0.16 0.92,0.28 l -0.68,3.2 q -0.6,-0.32 -1.88,-0.64 -1.28,-0.36 -3.08,-0.36 -1.56,0 -2.72,0.64 -1.16,0.6 -1.16,1.92 0,0.68 0.24,1.2 0.28,0.52 0.8,0.96 0.56,0.4 1.36,0.76 0.8,0.36 1.92,0.76 1.48,0.56 2.64,1.12 1.16,0.52 1.96,1.24 0.84,0.72 1.28,1.76 0.44,1 0.44,2.48 0,2.88 -2.16,4.36 -2.12,1.48 -6.08,1.48 -2.76,0 -4.32,-0.48 -1.56,-0.44 -2.12,-0.68 l 0.68,-3.2 q 0.64,0.24 2.04,0.72 1.4,0.48 3.72,0.48 z"
         style=""
         id="path1123" />
      <path
         d="m 245.10625,842.12391 v -30.4 l 3.72,-0.64 v 10.64 q 1.04,-0.4 2.2,-0.6 1.2,-0.24 2.36,-0.24 2.48,0 4.12,0.72 1.64,0.68 2.6,1.96 1,1.24 1.4,3 0.4,1.76 0.4,3.88 v 11.68 h -3.72 v -10.88 q 0,-1.92 -0.28,-3.28 -0.24,-1.36 -0.84,-2.2 -0.6,-0.84 -1.6,-1.2 -1,-0.4 -2.48,-0.4 -0.6,0 -1.24,0.08 -0.64,0.08 -1.24,0.2 -0.56,0.08 -1.04,0.2 -0.44,0.12 -0.64,0.2 v 17.28 z"
         style=""
         id="path1125" />
      <path
         d="m 286.27875,831.72391 q 0,2.48 -0.72,4.48 -0.72,2 -2.04,3.44 -1.28,1.44 -3.08,2.24 -1.8,0.76 -3.92,0.76 -2.12,0 -3.92,-0.76 -1.8,-0.8 -3.12,-2.24 -1.28,-1.44 -2,-3.44 -0.72,-2 -0.72,-4.48 0,-2.44 0.72,-4.44 0.72,-2.04 2,-3.48 1.32,-1.44 3.12,-2.2 1.8,-0.8 3.92,-0.8 2.12,0 3.92,0.8 1.8,0.76 3.08,2.2 1.32,1.44 2.04,3.48 0.72,2 0.72,4.44 z m -3.88,0 q 0,-3.52 -1.6,-5.56 -1.56,-2.08 -4.28,-2.08 -2.72,0 -4.32,2.08 -1.56,2.04 -1.56,5.56 0,3.52 1.56,5.6 1.6,2.04 4.32,2.04 2.72,0 4.28,-2.04 1.6,-2.08 1.6,-5.6 z"
         style=""
         id="path1127" />
      <path
         d="m 307.96562,842.12391 q -1.12,-2.88 -2.4,-6.56 -1.24,-3.72 -2.28,-7.72 -1.03999,4 -2.28,7.72 -1.24,3.68 -2.36,6.56 h -3.24 q -1.84,-4.12 -3.59999,-9.4 -1.76001,-5.28 -3.32,-11.4 h 4 q 0.39999,1.88 0.95999,4.08 0.56,2.2 1.16,4.4 0.64001,2.2 1.32001,4.24 0.67999,2.04 1.27999,3.56 0.68,-1.88 1.32,-3.96 0.68,-2.12 1.28001,-4.24 0.59999,-2.16 1.12,-4.2 0.56,-2.08 0.95999,-3.88 h 3.08 q 0.36,1.8 0.88,3.88 0.52001,2.04 1.12,4.2 0.6,2.12 1.24,4.24 0.68,2.08 1.36,3.96 0.6,-1.52 1.24001,-3.56 0.68,-2.04 1.32,-4.24 0.63999,-2.2 1.19999,-4.4 0.56,-2.2 0.96,-4.08 h 3.84001 q -1.56001,6.12 -3.32,11.4 -1.76001,5.28 -3.60001,9.4 z"
         style=""
         id="path1129" />
      <path
         d="m 326.89938,839.44391 q 2.27999,0 3.35999,-0.6 1.12,-0.6 1.12,-1.92 0,-1.36 -1.08,-2.16 -1.07999,-0.8 -3.56,-1.8 -1.2,-0.48 -2.32,-0.96 -1.07999,-0.52 -1.88,-1.2 -0.8,-0.68 -1.28,-1.64 -0.47999,-0.96 -0.47999,-2.36 0,-2.76 2.03999,-4.36 2.04,-1.64 5.56,-1.64 0.88,0 1.76,0.12 0.88001,0.08 1.64001,0.24 0.75999,0.12 1.31999,0.28 0.6,0.16 0.92001,0.28 l -0.68,3.2 q -0.60001,-0.32 -1.88,-0.64 -1.28001,-0.36 -3.08001,-0.36 -1.56,0 -2.72,0.64 -1.16,0.6 -1.16,1.92 0,0.68 0.24,1.2 0.28001,0.52 0.8,0.96 0.56,0.4 1.36001,0.76 0.79999,0.36 1.91999,0.76 1.48,0.56 2.64001,1.12 1.15999,0.52 1.95999,1.24 0.84,0.72 1.28,1.76 0.44,1 0.44,2.48 0,2.88 -2.16,4.36 -2.12,1.48 -6.07999,1.48 -2.76001,0 -4.32,-0.48 -1.56,-0.44 -2.12,-0.68 l 0.67999,-3.2 q 0.64001,0.24 2.04,0.72 1.40001,0.48 3.72001,0.48 z"
         style=""
         id="path1131" />
      <path
         d="m 356.13062,839.44391 q 1.32,0 2.32,-0.04 1.04001,-0.08 1.72,-0.24 v -6.2 q -0.4,-0.2 -1.32,-0.32 -0.88,-0.16 -2.16,-0.16 -0.84,0 -1.8,0.12 -0.92,0.12 -1.72,0.52 -0.76,0.36 -1.28,1.04 -0.51999,0.64 -0.51999,1.72 0,2 1.27999,2.8 1.28001,0.76 3.48,0.76 z m -0.31999,-18.64 q 2.24,0 3.75999,0.6 1.56,0.56 2.48001,1.64 0.95999,1.04 1.35999,2.52 0.40001,1.44 0.40001,3.2 v 13 q -0.48001,0.08 -1.36001,0.24 -0.83999,0.12 -1.92,0.24 -1.08,0.12 -2.36,0.2 -1.23999,0.12 -2.48,0.12 -1.75999,0 -3.24,-0.36 -1.48,-0.36 -2.56,-1.12 -1.07999,-0.8 -1.68,-2.08 -0.59999,-1.28 -0.59999,-3.08 0,-1.72 0.67999,-2.96 0.72,-1.24 1.92,-2 1.2,-0.76 2.8,-1.12 1.60001,-0.36 3.36001,-0.36 0.56,0 1.15999,0.08 0.6,0.04 1.12,0.16 0.56,0.08 0.96001,0.16 0.39999,0.08 0.55999,0.12 v -1.04 q 0,-0.92 -0.2,-1.8 -0.2,-0.92 -0.71999,-1.6 -0.52001,-0.72 -1.44,-1.12 -0.88,-0.44 -2.32,-0.44 -1.84001,0 -3.24,0.28 -1.36001,0.24 -2.04001,0.52 l -0.44,-3.08 q 0.72001,-0.32 2.4,-0.6 1.68,-0.32 3.64001,-0.32 z"
         style=""
         id="path1133" />
      <path
         d="m 369.95,821.92391 q 1.28,-0.32 3.4,-0.68 2.12,-0.36 4.88,-0.36 2.48,0 4.12,0.72 1.64,0.68 2.6,1.96 1,1.24 1.4,3 0.4,1.76 0.4,3.88 v 11.68 h -3.72 v -10.88 q 0,-1.92 -0.28,-3.28 -0.24,-1.36 -0.84,-2.2 -0.6,-0.84 -1.6,-1.2 -1,-0.4 -2.48,-0.4 -0.6,0 -1.24,0.04 -0.64,0.04 -1.24,0.12 -0.56,0.04 -1.04,0.12 -0.44,0.08 -0.64,0.12 v 17.56 h -3.72 z"
         style=""
         id="path1135" />
      <path
         d="m 406.35875,825.72391 q -0.68,-0.56 -1.96,-1.08 -1.28,-0.52 -2.8,-0.52 -1.6,0 -2.76,0.6 -1.12,0.56 -1.84,1.6 -0.72,1 -1.04,2.4 -0.32,1.4 -0.32,3 0,3.64 1.8,5.64 1.8,1.96 4.8,1.96 1.52,0 2.52,-0.12 1.04,-0.16 1.6,-0.32 z m 0,-14 3.72,-0.64 v 30.44 q -1.28,0.36 -3.28,0.72 -2,0.36 -4.6,0.36 -2.4,0 -4.32,-0.76 -1.92,-0.76 -3.28,-2.16 -1.36,-1.4 -2.12,-3.4 -0.72,-2.04 -0.72,-4.56 0,-2.4 0.6,-4.4 0.64,-2 1.84,-3.44 1.2,-1.44 2.92,-2.24 1.76,-0.8 4,-0.8 1.8,0 3.16,0.48 1.4,0.48 2.08,0.92 z"
         style=""
         id="path1137" />
      <path
         d="m 257.95781,871.92391 q 1.28,-0.32 3.36,-0.68 2.12,-0.36 4.88,-0.36 2,0 3.36,0.56 1.36,0.52 2.28,1.56 0.28,-0.2 0.88,-0.56 0.6,-0.36 1.48,-0.68 0.88,-0.36 1.96,-0.6 1.08,-0.28 2.32,-0.28 2.4,0 3.92,0.72 1.52,0.68 2.36,1.96 0.88,1.28 1.16,3.04 0.32,1.76 0.32,3.84 v 11.68 h -3.72 v -10.88 q 0,-1.84 -0.2,-3.16 -0.16,-1.32 -0.68,-2.2 -0.48,-0.88 -1.36,-1.28 -0.84,-0.44 -2.2,-0.44 -1.88,0 -3.12,0.52 -1.2,0.48 -1.64,0.88 0.32,1.04 0.48,2.28 0.16,1.24 0.16,2.6 v 11.68 h -3.72 v -10.88 q 0,-1.84 -0.2,-3.16 -0.2,-1.32 -0.72,-2.2 -0.48,-0.88 -1.36,-1.28 -0.84,-0.44 -2.16,-0.44 -0.56,0 -1.2,0.04 -0.64,0.04 -1.24,0.12 -0.56,0.04 -1.04,0.12 -0.48,0.08 -0.64,0.12 v 17.56 h -3.72 z"
         style=""
         id="path1139" />
      <path
         d="m 310.77094,881.72391 q 0,2.48 -0.72,4.48 -0.72,2 -2.04,3.44 -1.28,1.44 -3.08,2.24 -1.8,0.76 -3.92,0.76 -2.12,0 -3.92,-0.76 -1.8,-0.8 -3.12,-2.24 -1.28,-1.44 -2,-3.44 -0.72,-2 -0.72,-4.48 0,-2.44 0.72,-4.44 0.72,-2.04 2,-3.48 1.32,-1.44 3.12,-2.2 1.8,-0.8 3.92,-0.8 2.12,0 3.92,0.8 1.8,0.76 3.08,2.2 1.32,1.44 2.04,3.48 0.72,2 0.72,4.44 z m -3.88,0 q 0,-3.52 -1.6,-5.56 -1.56,-2.08 -4.28,-2.08 -2.72,0 -4.32,2.08 -1.56,2.04 -1.56,5.56 0,3.52 1.56,5.6 1.6,2.04 4.32,2.04 2.72,0 4.28,-2.04 1.6,-2.08 1.6,-5.6 z"
         style=""
         id="path1141" />
      <path
         d="m 331.69781,871.32391 q -1.56,5.84 -3.68,11.2 -2.08,5.36 -4.04,9.6 h -3.36 q -1.96,-4.24 -4.08,-9.6 -2.08,-5.36 -3.64,-11.2 h 4 q 0.48,1.96 1.12,4.2 0.68,2.2 1.4,4.4 0.76,2.16 1.52,4.2 0.76,2.04 1.44,3.64 0.68,-1.6 1.44,-3.64 0.76,-2.04 1.48,-4.2 0.76,-2.2 1.4,-4.4 0.68,-2.24 1.16,-4.2 z"
         style=""
         id="path1143" />
      <path
         d="m 339.25594,892.12391 h -3.72 v -20.8 h 3.72 z m -1.88,-24.56 q -1,0 -1.72,-0.64 -0.68,-0.68 -0.68,-1.8 0,-1.12 0.68,-1.76 0.72,-0.68 1.72,-0.68 1,0 1.68,0.68 0.72,0.64 0.72,1.76 0,1.12 -0.72,1.8 -0.68,0.64 -1.68,0.64 z"
         style=""
         id="path1145" />
      <path
         d="m 344.53219,881.76391 q 0,-2.76 0.8,-4.8 0.8,-2.08 2.12,-3.44 1.32,-1.36 3.04,-2.04 1.72,-0.68 3.52,-0.68 4.2,0 6.44,2.64 2.24,2.6 2.24,7.96 0,0.24 0,0.64 0,0.36 -0.04,0.68 h -14.24 q 0.24,3.24 1.88,4.92 1.64,1.68 5.12,1.68 1.96,0 3.28,-0.32 1.36,-0.36 2.04,-0.68 l 0.52,3.12 q -0.68,0.36 -2.4,0.76 -1.68,0.4 -3.84,0.4 -2.72,0 -4.72,-0.8 -1.96,-0.84 -3.24,-2.28 -1.28,-1.44 -1.92,-3.4 -0.6,-2 -0.6,-4.36 z m 14.28,-2.04 q 0.04,-2.52 -1.28,-4.12 -1.28,-1.64 -3.56,-1.64 -1.28,0 -2.28,0.52 -0.96,0.48 -1.64,1.28 -0.68,0.8 -1.08,1.84 -0.36,1.04 -0.48,2.12 z"
         style=""
         id="path1147" />
      <path
         d="m 372.87594,889.44391 q 2.28,0 3.36,-0.6 1.12,-0.6 1.12,-1.92 0,-1.36 -1.08,-2.16 -1.08,-0.8 -3.56,-1.8 -1.2,-0.48 -2.32,-0.96 -1.08,-0.52 -1.88,-1.2 -0.8,-0.68 -1.28,-1.64 -0.48,-0.96 -0.48,-2.36 0,-2.76 2.04,-4.36 2.04,-1.64 5.56,-1.64 0.88,0 1.76,0.12 0.88,0.08 1.64,0.24 0.76,0.12 1.32,0.28 0.6,0.16 0.92,0.28 l -0.68,3.2 q -0.6,-0.32 -1.88,-0.64 -1.28,-0.36 -3.08,-0.36 -1.56,0 -2.72,0.64 -1.16,0.6 -1.16,1.92 0,0.68 0.24,1.2 0.28,0.52 0.8,0.96 0.56,0.4 1.36,0.76 0.8,0.36 1.92,0.76 1.48,0.56 2.64,1.12 1.16,0.52 1.96,1.24 0.84,0.72 1.28,1.76 0.44,1 0.44,2.48 0,2.88 -2.16,4.36 -2.12,1.48 -6.08,1.48 -2.76,0 -4.32,-0.48 -1.56,-0.44 -2.12,-0.68 l 0.68,-3.2 q 0.64,0.24 2.04,0.72 1.4,0.48 3.72,0.48 z"
         style=""
         id="path1149" />
    </g>
    <g
       aria-label="Live-action roleplaying"
       transform="matrix(0.26458333,0,0,0.26458333,71.479522,-170.78785)"
       style="font-style:normal;font-variant:normal;font-weight:normal;font-stretch:normal;font-size:40px;line-height:1.25;font-family:Ubuntu;-inkscape-font-specification:Ubuntu;text-align:center;letter-spacing:0px;word-spacing:0px;text-anchor:middle;fill:#ffffff;fill-opacity:1;stroke:none"
       id="flowRoot817-5-0-0-31">
      <path
         d="m 240.3075,788.76391 v 3.36 h -16.68 v -27.72 h 3.88 v 24.36 z"
         style=""
         id="path1336" />
      <path
         d="m 247.88875,792.12391 h -3.72 v -20.8 h 3.72 z m -1.88,-24.56 q -1,0 -1.72,-0.64 -0.68,-0.68 -0.68,-1.8 0,-1.12 0.68,-1.76 0.72,-0.68 1.72,-0.68 1,0 1.68,0.68 0.72,0.64 0.72,1.76 0,1.12 -0.72,1.8 -0.68,0.64 -1.68,0.64 z"
         style=""
         id="path1338" />
      <path
         d="m 270.565,771.32391 q -1.56,5.84 -3.68,11.2 -2.08,5.36 -4.04,9.6 h -3.36 q -1.96,-4.24 -4.08,-9.6 -2.08,-5.36 -3.64,-11.2 h 4 q 0.48,1.96 1.12,4.2 0.68,2.2 1.4,4.4 0.76,2.16 1.52,4.2 0.76,2.04 1.44,3.64 0.68,-1.6 1.44,-3.64 0.76,-2.04 1.48,-4.2 0.76,-2.2 1.4,-4.4 0.68,-2.24 1.16,-4.2 z"
         style=""
         id="path1340" />
      <path
         d="m 272.69625,781.76391 q 0,-2.76 0.8,-4.8 0.8,-2.08 2.12,-3.44 1.32,-1.36 3.04,-2.04 1.72,-0.68 3.52,-0.68 4.2,0 6.44,2.64 2.24,2.6 2.24,7.96 0,0.24 0,0.64 0,0.36 -0.04,0.68 h -14.24 q 0.24,3.24 1.88,4.92 1.64,1.68 5.12,1.68 1.96,0 3.28,-0.32 1.36,-0.36 2.04,-0.68 l 0.52,3.12 q -0.68,0.36 -2.4,0.76 -1.68,0.4 -3.84,0.4 -2.72,0 -4.72,-0.8 -1.96,-0.84 -3.24,-2.28 -1.28,-1.44 -1.92,-3.4 -0.6,-2 -0.6,-4.36 z m 14.28,-2.04 q 0.04,-2.52 -1.28,-4.12 -1.28,-1.64 -3.56,-1.64 -1.28,0 -2.28,0.52 -0.96,0.48 -1.64,1.28 -0.68,0.8 -1.08,1.84 -0.36,1.04 -0.48,2.12 z"
         style=""
         id="path1342" />
      <path
         d="m 294.04,778.40391 h 9.88 v 3.48 h -9.88 z"
         style=""
         id="path1344" />
      <path
         d="m 315.19312,789.44391 q 1.32,0 2.32,-0.04 1.04001,-0.08 1.72,-0.24 v -6.2 q -0.4,-0.2 -1.32,-0.32 -0.88,-0.16 -2.16,-0.16 -0.84,0 -1.8,0.12 -0.92,0.12 -1.72,0.52 -0.76,0.36 -1.28,1.04 -0.51999,0.64 -0.51999,1.72 0,2 1.27999,2.8 1.28001,0.76 3.48,0.76 z m -0.31999,-18.64 q 2.24,0 3.75999,0.6 1.56,0.56 2.48001,1.64 0.95999,1.04 1.35999,2.52 0.40001,1.44 0.40001,3.2 v 13 q -0.48001,0.08 -1.36001,0.24 -0.83999,0.12 -1.92,0.24 -1.08,0.12 -2.36,0.2 -1.23999,0.12 -2.48,0.12 -1.75999,0 -3.24,-0.36 -1.48,-0.36 -2.56,-1.12 -1.07999,-0.8 -1.68,-2.08 -0.59999,-1.28 -0.59999,-3.08 0,-1.72 0.67999,-2.96 0.72,-1.24 1.92,-2 1.2,-0.76 2.8,-1.12 1.60001,-0.36 3.36001,-0.36 0.56,0 1.15999,0.08 0.6,0.04 1.12,0.16 0.56,0.08 0.96001,0.16 0.39999,0.08 0.55999,0.12 v -1.04 q 0,-0.92 -0.2,-1.8 -0.2,-0.92 -0.71999,-1.6 -0.52001,-0.72 -1.44,-1.12 -0.88,-0.44 -2.32,-0.44 -1.84001,0 -3.24,0.28 -1.36001,0.24 -2.04001,0.52 l -0.44,-3.08 q 0.72001,-0.32 2.4,-0.6 1.68,-0.32 3.64001,-0.32 z"
         style=""
         id="path1346" />
      <path
         d="m 338.0525,792.60391 q -2.52,0 -4.44,-0.8 -1.88,-0.8 -3.2,-2.24 -1.28,-1.44 -1.92,-3.4 -0.64,-2 -0.64,-4.4 0,-2.4 0.68,-4.4 0.72,-2 2,-3.44 1.28,-1.48 3.12,-2.28 1.88,-0.84 4.16,-0.84 1.4,0 2.8,0.24 1.4,0.24 2.68,0.76 l -0.84,3.16 q -0.84,-0.4 -1.96,-0.64 -1.08,-0.24 -2.32,-0.24 -3.12,0 -4.8,1.96 -1.64,1.96 -1.64,5.72 0,1.68 0.36,3.08 0.4,1.4 1.2,2.4 0.84,1 2.12,1.56 1.28,0.52 3.12,0.52 1.48,0 2.68,-0.28 1.2,-0.28 1.88,-0.6 l 0.52,3.12 q -0.32,0.2 -0.92,0.4 -0.6,0.16 -1.36,0.28 -0.76,0.16 -1.64,0.24 -0.84,0.12 -1.64,0.12 z"
         style=""
         id="path1348" />
      <path
         d="m 351.08625,771.32391 h 7.88 v 3.12 h -7.88 v 9.6 q 0,1.56 0.24,2.6 0.24,1 0.72,1.6 0.48,0.56 1.2,0.8 0.72,0.24 1.68,0.24 1.68,0 2.68,-0.36 1.04,-0.4 1.44,-0.56 l 0.72,3.08 q -0.56,0.28 -1.96,0.68 -1.4,0.44 -3.2,0.44 -2.12,0 -3.52,-0.52 -1.36,-0.56 -2.2,-1.64 -0.84,-1.08 -1.2,-2.64 -0.32,-1.6 -0.32,-3.68 v -18.56 l 3.72,-0.64 z"
         style=""
         id="path1350" />
      <path
         d="m 367.42,792.12391 h -3.72 v -20.8 h 3.72 z m -1.88,-24.56 q -1,0 -1.72,-0.64 -0.68,-0.68 -0.68,-1.8 0,-1.12 0.68,-1.76 0.72,-0.68 1.72,-0.68 1,0 1.68,0.68 0.72,0.64 0.72,1.76 0,1.12 -0.72,1.8 -0.68,0.64 -1.68,0.64 z"
         style=""
         id="path1352" />
      <path
         d="m 392.21625,781.72391 q 0,2.48 -0.72,4.48 -0.72,2 -2.04,3.44 -1.28,1.44 -3.08,2.24 -1.8,0.76 -3.92,0.76 -2.12,0 -3.92,-0.76 -1.8,-0.8 -3.12,-2.24 -1.28,-1.44 -2,-3.44 -0.72,-2 -0.72,-4.48 0,-2.44 0.72,-4.44 0.72,-2.04 2,-3.48 1.32,-1.44 3.12,-2.2 1.8,-0.8 3.92,-0.8 2.12,0 3.92,0.8 1.8,0.76 3.08,2.2 1.32,1.44 2.04,3.48 0.72,2 0.72,4.44 z m -3.88,0 q 0,-3.52 -1.6,-5.56 -1.56,-2.08 -4.28,-2.08 -2.72,0 -4.32,2.08 -1.56,2.04 -1.56,5.56 0,3.52 1.56,5.6 1.6,2.04 4.32,2.04 2.72,0 4.28,-2.04 1.6,-2.08 1.6,-5.6 z"
         style=""
         id="path1354" />
      <path
         d="m 397.45,771.92391 q 1.28,-0.32 3.4,-0.68 2.12,-0.36 4.88,-0.36 2.48,0 4.12,0.72 1.64,0.68 2.6,1.96 1,1.24 1.4,3 0.4,1.76 0.4,3.88 v 11.68 h -3.72 v -10.88 q 0,-1.92 -0.28,-3.28 -0.24,-1.36 -0.84,-2.2 -0.6,-0.84 -1.6,-1.2 -1,-0.4 -2.48,-0.4 -0.6,0 -1.24,0.04 -0.64,0.04 -1.24,0.12 -0.56,0.04 -1.04,0.12 -0.44,0.08 -0.64,0.12 v 17.56 h -3.72 z"
         style=""
         id="path1356" />
      <path
         d="m 227.98156,820.88391 q 0.48,0 1.08,0.08 0.64,0.04 1.24,0.16 0.6,0.08 1.08,0.2 0.52,0.08 0.76,0.16 l -0.64,3.24 q -0.44,-0.16 -1.48,-0.36 -1,-0.24 -2.6,-0.24 -1.04,0 -2.08,0.24 -1,0.2 -1.32,0.28 v 17.48 h -3.72 v -19.92 q 1.32,-0.48 3.28,-0.88 1.96,-0.44 4.4,-0.44 z"
         style=""
         id="path1358" />
      <path
         d="m 254.13031,831.72391 q 0,2.48 -0.72,4.48 -0.72,2 -2.04,3.44 -1.28,1.44 -3.08,2.24 -1.8,0.76 -3.92,0.76 -2.12,0 -3.92,-0.76 -1.8,-0.8 -3.12,-2.24 -1.28,-1.44 -2,-3.44 -0.72,-2 -0.72,-4.48 0,-2.44 0.72,-4.44 0.72,-2.04 2,-3.48 1.32,-1.44 3.12,-2.2 1.8,-0.8 3.92,-0.8 2.12,0 3.92,0.8 1.8,0.76 3.08,2.2 1.32,1.44 2.04,3.48 0.72,2 0.72,4.44 z m -3.88,0 q 0,-3.52 -1.6,-5.56 -1.56,-2.08 -4.28,-2.08 -2.72,0 -4.32,2.08 -1.56,2.04 -1.56,5.56 0,3.52 1.56,5.6 1.6,2.04 4.32,2.04 2.72,0 4.28,-2.04 1.6,-2.08 1.6,-5.6 z"
         style=""
         id="path1360" />
      <path
         d="m 265.60406,842.52391 q -3.44,-0.08 -4.88,-1.48 -1.44,-1.4 -1.44,-4.36 v -24.96 l 3.72,-0.64 v 25 q 0,0.92 0.16,1.52 0.16,0.6 0.52,0.96 0.36,0.36 0.96,0.56 0.6,0.16 1.48,0.28 z"
         style=""
         id="path1362" />
      <path
         d="m 269.14156,831.76391 q 0,-2.76 0.8,-4.8 0.8,-2.08 2.12,-3.44 1.32,-1.36 3.04,-2.04 1.72,-0.68 3.52,-0.68 4.2,0 6.44,2.64 2.24,2.6 2.24,7.96 0,0.24 0,0.64 0,0.36 -0.04,0.68 h -14.24 q 0.24,3.24 1.88,4.92 1.64,1.68 5.12,1.68 1.96,0 3.28,-0.32 1.36,-0.36 2.04,-0.68 l 0.52,3.12 q -0.68,0.36 -2.4,0.76 -1.68,0.4 -3.84,0.4 -2.72,0 -4.72,-0.8 -1.96,-0.84 -3.24,-2.28 -1.28,-1.44 -1.92,-3.4 -0.6,-2 -0.6,-4.36 z m 14.28,-2.04 q 0.04,-2.52 -1.28,-4.12 -1.28,-1.64 -3.56,-1.64 -1.28,0 -2.28,0.52 -0.96,0.48 -1.64,1.28 -0.68,0.8 -1.08,1.84 -0.36,1.04 -0.48,2.12 z"
         style=""
         id="path1364" />
      <path
         d="m 307.08531,831.76391 q 0,-3.64 -1.8,-5.6 -1.8,-1.96 -4.8,-1.96 -1.68,0 -2.64,0.12 -0.92,0.12 -1.48,0.28 v 13.12 q 0.68,0.56 1.96,1.08 1.28,0.52 2.8,0.52 1.6,0 2.72,-0.56 1.16,-0.6 1.88,-1.6 0.72,-1.04 1.04,-2.4 0.32,-1.4 0.32,-3 z m 3.88,0 q 0,2.36 -0.64,4.36 -0.6,2 -1.8,3.44 -1.2,1.44 -2.96,2.24 -1.72,0.8 -3.96,0.8 -1.8,0 -3.2,-0.48 -1.36,-0.48 -2.04,-0.92 v 8.32 h -3.72 v -27.56 q 1.32,-0.32 3.28,-0.68 2,-0.4 4.6,-0.4 2.4,0 4.32,0.76 1.92,0.76 3.28,2.16 1.36,1.4 2.08,3.44 0.76,2 0.76,4.52 z"
         style=""
         id="path1366" />
      <path
         d="m 322.47906,842.52391 q -3.44,-0.08 -4.88,-1.48 -1.44,-1.4 -1.44,-4.36 v -24.96 l 3.72,-0.64 v 25 q 0,0.92 0.16,1.52 0.16,0.6 0.52,0.96 0.36,0.36 0.96,0.56 0.6,0.16 1.48,0.28 z"
         style=""
         id="path1368" />
      <path
         d="m 334.21656,839.44391 q 1.32,0 2.32,-0.04 1.04,-0.08 1.72,-0.24 v -6.2 q -0.4,-0.2 -1.32,-0.32 -0.88,-0.16 -2.16,-0.16 -0.84,0 -1.8,0.12 -0.92,0.12 -1.72,0.52 -0.76,0.36 -1.28,1.04 -0.52,0.64 -0.52,1.72 0,2 1.28,2.8 1.28,0.76 3.48,0.76 z m -0.32,-18.64 q 2.24,0 3.76,0.6 1.56,0.56 2.48,1.64 0.96,1.04 1.36,2.52 0.4,1.44 0.4,3.2 v 13 q -0.48,0.08 -1.36,0.24 -0.84,0.12 -1.92,0.24 -1.08,0.12 -2.36,0.2 -1.24,0.12 -2.48,0.12 -1.76,0 -3.24,-0.36 -1.48,-0.36 -2.56,-1.12 -1.08,-0.8 -1.68,-2.08 -0.6,-1.28 -0.6,-3.08 0,-1.72 0.68,-2.96 0.72,-1.24 1.92,-2 1.2,-0.76 2.8,-1.12 1.6,-0.36 3.36,-0.36 0.56,0 1.16,0.08 0.6,0.04 1.12,0.16 0.56,0.08 0.96,0.16 0.4,0.08 0.56,0.12 v -1.04 q 0,-0.92 -0.2,-1.8 -0.2,-0.92 -0.72,-1.6 -0.52,-0.72 -1.44,-1.12 -0.88,-0.44 -2.32,-0.44 -1.84,0 -3.24,0.28 -1.36,0.24 -2.04,0.52 l -0.44,-3.08 q 0.72,-0.32 2.4,-0.6 1.68,-0.32 3.64,-0.32 z"
         style=""
         id="path1370" />
      <path
         d="m 344.97094,846.00391 q 0.44,0.2 1.12,0.36 0.72,0.2 1.4,0.2 2.2,0 3.44,-1 1.24,-0.96 2.24,-3.16 -2.52,-4.8 -4.72,-10.16 -2.16,-5.4 -3.6,-10.92 h 4 q 0.44,1.8 1.04,3.88 0.64,2.08 1.4,4.28 0.76,2.2 1.64,4.4 0.88,2.2 1.84,4.24 1.52,-4.2 2.64,-8.32 1.12,-4.12 2.12,-8.48 h 3.84 q -1.44,5.88 -3.2,11.32 -1.76,5.4 -3.8,10.12 -0.8,1.8 -1.68,3.08 -0.84,1.32 -1.88,2.16 -1.04,0.84 -2.36,1.24 -1.28,0.4 -2.92,0.4 -0.44,0 -0.92,-0.08 -0.48,-0.04 -0.96,-0.16 -0.44,-0.08 -0.84,-0.2 -0.36,-0.12 -0.52,-0.2 z"
         style=""
         id="path1372" />
      <path
         d="m 370.97469,842.12391 h -3.72 v -20.8 h 3.72 z m -1.88,-24.56 q -1,0 -1.72,-0.64 -0.68,-0.68 -0.68,-1.8 0,-1.12 0.68,-1.76 0.72,-0.68 1.72,-0.68 1,0 1.68,0.68 0.72,0.64 0.72,1.76 0,1.12 -0.72,1.8 -0.68,0.64 -1.68,0.64 z"
         style=""
         id="path1374" />
      <path
         d="m 377.41094,821.92391 q 1.28,-0.32 3.4,-0.68 2.12,-0.36 4.88,-0.36 2.48,0 4.12,0.72 1.64,0.68 2.6,1.96 1,1.24 1.4,3 0.4,1.76 0.4,3.88 v 11.68 h -3.72 v -10.88 q 0,-1.92 -0.28,-3.28 -0.24,-1.36 -0.84,-2.2 -0.6,-0.84 -1.6,-1.2 -1,-0.4 -2.48,-0.4 -0.6,0 -1.24,0.04 -0.64,0.04 -1.24,0.12 -0.56,0.04 -1.04,0.12 -0.44,0.08 -0.64,0.12 v 17.56 h -3.72 z"
         style=""
         id="path1376" />
      <path
         d="m 413.41969,840.04391 q -0.48,0.32 -1.88,0.84 -1.36,0.48 -3.2,0.48 -1.88,0 -3.56,-0.6 -1.64,-0.6 -2.88,-1.84 -1.24,-1.28 -1.96,-3.16 -0.72,-1.88 -0.72,-4.48 0,-2.28 0.68,-4.16 0.68,-1.92 1.96,-3.28 1.32,-1.4 3.2,-2.16 1.88,-0.8 4.24,-0.8 2.6,0 4.52,0.4 1.96,0.36 3.28,0.68 v 18.56 q 0,4.8 -2.48,6.96 -2.48,2.16 -7.52,2.16 -1.96,0 -3.72,-0.32 -1.72,-0.32 -3,-0.76 l 0.68,-3.24 q 1.12,0.44 2.72,0.76 1.64,0.36 3.4,0.36 3.32,0 4.76,-1.32 1.48,-1.32 1.48,-4.2 z m -0.04,-15.44 q -0.56,-0.16 -1.52,-0.28 -0.92,-0.16 -2.52,-0.16 -3,0 -4.64,1.96 -1.6,1.96 -1.6,5.2 0,1.8 0.44,3.08 0.48,1.28 1.24,2.12 0.8,0.84 1.8,1.24 1.04,0.4 2.12,0.4 1.48,0 2.72,-0.4 1.24,-0.44 1.96,-1 z"
         style=""
         id="path1378" />
    </g>
  </g>
</svg>
